<svg width="92" height="100" viewBox="0 0 92 100" fill="none" xmlns="http://www.w3.org/2000/svg">
<path d="M89.7858 22.0724C90.6053 22.0724 91.2696 21.4082 91.2696 20.5886V16.3121C91.2696 12.4515 88.1288 9.31091 84.2684 9.31091H46.0592C45.4655 7.23826 44.3528 5.33572 42.803 3.78591C39.713 0.695484 35.1622 -0.642602 30.9265 0.293922C29.9475 0.510328 29.1645 1.24392 28.8829 2.20857C28.5999 3.17849 28.8673 4.224 29.5807 4.93767L33.954 9.31091H26.4725L25.8397 8.6781C24.5309 7.36931 22.3352 7.69763 21.462 9.31091H7.7331C3.87256 9.31091 0.731934 12.4515 0.731934 16.3121V73.6011C0.731934 77.4617 3.87275 80.6023 7.7331 80.6023H36.9407L35.0471 87.8978H31.7745C26.9723 87.8978 23.0657 91.8045 23.0657 96.6064C23.0657 98.4775 24.588 100 26.4591 100H65.5424C67.4135 100 68.9358 98.4775 68.9358 96.6064C68.9358 91.8045 65.0292 87.8978 60.227 87.8978H56.9544L55.0606 80.6023H84.2682C88.1288 80.6023 91.2694 77.4617 91.2694 73.6011V27.5633C91.2694 26.7437 90.6051 26.0795 89.7856 26.0795C88.9661 26.0795 88.3018 26.7437 88.3018 27.5633V67.2021H42.9091L45.8376 64.2736C47.28 64.6152 48.8665 64.2332 50.0059 63.0937C51.4577 61.642 51.6909 59.4261 50.7061 57.7285L53.185 55.2494C53.5532 54.8814 53.9823 54.5904 54.4606 54.3845C59.4911 52.2195 59.0217 52.4234 59.0774 52.3961C60.0196 51.933 60.9278 51.4131 61.7983 50.8394L64.0298 53.0713C66.7776 55.8189 71.2251 55.8193 73.9731 53.0711C76.7208 50.3236 76.7212 45.8758 73.9731 43.1277L71.1594 40.314C71.159 39.0072 70.6282 37.759 69.6223 36.8435C69.0903 36.3593 68.4555 36.0127 67.7719 35.8205C68.2755 34.2181 67.8747 32.4638 66.6743 31.2601C65.8641 30.448 64.861 29.9562 63.8221 29.8156C63.9237 28.5338 63.5081 27.2338 62.5952 26.2578C61.9573 25.5758 61.1616 25.1176 60.31 24.9023C60.6798 23.4217 60.3315 21.8103 59.2469 20.6187C57.41 18.6008 54.3135 18.5986 52.4516 20.4609L51.8786 21.0332L49.6823 18.8369C47.9348 17.0892 46.8247 14.7916 46.5565 12.3666C46.5532 12.3357 46.5499 12.3062 46.5471 12.2785H84.2682C86.4924 12.2785 88.302 14.0881 88.302 16.3121V20.5886C88.302 21.4082 88.9663 22.0724 89.7858 22.0724ZM35.8376 12.2785C35.8409 12.9601 35.5831 13.6427 35.0643 14.1617C34.0284 15.1976 32.3554 15.1935 31.3235 14.1617L29.4403 12.2785H35.8376ZM60.227 90.8654C63.3926 90.8654 65.9682 93.441 65.9682 96.6064C65.9682 96.8414 65.7772 97.0324 65.5424 97.0324H26.4589C26.2241 97.0324 26.0329 96.8414 26.0329 96.6064C26.0329 93.4408 28.6085 90.8654 31.7741 90.8654H60.227ZM38.1128 87.8978L40.0063 80.6023H51.9948L53.8885 87.8978H38.1128ZM88.302 70.1697V73.6011C88.302 75.8252 86.4924 77.6347 84.2682 77.6347C83.0586 77.6347 8.07822 77.6347 7.73291 77.6347C5.50869 77.6347 3.69912 75.8252 3.69912 73.6011V70.1697H88.302ZM38.7122 67.2021H12.3227L19.6354 59.8894C20.2149 59.3097 20.2149 58.3705 19.6354 57.791C19.0559 57.2117 18.1165 57.2117 17.5372 57.791L8.12588 67.2023H3.69931V16.3121C3.69931 14.0881 5.50888 12.2785 7.7331 12.2785H20.9106C20.785 15.8152 22.1417 19.3539 24.6886 21.9008C26.9182 24.1304 29.8788 25.4554 33.0255 25.6318C34.6286 25.7217 36.7317 26.4189 38.472 27.6933C36.9227 29.8373 36.2118 32.3566 36.5018 34.7968L36.8333 37.5842C36.9823 38.8367 36.5561 40.0668 35.6639 40.9588L34.8792 41.7437C33.1526 40.4107 30.6438 40.5172 29.037 42.1242C27.6442 43.5166 27.3995 45.5576 28.1638 47.165L22.4507 52.8781C21.8712 53.4578 21.8712 54.397 22.4507 54.9765C23.0304 55.556 23.9696 55.5558 24.5489 54.9765L30.0815 49.4439L43.2762 62.6385L38.7122 67.2021ZM47.9075 60.9953C47.3319 61.5705 46.4024 61.5681 45.8294 60.9951L31.1348 46.3006C30.5606 45.7265 30.5604 44.7967 31.1347 44.2224C31.1348 44.2224 31.1348 44.2224 31.1348 44.2222C31.7095 43.6478 32.6386 43.6478 33.213 44.2224C34.696 45.7054 46.8497 57.8597 47.9075 58.9168C48.4805 59.49 48.4805 60.4222 47.9075 60.9953ZM70.0255 43.3763L71.8751 45.226C73.4594 46.8101 73.4594 49.3883 71.8751 50.9724C70.2907 52.5564 67.713 52.5566 66.1284 50.9726L64.1975 49.0418C65.3397 48.0726 69.9006 43.5219 70.0255 43.3763ZM54.5497 22.5599C55.2346 21.875 56.376 21.8724 57.053 22.6164C57.663 23.2863 57.6071 24.3834 56.929 25.0617L56.6118 25.3787C55.3251 26.6506 56.7299 28.7291 58.4178 27.9062C59.0975 27.5732 59.9053 27.7256 60.4284 28.2849C60.9819 28.8765 61.0227 29.8111 60.5251 30.508C59.5296 31.9045 60.9534 33.6244 62.5174 32.8933C63.1792 32.5859 63.9862 32.767 64.5735 33.3556C65.0463 33.8297 65.1503 34.5664 64.834 35.1933C64.8188 35.2176 64.7505 35.3217 64.5719 35.5416C63.4967 36.8666 64.6104 38.8207 66.2909 38.625C66.7946 38.5664 67.2682 38.7131 67.6251 39.0381C68.3809 39.7259 68.3587 40.8654 67.6952 41.5291C63.7128 45.3861 61.935 47.6758 57.8016 49.7164L53.2882 51.6582C52.463 52.0133 51.7225 52.5152 51.087 53.1506L48.7128 55.525L37.0034 43.8156L37.7622 43.0568C39.3014 41.5174 40.037 39.3949 39.78 37.2332L39.4485 34.4459C39.2595 32.8556 39.7012 31.1927 40.677 29.7199L41.4948 30.5349C42.8723 31.9131 45.0419 32.0232 46.5032 30.5732C46.736 30.3781 46.3112 30.7783 54.5497 22.5599ZM47.5843 20.9351L49.7788 23.1297C39.9198 32.9359 47.2532 25.6418 44.418 28.4619C44.1499 28.7302 43.8471 28.6912 43.5917 28.4355L41.6009 26.4508C41.5831 26.4332 41.5649 26.4158 41.5464 26.3992C39.152 24.1396 35.9497 22.8222 33.1905 22.6687C30.7741 22.5334 28.4999 21.5154 26.7866 19.8021C24.5046 17.5201 23.462 14.2082 24.0134 11.0701C24.0145 11.064 24.0157 11.0578 24.0167 11.0517C25.8765 12.9115 27.22 14.2552 29.2249 16.2601C31.4184 18.4537 34.9686 18.4539 37.1624 16.2601C38.2225 15.2 38.8063 13.7904 38.8063 12.2914C38.8063 10.7922 38.2225 9.38259 37.1624 8.32244L31.9542 3.11423C35.0977 2.55505 38.4182 3.59783 40.7046 5.88435C43.2011 8.38084 43.413 10.9422 43.6069 12.6931C43.9493 15.7853 45.3618 18.7123 47.5843 20.9351Z" fill="#0066B2"/>
</svg>
