<svg width="101" height="100" viewBox="0 0 101 100" fill="none" xmlns="http://www.w3.org/2000/svg">
<path d="M92.6871 24.7086H89.408V22.5868C91.8654 20.9595 93.4897 18.1709 93.4897 15.0093V6.21567C93.4897 3.2196 91.0521 0.782013 88.056 0.782013H80.7562C77.7594 0.782013 75.3226 3.2196 75.3226 6.21567V15.0093C75.3226 18.0923 76.8668 20.8191 79.2212 22.4617V24.7086H67.3026V6.64673C67.3026 3.41263 64.6712 0.78125 61.4371 0.78125H15.5669C14.7589 0.78125 14.1043 1.43661 14.1043 2.24457C14.1043 3.05252 14.7589 3.70712 15.5669 3.70712H61.4371C63.0576 3.70712 64.3767 5.02625 64.3767 6.64673V24.7086H51.1168C51.5067 24.0768 51.7363 23.336 51.7363 22.541C51.7363 21.7758 51.5242 21.0617 51.1618 20.446L56.404 13.945C56.819 14.0846 57.2607 14.1632 57.7223 14.1632C60.0066 14.1632 61.8651 12.3047 61.8651 10.0204C61.8651 7.73544 60.0066 5.87692 57.7223 5.87692C55.4373 5.87692 53.5788 7.73544 53.5788 10.0204C53.5788 10.7758 53.7848 11.4815 54.1396 12.0926L48.886 18.6066C48.4785 18.4723 48.0444 18.3975 47.5928 18.3975C47.0244 18.3975 46.4819 18.5127 45.9883 18.721L43.1952 15.7707C43.4607 15.2245 43.614 14.6141 43.614 13.9671C43.614 11.6821 41.7548 9.82361 39.4705 9.82361C37.1863 9.82361 35.327 11.6821 35.327 13.9671C35.327 14.7224 35.5338 15.4289 35.8885 16.0393L32.4637 20.2362C32.0494 20.0966 31.6077 20.018 31.1476 20.018C30.1077 20.018 29.1586 20.4056 28.43 21.0411L24.5818 18.9743C24.6046 18.7958 24.6214 18.6157 24.6214 18.4311C24.6214 16.1461 22.7621 14.2876 20.4779 14.2876C18.1937 14.2876 16.3344 16.1461 16.3344 18.4311C16.3344 18.9896 16.4473 19.5213 16.6479 20.0081L12.4861 23.9014C11.9337 23.6282 11.3142 23.4703 10.6573 23.4703C8.37234 23.4703 6.51382 25.3288 6.51382 27.6138C6.51382 29.8981 8.37234 31.7566 10.6573 31.7566C12.9416 31.7566 14.8001 29.8981 14.8001 27.6138C14.8001 27.0554 14.688 26.5236 14.4865 26.0368L18.6491 22.1428C19.2015 22.4167 19.821 22.5739 20.4779 22.5739C21.5178 22.5739 22.4669 22.1863 23.1955 21.5515L27.0438 23.6183C27.0201 23.7961 27.0041 23.9769 27.0041 24.1615C27.0041 26.4458 28.8626 28.3051 31.1476 28.3051C33.4319 28.3051 35.2904 26.4458 35.2904 24.1615C35.2904 23.4055 35.0836 22.699 34.7289 22.0879L38.1529 17.8917C38.5672 18.0313 39.0097 18.1107 39.4698 18.1107C40.0381 18.1107 40.5806 17.9947 41.0742 17.7872L43.8681 20.7382C43.6026 21.2837 43.4492 21.8941 43.4492 22.541C43.4492 24.1898 44.4197 25.6126 45.8167 26.2794V29.9133C45.8167 32.7263 48.1062 35.0143 50.92 35.0143H73.316V54.6913C70.4138 55.7098 68.389 58.4976 68.389 61.6364V69.4176C68.389 72.6967 70.0072 75.6897 72.6645 77.4323V79.9149H71.5704C67.8404 79.9149 64.5705 81.9176 62.7753 84.9037C60.9808 81.9176 57.7109 79.9149 53.9809 79.9149H52.8868V77.4223C55.5441 75.6432 57.1623 72.6524 57.1623 69.4183V61.6364C57.1623 59.9731 56.6069 58.4381 55.6731 57.2044H61.4363C64.6712 57.2044 67.3018 54.5731 67.3018 51.339V40.8882C67.3018 40.0803 66.6472 39.4257 65.8392 39.4257C65.0313 39.4257 64.3759 40.0803 64.3759 40.8882V51.339C64.3759 52.9594 63.0576 54.2786 61.4363 54.2786H49.8106C49.8083 54.2786 49.8053 54.2786 49.803 54.2786H45.2635C45.2612 54.2786 45.2582 54.2786 45.2559 54.2786H19.3327C19.3297 54.2786 19.3274 54.2786 19.3251 54.2786H14.7849C14.7826 54.2786 14.7803 54.2786 14.7772 54.2786H6.21704C4.59656 54.2786 3.27744 52.9594 3.27744 51.339V6.64673C3.27744 5.02625 4.59656 3.70712 6.21704 3.70712H9.32297C10.1309 3.70712 10.7863 3.05252 10.7863 2.24457C10.7863 1.43661 10.1309 0.78125 9.32297 0.78125H6.21704C2.98294 0.78125 0.351562 3.41263 0.351562 6.64673V51.3382C0.351562 54.5731 2.98294 57.2044 6.21704 57.2044H8.91556C7.98172 58.4381 7.4263 59.9739 7.4263 61.6371V63.3156C7.4263 63.3255 7.42706 63.3354 7.42706 63.3453V69.4176C7.42706 72.6517 9.04526 75.6432 11.7026 77.4223V79.9141H10.6085C4.95285 79.9141 0.351562 84.5154 0.351562 90.1711V95.742C0.351562 97.7333 1.97205 99.353 3.96408 99.353H30.1451C30.9508 99.353 31.6931 99.0852 32.2943 98.6382C32.8955 99.0852 33.6378 99.353 34.4427 99.353H60.6253C61.4317 99.353 62.1741 99.0845 62.776 98.6359C63.3772 99.0845 64.1203 99.353 64.926 99.353H91.1093C93.0998 99.353 94.7195 97.7333 94.7195 95.742V90.1711C94.7195 87.9509 93.9948 85.788 92.6695 84.0202V68.277C92.6695 67.469 92.0149 66.8144 91.2062 66.8144C90.3983 66.8144 89.7437 67.469 89.7437 68.277V81.3766C88.1682 80.4298 86.3501 79.9141 84.4649 79.9141H83.3708V77.4185C83.4341 77.3766 83.4982 77.3361 83.56 77.2926C86.1189 75.4883 87.6463 72.5441 87.6463 69.4176V63.3232C87.6463 63.3202 87.6463 63.3179 87.6463 63.3156V61.6364C87.6463 59.9602 87.0818 58.4137 86.1342 57.1747H89.7437V61.4494C89.7437 62.2574 90.3983 62.9128 91.207 62.9128C92.0149 62.9128 92.6695 62.2581 92.6695 61.4494V57.1747H92.8687C96.9946 57.1747 100.352 53.8177 100.352 49.6918V32.373C100.352 28.1471 96.9138 24.7086 92.6871 24.7086ZM78.2484 6.21567C78.2484 4.83246 79.3738 3.70789 80.7562 3.70789H88.0568C89.4392 3.70789 90.5646 4.83322 90.5646 6.21567V8.51364C89.8138 8.12149 88.9601 7.89948 88.0568 7.89948H83.6729V7.78885C83.6729 6.9809 83.0183 6.32629 82.2096 6.32629C81.4017 6.32629 80.7471 6.9809 80.7471 7.78885V7.89948C79.8468 7.901 78.9969 8.12302 78.2484 8.51364V6.21567ZM78.2484 13.3331C78.2484 11.9507 79.3738 10.8253 80.7562 10.8253H88.0568C89.4392 10.8253 90.5646 11.9507 90.5646 13.3331V15.0093C90.5646 18.4052 87.802 21.1678 84.4061 21.1678C81.011 21.1678 78.2484 18.4052 78.2484 15.0093V13.3331ZM84.4061 24.0936C85.1202 24.0936 85.8145 24.0082 86.4821 23.851V26.0971C86.4813 26.1154 86.4806 26.1337 86.4806 26.1513C86.4638 27.3277 85.4926 28.2845 84.3146 28.2845C83.1366 28.2845 82.1654 27.3277 82.1494 26.152C82.1494 26.1337 82.1486 26.1154 82.1478 26.0971V23.8091C82.8696 23.9944 83.6264 24.0936 84.4061 24.0936ZM57.7216 8.8028C58.3929 8.8028 58.9392 9.34906 58.9392 10.0204C58.9392 10.6918 58.3929 11.2373 57.7216 11.2373C57.4316 11.2373 57.1654 11.1351 56.9556 10.965C56.9502 10.9604 56.9456 10.955 56.9395 10.9505C56.938 10.9497 56.9357 10.9482 56.9342 10.9467C56.6718 10.7231 56.5047 10.3912 56.5047 10.0204C56.5047 9.34906 57.0509 8.8028 57.7216 8.8028ZM48.3458 21.5858L48.3549 21.595C48.3595 21.5988 48.3641 21.6003 48.3687 21.6042C48.638 21.8277 48.8097 22.1642 48.8097 22.541C48.8097 23.2124 48.2634 23.7579 47.592 23.7579C46.9214 23.7579 46.3751 23.2124 46.3751 22.541C46.3751 21.8697 46.9214 21.3234 47.592 21.3234C47.8766 21.3234 48.1383 21.4226 48.3458 21.5858ZM10.6566 28.8307C9.98596 28.8307 9.4397 28.2845 9.4397 27.6131C9.4397 26.9417 9.9852 26.3962 10.6566 26.3962C11.328 26.3962 11.8742 26.9417 11.8742 27.6131C11.8742 28.2845 11.328 28.8307 10.6566 28.8307ZM20.4779 19.648C19.8065 19.648 19.2603 19.1017 19.2603 18.4303C19.2603 17.7597 19.8065 17.2134 20.4779 17.2134C21.1485 17.2134 21.6948 17.7597 21.6948 18.4303C21.6948 19.1017 21.1485 19.648 20.4779 19.648ZM31.1476 25.3784C30.4762 25.3784 29.93 24.8322 29.93 24.1608C29.93 23.4901 30.4762 22.9439 31.1476 22.9439C31.8182 22.9439 32.3645 23.4901 32.3645 24.1608C32.3645 24.8322 31.8182 25.3784 31.1476 25.3784ZM38.2529 13.9664C38.2529 13.295 38.7991 12.7495 39.4705 12.7495C40.1419 12.7495 40.6874 13.295 40.6874 13.9664C40.6874 14.6378 40.1419 15.184 39.4705 15.184C38.7991 15.184 38.2529 14.6378 38.2529 13.9664ZM71.3148 61.6356C71.3148 59.5596 72.7843 57.7377 74.8145 57.3029C75.1151 57.2372 75.4286 57.2037 75.7468 57.2037H80.2863C82.7315 57.2037 84.7205 59.1919 84.7205 61.6356V63.3232C84.7159 67.0151 81.7114 70.018 78.018 70.018C74.3216 70.018 71.3148 67.0113 71.3148 63.3156V61.6356ZM41.0864 79.9141C37.3587 79.9141 34.0903 81.9145 32.2943 84.8984C30.4991 81.9145 27.2292 79.9141 23.5007 79.9141H22.4081V77.4216C25.0662 75.6424 26.6844 72.6517 26.6844 69.4176V61.6356C26.6844 59.9731 26.129 58.4373 25.1952 57.2037H39.3942C38.896 57.8621 38.5054 58.606 38.2498 59.4101C38.0263 60.1128 37.905 60.8604 37.905 61.6364V63.3156V63.3232V69.4176C37.905 72.6517 39.5232 75.6432 42.1812 77.4223V79.9141H41.0864ZM14.6292 76.606C14.6292 76.5976 14.6284 76.5892 14.6284 76.5808C14.6277 76.5312 14.6254 76.4885 14.6216 76.4519C14.5735 75.9872 14.3057 75.5539 13.8647 75.3143C11.9528 74.276 10.6818 72.393 10.4094 70.2736C12.139 71.9261 14.4797 72.9446 17.0554 72.9446C19.6318 72.9446 21.9725 71.9254 23.7021 70.2721C23.4305 72.3923 22.1594 74.2752 20.2475 75.3143C19.7577 75.5806 19.4807 76.0849 19.4823 76.606V81.3774C19.4823 81.8169 19.1245 82.1754 18.685 82.1754H15.4272C14.987 82.1754 14.6292 81.8169 14.6292 81.3774V76.606ZM10.3529 61.6356C10.3529 59.1919 12.3412 57.2037 14.7849 57.2037H19.3243C20.1376 57.2037 20.8998 57.4249 21.5559 57.8079C22.8712 58.5777 23.7578 60.0052 23.7578 61.6364V63.3156C23.7578 67.0113 20.751 70.018 17.0554 70.018C13.3696 70.018 10.3697 67.0273 10.3537 63.3453V61.6356H10.3529ZM40.8316 61.6356C40.8316 61.1778 40.901 60.7353 41.0307 60.3195C41.0445 60.276 41.0597 60.2333 41.0742 60.1906C41.0834 60.1654 41.091 60.1395 41.1009 60.1143C41.5488 58.8928 42.52 57.9216 43.7415 57.473C43.7666 57.4638 43.7926 57.4562 43.8185 57.4471C43.8612 57.4326 43.9032 57.4173 43.9467 57.4036C44.3633 57.2739 44.805 57.2044 45.2635 57.2044H49.8045C50.1105 57.2044 50.408 57.235 50.6964 57.2945C50.7323 57.3021 50.7681 57.3105 50.8032 57.3189C50.8391 57.3273 50.8749 57.3349 50.91 57.3441C52.8212 57.8362 54.2365 59.5749 54.2365 61.6371V63.3156C54.2365 67.0113 51.2297 70.018 47.534 70.018C43.8406 70.018 40.8354 67.0158 40.8316 63.3232V61.6356ZM45.1071 76.606C45.1071 76.6022 45.1071 76.5984 45.1071 76.5953C45.1071 76.4915 45.101 76.4214 45.0888 76.3771C45.0209 75.9415 44.76 75.5409 44.3427 75.3143C42.4307 74.276 41.1597 72.393 40.8873 70.2728C42.6169 71.9261 44.9583 72.9446 47.534 72.9446C50.1097 72.9446 52.4504 71.9261 54.18 70.2728C53.9084 72.393 52.6373 74.276 50.7254 75.3143C50.2768 75.5577 50.0075 76.0017 49.9663 76.474C49.9625 76.5076 49.9609 76.5472 49.9602 76.5938V76.606V81.3774C49.9602 81.8176 49.6024 82.1754 49.1621 82.1754H45.9044C45.4649 82.1754 45.1071 81.8176 45.1071 81.3774V76.606ZM30.1451 96.4272H25.6323V93.1839C25.6323 92.3759 24.9777 91.7213 24.169 91.7213C23.3611 91.7213 22.7065 92.3759 22.7065 93.1839V96.4272H11.5096V93.1839C11.5096 92.3759 10.8549 91.7213 10.0462 91.7213C9.23828 91.7213 8.58368 92.3759 8.58368 93.1839V96.4272H3.96408C3.58566 96.4272 3.27744 96.1205 3.27744 95.7428V90.1718C3.27744 86.129 6.56647 82.8407 10.6085 82.8407H12.0032C12.5731 84.1682 13.8922 85.1013 15.4265 85.1013H18.6842C20.2185 85.1013 21.5384 84.169 22.1083 82.8407H23.5007C27.5427 82.8407 30.8318 86.129 30.8318 90.1718V95.7428C30.8318 96.1197 30.5235 96.4272 30.1451 96.4272ZM61.3097 95.742C61.3097 96.1197 61.003 96.4272 60.6253 96.4272H56.111V93.1839C56.111 92.3759 55.4564 91.7206 54.6477 91.7206C53.8397 91.7206 53.1851 92.3759 53.1851 93.1839V96.4272H41.9882V93.1839C41.9882 92.3759 41.3336 91.7206 40.5249 91.7206C39.7169 91.7206 39.0623 92.3759 39.0623 93.1839V96.4272H34.4427C34.0651 96.4272 33.7576 96.1197 33.7576 95.742V90.1711C33.7576 86.129 37.0451 82.8407 41.0864 82.8407H42.4811C43.051 84.1682 44.3709 85.1013 45.9052 85.1013H49.1629C50.6972 85.1013 52.0163 84.1682 52.5862 82.8407H53.9809C58.0222 82.8407 61.3097 86.129 61.3097 90.1711V95.742ZM90.0854 85.4652C91.1871 86.7805 91.7937 88.4514 91.7937 90.1711V95.742C91.7937 96.1197 91.487 96.4264 91.1093 96.4264H86.595V93.1839C86.595 92.3759 85.9404 91.7206 85.1317 91.7206C84.3237 91.7206 83.6691 92.3759 83.6691 93.1839V96.4264H72.4722V93.1839C72.4722 92.3759 71.8169 91.7206 71.0089 91.7206C70.201 91.7206 69.5456 92.3759 69.5456 93.1839V96.4264H64.926C64.5491 96.4264 64.2416 96.1197 64.2416 95.742V90.1711C64.2416 86.129 67.5291 82.84 71.5704 82.84H72.9666C73.0139 82.9498 73.0643 83.0589 73.1215 83.1642C73.7753 84.359 75.0281 85.1013 76.3884 85.1013H79.6461C81.1804 85.1013 82.5003 84.1682 83.0702 82.84H84.4649C86.6385 82.8407 88.6877 83.7967 90.0854 85.4652ZM81.877 74.8985C81.6878 75.032 81.4886 75.1572 81.2872 75.2708C80.8913 75.4936 80.6013 75.8804 80.493 76.3016C80.461 76.3382 80.4442 76.4145 80.4442 76.545V81.3774C80.4442 81.8169 80.0864 82.1754 79.6461 82.1754H76.3884C76.097 82.1754 75.8284 82.016 75.6895 81.7619C75.6743 81.7337 75.6606 81.7047 75.6491 81.6757C75.6689 81.5796 75.6796 81.4796 75.6796 81.3774C75.6796 81.2019 75.6476 81.0349 75.5911 80.8792V76.5984C75.5911 76.5961 75.5911 76.5945 75.5911 76.5923C75.5911 76.5747 75.5896 76.5572 75.5888 76.5388C75.5881 76.5045 75.5858 76.4709 75.5827 76.4427C75.5812 76.4275 75.5782 76.4114 75.5759 76.3962C75.5736 76.3847 75.5728 76.3702 75.5698 76.3603C75.4973 75.9232 75.2303 75.5241 74.8083 75.3029C72.8697 74.2851 71.6261 72.4403 71.3675 70.269C73.0978 71.9246 75.4401 72.9446 78.018 72.9446C80.5937 72.9446 82.9344 71.9261 84.664 70.2728C84.4252 72.1222 83.4212 73.8098 81.877 74.8985ZM97.4257 49.6918C97.4257 52.2041 95.381 54.2488 92.8687 54.2488H92.6688V37.191C92.6688 36.3831 92.0142 35.7277 91.2062 35.7277C90.3975 35.7277 89.7429 36.3831 89.7429 37.191V54.2488H76.2427V34.1171C76.2427 32.9987 75.3325 32.0885 74.214 32.0885H50.92C49.7198 32.0885 48.7433 31.1127 48.7433 29.9133V27.6344H79.4562C80.1062 29.7005 82.0471 31.2103 84.3146 31.2103C86.582 31.2103 88.5229 29.7005 89.173 27.6344H92.6878C95.3001 27.6344 97.4257 29.76 97.4257 32.373V49.6918Z" fill="#0066B2"/>
</svg>
