<svg xmlns="http://www.w3.org/2000/svg" width="113" height="48" viewBox="0 0 113 48" fill="none"><g clip-path="url(#clip0_19218_7779)"><path d="M51.6179 37.4738C51.4459 37.4222 51.3082 37.3906 51.205 37.3792C51.1075 37.362 50.9813 37.3534 50.8264 37.3534C50.5281 37.3534 50.2557 37.4021 50.009 37.4996C49.7681 37.5914 49.5588 37.7233 49.381 37.8954C49.2089 38.0675 49.0741 38.274 48.9766 38.5149C48.8848 38.7558 48.8389 39.0254 48.8389 39.3236C48.8389 39.7653 48.9536 40.118 49.1831 40.3819C49.4182 40.64 49.7309 40.7691 50.1209 40.7691C50.6543 40.7691 51.0472 40.5253 51.2996 40.0377C51.4029 39.8485 51.4717 39.6506 51.5061 39.4441C51.5176 39.358 51.5262 39.2749 51.5319 39.1946C51.5434 39.1085 51.552 39.0053 51.5577 38.8848C51.5692 38.7586 51.5778 38.6095 51.5835 38.4374C51.5893 38.2596 51.5979 38.0388 51.6093 37.7749L51.6179 37.4738ZM52.4009 35.8735C52.3894 36.0456 52.3779 36.2263 52.3665 36.4155C52.3607 36.5991 52.3521 36.8171 52.3407 37.0694C52.3292 37.3161 52.3149 37.6115 52.2976 37.9556C52.2862 38.294 52.2718 38.707 52.2546 39.1946C52.2489 39.4068 52.2432 39.5961 52.2374 39.7624C52.2317 39.9288 52.2259 40.0779 52.2202 40.2098C52.2202 40.3417 52.2202 40.4651 52.2202 40.5798C52.2202 40.6888 52.2202 40.7949 52.2202 40.8981V41.2078H52.117C52.0653 41.2078 52.0195 41.2078 51.9793 41.2078C51.9392 41.2021 51.9047 41.1992 51.8761 41.1992C51.8474 41.1992 51.8101 41.2021 51.7642 41.2078C51.7241 41.2078 51.6782 41.2078 51.6266 41.2078H51.5147L51.5663 40.2958C51.5376 40.3475 51.509 40.3962 51.4803 40.4421C51.4516 40.488 51.4229 40.531 51.3942 40.5712C51.2394 40.8121 51.0386 40.9956 50.792 41.1218C50.5453 41.2423 50.2643 41.3025 49.9488 41.3025C49.6735 41.3025 49.4211 41.2566 49.1917 41.1648C48.968 41.0731 48.7758 40.9411 48.6152 40.7691C48.4604 40.597 48.337 40.3934 48.2453 40.1582C48.1592 39.9173 48.1162 39.6506 48.1162 39.358C48.1162 38.9737 48.1764 38.6296 48.2969 38.3256C48.4231 38.0159 48.598 37.752 48.8217 37.534C49.0512 37.3161 49.3265 37.1497 49.6477 37.035C49.9689 36.9146 50.3274 36.8543 50.7232 36.8543C50.8035 36.8543 50.8752 36.8572 50.9382 36.8629C51.0071 36.8629 51.0759 36.8658 51.1447 36.8715C51.2136 36.8773 51.2853 36.8859 51.3598 36.8974C51.4401 36.9088 51.5348 36.9232 51.6438 36.9404C51.6552 36.7511 51.661 36.5934 51.661 36.4672C51.6667 36.3352 51.6696 36.1861 51.6696 36.0198V35.7014L51.661 35.4691L51.7814 35.4777H52.0567H52.3235L52.4267 35.4691L52.4009 35.8735Z" fill="white"></path><path d="M54.3289 36.949C54.3174 37.0522 54.3088 37.144 54.3031 37.2243C54.3031 37.2989 54.3002 37.362 54.2945 37.4136C54.2773 37.6373 54.2601 37.8983 54.2429 38.1965C54.2314 38.4891 54.2199 38.7931 54.2085 39.1085C54.197 39.4183 54.1855 39.7251 54.174 40.0291C54.1683 40.3274 54.1654 40.5912 54.1654 40.8207V41.2078H54.045C53.9934 41.2078 53.9446 41.2078 53.8987 41.2078C53.8586 41.2021 53.8184 41.1992 53.7783 41.1992C53.7496 41.1992 53.7123 41.2021 53.6664 41.2078C53.6205 41.2078 53.566 41.2078 53.5029 41.2078H53.3825C53.394 41.0989 53.3997 41.0042 53.3997 40.9239C53.4054 40.8436 53.4112 40.7748 53.4169 40.7174C53.4284 40.5224 53.4427 40.2815 53.4599 39.9947C53.4771 39.7079 53.4915 39.3724 53.5029 38.9881C53.5201 38.5923 53.5345 38.2482 53.546 37.9556C53.5574 37.6631 53.5632 37.4165 53.5632 37.2157V36.949H53.6836C53.741 36.949 53.7897 36.9519 53.8299 36.9576C53.8758 36.9576 53.9131 36.9576 53.9417 36.9576C53.9704 36.9576 54.0048 36.9576 54.045 36.9576C54.0909 36.9519 54.1454 36.949 54.2085 36.949H54.3289ZM54.3805 35.5466V35.7359L54.3719 35.9165L54.3633 36.037H54.2687C54.2228 36.0312 54.174 36.0284 54.1224 36.0284C54.0708 36.0284 54.022 36.0284 53.9761 36.0284C53.9303 36.0284 53.8815 36.0312 53.8299 36.037C53.7783 36.037 53.7266 36.037 53.675 36.037H53.5632L53.5718 35.8993C53.5775 35.8477 53.5804 35.7875 53.5804 35.7186C53.5804 35.6498 53.5804 35.5925 53.5804 35.5466V35.4433C53.6779 35.4433 53.7525 35.4462 53.8041 35.4519C53.8614 35.4519 53.9303 35.4519 54.0106 35.4519C54.0909 35.4519 54.154 35.4519 54.1998 35.4519C54.2457 35.4462 54.3088 35.4433 54.3891 35.4433L54.3805 35.5466Z" fill="white"></path><path d="M58.8022 37.4824C58.6015 37.4423 58.4409 37.4165 58.3204 37.405C58.2057 37.3935 58.0709 37.3878 57.916 37.3878C57.5891 37.3878 57.3052 37.4308 57.0643 37.5168C56.8291 37.5971 56.6226 37.7262 56.4448 37.904C56.2727 38.0761 56.1379 38.2912 56.0404 38.5493C55.9429 38.8017 55.8941 39.0684 55.8941 39.3494C55.8941 39.7968 56.0089 40.1467 56.2383 40.3991C56.4677 40.6457 56.7889 40.7691 57.2019 40.7691C57.7181 40.7691 58.1139 40.5597 58.3892 40.141C58.4581 40.032 58.5154 39.923 58.5613 39.814C58.6072 39.7051 58.6445 39.5703 58.6732 39.4097C58.7018 39.2433 58.7219 39.0426 58.7334 38.8074C58.7506 38.5665 58.7678 38.2596 58.785 37.8868L58.8022 37.4824ZM59.5508 37.0264C59.5393 37.1239 59.5307 37.21 59.5249 37.2845C59.5249 37.3591 59.5221 37.4222 59.5163 37.4738C59.4991 37.6516 59.4733 38.0531 59.4389 38.6783C59.4217 39.034 59.4074 39.3265 59.3959 39.5559C59.3901 39.7796 59.3844 39.9431 59.3787 40.0463L59.3443 41.4746C59.3328 42.0883 59.1578 42.5357 58.8194 42.8168C58.4868 43.1035 57.9734 43.2469 57.2794 43.2469C57.1704 43.2469 57.0614 43.2441 56.9524 43.2383C56.8492 43.2326 56.7431 43.224 56.6341 43.2125C56.5423 43.2068 56.4591 43.1982 56.3846 43.1867C56.31 43.181 56.2326 43.1695 56.1523 43.1523C56.0777 43.1408 55.9974 43.1265 55.9114 43.1093C55.8253 43.0921 55.7249 43.0691 55.6102 43.0405L55.6016 42.9544C55.5959 42.8971 55.593 42.8512 55.593 42.8168C55.593 42.7823 55.593 42.7594 55.593 42.7479C55.593 42.7365 55.5901 42.7135 55.5844 42.6791C55.5844 42.6447 55.5815 42.5959 55.5758 42.5328L55.5672 42.4382C55.6475 42.4611 55.7135 42.4812 55.7651 42.4984C55.8224 42.5156 55.8741 42.53 55.92 42.5414C56.3731 42.6619 56.7861 42.7221 57.1589 42.7221C57.4686 42.7221 57.7354 42.6734 57.9591 42.5758C58.1828 42.4783 58.3434 42.3407 58.4409 42.1629C58.481 42.0883 58.5154 42.008 58.5441 41.922C58.5728 41.8359 58.5957 41.7269 58.6129 41.595C58.6301 41.4631 58.6416 41.2968 58.6474 41.096C58.6588 40.8895 58.6703 40.6285 58.6818 40.3131C58.6187 40.4335 58.5613 40.531 58.5097 40.6056C58.3606 40.8235 58.1541 40.9928 57.8902 41.1132C57.6264 41.2279 57.3281 41.2853 56.9954 41.2853C56.4276 41.2853 55.9802 41.1189 55.6532 40.7863C55.332 40.4536 55.1714 39.9918 55.1714 39.4011C55.1714 39.011 55.2345 38.6583 55.3607 38.3428C55.4926 38.0273 55.6762 37.7606 55.9114 37.5426C56.1523 37.3189 56.4419 37.1497 56.7803 37.035C57.1188 36.9146 57.5002 36.8543 57.9246 36.8543C58.1713 36.8543 58.4409 36.8715 58.7334 36.906C58.7965 36.9117 58.8567 36.9203 58.9141 36.9318C58.9714 36.9375 59.0288 36.9461 59.0861 36.9576C59.1492 36.9633 59.2181 36.9719 59.2926 36.9834C59.3672 36.9949 59.4532 37.0092 59.5508 37.0264Z" fill="white"></path><path d="M61.4681 36.949C61.4567 37.0522 61.4481 37.144 61.4423 37.2243C61.4423 37.2989 61.4395 37.362 61.4337 37.4136C61.4165 37.6373 61.3993 37.8983 61.3821 38.1965C61.3706 38.4891 61.3592 38.7931 61.3477 39.1085C61.3362 39.4183 61.3247 39.7251 61.3133 40.0291C61.3075 40.3274 61.3047 40.5912 61.3047 40.8207V41.2078H61.1842C61.1326 41.2078 61.0838 41.2078 61.038 41.2078C60.9978 41.2021 60.9577 41.1992 60.9175 41.1992C60.8888 41.1992 60.8515 41.2021 60.8057 41.2078C60.7598 41.2078 60.7053 41.2078 60.6422 41.2078H60.5217C60.5332 41.0989 60.5389 41.0042 60.5389 40.9239C60.5447 40.8436 60.5504 40.7748 60.5561 40.7174C60.5676 40.5224 60.582 40.2815 60.5992 39.9947C60.6164 39.7079 60.6307 39.3724 60.6422 38.9881C60.6594 38.5923 60.6737 38.2482 60.6852 37.9556C60.6967 37.6631 60.7024 37.4165 60.7024 37.2157V36.949H60.8229C60.8802 36.949 60.929 36.9519 60.9691 36.9576C61.015 36.9576 61.0523 36.9576 61.081 36.9576C61.1097 36.9576 61.1441 36.9576 61.1842 36.9576C61.2301 36.9519 61.2846 36.949 61.3477 36.949H61.4681ZM61.5198 35.5466V35.7359L61.5112 35.9165L61.5026 36.037H61.4079C61.362 36.0312 61.3133 36.0284 61.2617 36.0284C61.21 36.0284 61.1613 36.0284 61.1154 36.0284C61.0695 36.0284 61.0207 36.0312 60.9691 36.037C60.9175 36.037 60.8659 36.037 60.8143 36.037H60.7024L60.711 35.8993C60.7167 35.8477 60.7196 35.7875 60.7196 35.7186C60.7196 35.6498 60.7196 35.5925 60.7196 35.5466V35.4433C60.8171 35.4433 60.8917 35.4462 60.9433 35.4519C61.0007 35.4519 61.0695 35.4519 61.1498 35.4519C61.2301 35.4519 61.2932 35.4519 61.3391 35.4519C61.385 35.4462 61.4481 35.4433 61.5284 35.4433L61.5198 35.5466Z" fill="white"></path><path d="M64.6767 36.9662C64.6652 37.0694 64.6566 37.1555 64.6509 37.2243C64.6509 37.2931 64.6509 37.3763 64.6509 37.4738H63.4808L63.4722 37.7405L63.4292 38.5837L63.4034 38.9709C63.3919 39.1774 63.3833 39.3638 63.3775 39.5301C63.3718 39.6965 63.3689 39.8456 63.3689 39.9775V40.0205C63.3689 40.2844 63.412 40.4765 63.498 40.597C63.5898 40.7117 63.736 40.7691 63.9368 40.7691C64.0286 40.7691 64.1146 40.7605 64.1949 40.7432C64.2809 40.726 64.41 40.6945 64.5821 40.6486C64.5649 40.7346 64.5505 40.8092 64.5391 40.8723C64.5333 40.9297 64.5218 41.0071 64.5046 41.1046L64.4874 41.1992C64.3957 41.2222 64.3154 41.2394 64.2465 41.2509C64.1834 41.2623 64.1203 41.2709 64.0572 41.2767C63.9999 41.2881 63.9425 41.2939 63.8852 41.2939C63.8278 41.2996 63.7647 41.3025 63.6959 41.3025C63.3288 41.3025 63.0592 41.2251 62.8871 41.0702C62.7208 40.9153 62.6376 40.6715 62.6376 40.3389C62.6376 40.293 62.6376 40.2385 62.6376 40.1754C62.6434 40.1123 62.6491 40.0377 62.6548 39.9517L62.7064 39.0139L62.7323 38.5837L62.7753 37.7663L62.7839 37.4738H62.2246C62.2361 37.3935 62.239 37.3304 62.2332 37.2845C62.2332 37.2329 62.239 37.1583 62.2504 37.0608L62.259 36.9662H62.8269C62.8384 36.8515 62.8441 36.7626 62.8441 36.6995C62.8498 36.6306 62.8556 36.5303 62.8613 36.3983L62.8699 36.166L62.9818 36.1402C63.0449 36.123 63.0965 36.1116 63.1366 36.1058C63.1825 36.0943 63.2255 36.0857 63.2657 36.08C63.3058 36.0743 63.346 36.0685 63.3861 36.0628C63.432 36.0513 63.4837 36.0399 63.541 36.0284L63.5324 36.2091L63.5152 36.4844L63.5066 36.7597V36.9662H64.6767Z" fill="white"></path><path d="M68.7687 37.9384C68.7687 38.1793 68.7515 38.578 68.7171 39.1343C68.7056 39.2548 68.697 39.3953 68.6913 39.5559C68.6855 39.7108 68.6769 39.8829 68.6655 40.0722C68.6597 40.2041 68.654 40.3159 68.6483 40.4077C68.6483 40.4995 68.6454 40.5855 68.6397 40.6658C68.6397 40.7461 68.6397 40.8293 68.6397 40.9153C68.6397 40.9956 68.6397 41.0931 68.6397 41.2078H68.5364C68.4905 41.2021 68.4446 41.1992 68.3987 41.1992C68.3586 41.1992 68.3156 41.1992 68.2697 41.1992C68.2295 41.1992 68.1865 41.2021 68.1406 41.2078C68.0947 41.2078 68.046 41.2078 67.9944 41.2078H67.8911C67.9026 41.0587 67.9141 40.9297 67.9255 40.8207C67.937 40.7117 67.9456 40.6085 67.9513 40.5109C67.9571 40.4134 67.9628 40.3188 67.9686 40.227C67.9743 40.1295 67.98 40.0205 67.9858 39.9001L68.0202 39.0311L68.0374 38.7042C67.9686 38.7558 67.9055 38.8017 67.8481 38.8418C67.7965 38.8762 67.742 38.9078 67.6846 38.9365C67.633 38.9594 67.5728 38.9823 67.504 39.0053C67.4351 39.0282 67.352 39.054 67.2544 39.0827L66.8243 39.2032C66.3826 39.3294 66.0671 39.467 65.8778 39.6162C65.6943 39.7595 65.6025 39.9431 65.6025 40.1668C65.6025 40.3905 65.6857 40.5626 65.852 40.683C66.0241 40.8035 66.2679 40.8637 66.5833 40.8637C66.6579 40.8637 66.7267 40.8608 66.7898 40.8551C66.8529 40.8494 66.916 40.8408 66.9791 40.8293C67.048 40.8178 67.1197 40.8035 67.1942 40.7863C67.2688 40.7633 67.3548 40.7375 67.4523 40.7088C67.4294 40.7777 67.4093 40.8436 67.3921 40.9067C67.3749 40.9641 67.3548 41.0415 67.3319 41.139L67.3147 41.2165C67.2172 41.2337 67.1311 41.248 67.0566 41.2595C66.982 41.2709 66.9103 41.2795 66.8415 41.2853C66.7784 41.291 66.7124 41.2939 66.6436 41.2939C66.5747 41.2996 66.4973 41.3025 66.4113 41.3025C65.4132 41.3025 64.9142 40.9211 64.9142 40.1582C64.9142 39.8485 65.0289 39.5875 65.2584 39.3752C65.3387 39.3007 65.4276 39.2347 65.5251 39.1774C65.6226 39.1143 65.7402 39.0569 65.8778 39.0053C66.0155 38.9479 66.179 38.8934 66.3683 38.8418C66.5575 38.7845 66.7898 38.7242 67.0652 38.6611C67.415 38.5808 67.6646 38.4805 67.8137 38.36C67.9686 38.2395 68.046 38.0875 68.046 37.904C68.046 37.7147 67.96 37.5685 67.7879 37.4652C67.6158 37.3562 67.3749 37.3017 67.0652 37.3017C66.9734 37.3017 66.8816 37.3046 66.7898 37.3103C66.6981 37.3161 66.6034 37.3247 66.5059 37.3362C66.4084 37.3534 66.3224 37.3706 66.2478 37.3878C66.1732 37.3992 66.0958 37.4165 66.0155 37.4394C65.9409 37.4623 65.8606 37.4882 65.7746 37.5168C65.6886 37.5455 65.5882 37.5828 65.4735 37.6287C65.4792 37.6057 65.4821 37.5885 65.4821 37.5771C65.4821 37.5599 65.4849 37.5455 65.4907 37.534C65.4964 37.5054 65.4993 37.4767 65.4993 37.448C65.505 37.4136 65.5107 37.382 65.5165 37.3534C65.528 37.3419 65.5366 37.2788 65.5423 37.1641L65.5509 37.078C65.6312 37.0608 65.6972 37.0465 65.7488 37.035C65.8061 37.0235 65.8549 37.0121 65.895 37.0006C66.3367 36.9031 66.7526 36.8543 67.1426 36.8543C67.699 36.8543 68.1091 36.9432 68.3729 37.1211C68.6368 37.2989 68.7687 37.5713 68.7687 37.9384Z" fill="white"></path><path d="M70.7869 35.8993C70.7754 36.1173 70.7639 36.3238 70.7524 36.5188C70.741 36.7081 70.7295 36.9232 70.718 37.1641C70.7066 37.3992 70.6922 37.6774 70.675 37.9986C70.6635 38.3141 70.6492 38.7042 70.632 39.1688C70.6205 39.5358 70.609 39.8513 70.5976 40.1152C70.5918 40.379 70.5861 40.5941 70.5804 40.7605L70.5718 41.2078H70.4685C70.4169 41.2078 70.3681 41.2078 70.3223 41.2078C70.2821 41.2021 70.2448 41.1992 70.2104 41.1992C70.1932 41.1992 70.1617 41.2021 70.1158 41.2078C70.0699 41.2078 70.0068 41.2078 69.9265 41.2078H69.806L69.8318 40.7432C69.8433 40.5482 69.8548 40.3217 69.8663 40.0635C69.8835 39.7997 69.9007 39.4986 69.9179 39.1602C69.9351 38.7931 69.9494 38.4575 69.9609 38.1535C69.9781 37.8495 69.9896 37.5685 69.9953 37.3103C70.0068 37.0522 70.0154 36.8085 70.0211 36.579C70.0269 36.3496 70.0326 36.1202 70.0383 35.8907L70.0469 35.4691L70.176 35.4777H70.4341H70.7008L70.8127 35.4691L70.7869 35.8993Z" fill="white"></path><path d="M77.414 38.9709C77.414 38.4661 77.2879 38.0761 77.0355 37.8008C76.7888 37.5197 76.4418 37.3792 75.9944 37.3792C75.9141 37.3792 75.8338 37.3849 75.7535 37.3964C75.6732 37.4021 75.59 37.4107 75.504 37.4222C75.3721 37.4451 75.2574 37.4681 75.1599 37.491C75.0681 37.514 74.939 37.5541 74.7727 37.6115C74.7555 37.7262 74.7469 37.8094 74.7469 37.861C74.7411 37.9241 74.7354 38.0072 74.7297 38.1105C74.7239 38.2137 74.7182 38.3428 74.7125 38.4977C74.6952 38.8418 74.6866 39.0856 74.6866 39.229C74.6866 39.5043 74.7153 39.7309 74.7727 39.9087C74.8358 40.0865 74.9362 40.2471 75.0738 40.3905C75.1943 40.5167 75.3377 40.6142 75.504 40.683C75.6703 40.7518 75.8424 40.7863 76.0202 40.7863C76.2267 40.7863 76.416 40.7432 76.5881 40.6572C76.7602 40.5654 76.9064 40.4421 77.0269 40.2872C77.1473 40.1266 77.242 39.9345 77.3108 39.7108C77.3796 39.4871 77.414 39.2405 77.414 38.9709ZM78.1368 38.9881C78.1368 39.3322 78.088 39.6477 77.9905 39.9345C77.8987 40.2155 77.7668 40.4593 77.5947 40.6658C77.4226 40.8666 77.2162 41.0243 76.9753 41.139C76.7401 41.248 76.4791 41.3025 76.1923 41.3025C75.9629 41.3025 75.7449 41.2681 75.5384 41.1992C75.4352 41.1648 75.3434 41.1275 75.2631 41.0874C75.1885 41.0472 75.1168 40.9985 75.048 40.9411C74.9792 40.8838 74.9103 40.8149 74.8415 40.7346C74.7784 40.6543 74.7096 40.5568 74.635 40.4421L74.6264 40.8379L74.6006 41.6897L74.5662 42.6877V43.1007H74.1962H73.9295H73.8091C73.8263 42.8827 73.8406 42.6934 73.8521 42.5328C73.8636 42.3722 73.8722 42.2116 73.8779 42.051C73.8894 41.8961 73.898 41.7269 73.9037 41.5434C73.9152 41.3598 73.9266 41.1362 73.9381 40.8723C73.9553 40.5396 73.9668 40.2155 73.9725 39.9001C73.984 39.5789 73.9926 39.2749 73.9983 38.9881C74.0098 38.6955 74.0184 38.4288 74.0242 38.1879C74.0299 37.9413 74.0356 37.7262 74.0414 37.5426L74.05 37.1125C74.136 37.0895 74.2106 37.0723 74.2737 37.0608C74.3425 37.0494 74.3999 37.0379 74.4457 37.0264C74.7497 36.9633 75.0165 36.9203 75.2459 36.8974C75.4811 36.8687 75.7191 36.8543 75.96 36.8543C76.3615 36.8543 76.6971 36.906 76.9666 37.0092C77.242 37.1067 77.4714 37.2616 77.6549 37.4738C77.8041 37.6459 77.9217 37.8667 78.0077 38.1363C78.0937 38.4002 78.1368 38.6841 78.1368 38.9881Z" fill="white"></path><path d="M79.9623 35.8993C79.9509 36.1173 79.9394 36.3238 79.9279 36.5188C79.9164 36.7081 79.905 36.9232 79.8935 37.1641C79.882 37.3992 79.8677 37.6774 79.8505 37.9986C79.839 38.3141 79.8247 38.7042 79.8075 39.1688C79.796 39.5358 79.7845 39.8513 79.773 40.1152C79.7673 40.379 79.7616 40.5941 79.7558 40.7605L79.7472 41.2078H79.644C79.5924 41.2078 79.5436 41.2078 79.4977 41.2078C79.4576 41.2021 79.4203 41.1992 79.3859 41.1992C79.3687 41.1992 79.3371 41.2021 79.2912 41.2078C79.2453 41.2078 79.1823 41.2078 79.102 41.2078H78.9815L79.0073 40.7432C79.0188 40.5482 79.0303 40.3217 79.0417 40.0635C79.0589 39.7997 79.0761 39.4986 79.0933 39.1602C79.1106 38.7931 79.1249 38.4575 79.1364 38.1535C79.1536 37.8495 79.165 37.5685 79.1708 37.3103C79.1823 37.0522 79.1909 36.8085 79.1966 36.579C79.2023 36.3496 79.2081 36.1202 79.2138 35.8907L79.2224 35.4691L79.3515 35.4777H79.6096H79.8763L79.9881 35.4691L79.9623 35.8993Z" fill="white"></path><path d="M84.4617 37.9384C84.4617 38.1793 84.4445 38.578 84.41 39.1343C84.3986 39.2548 84.39 39.3953 84.3842 39.5559C84.3785 39.7108 84.3699 39.8829 84.3584 40.0722C84.3527 40.2041 84.3469 40.3159 84.3412 40.4077C84.3412 40.4995 84.3383 40.5855 84.3326 40.6658C84.3326 40.7461 84.3326 40.8293 84.3326 40.9153C84.3326 40.9956 84.3326 41.0931 84.3326 41.2078H84.2294C84.1835 41.2021 84.1376 41.1992 84.0917 41.1992C84.0515 41.1992 84.0085 41.1992 83.9626 41.1992C83.9225 41.1992 83.8795 41.2021 83.8336 41.2078C83.7877 41.2078 83.7389 41.2078 83.6873 41.2078H83.5841C83.5956 41.0587 83.607 40.9297 83.6185 40.8207C83.63 40.7117 83.6386 40.6085 83.6443 40.5109C83.65 40.4134 83.6558 40.3188 83.6615 40.227C83.6672 40.1295 83.673 40.0205 83.6787 39.9001L83.7131 39.0311L83.7303 38.7042C83.6615 38.7558 83.5984 38.8017 83.5411 38.8418C83.4894 38.8762 83.4349 38.9078 83.3776 38.9365C83.326 38.9594 83.2657 38.9823 83.1969 39.0053C83.1281 39.0282 83.0449 39.054 82.9474 39.0827L82.5172 39.2032C82.0756 39.3294 81.7601 39.467 81.5708 39.6162C81.3872 39.7595 81.2955 39.9431 81.2955 40.1668C81.2955 40.3905 81.3786 40.5626 81.545 40.683C81.7171 40.8035 81.9608 40.8637 82.2763 40.8637C82.3509 40.8637 82.4197 40.8608 82.4828 40.8551C82.5459 40.8494 82.609 40.8408 82.6721 40.8293C82.7409 40.8178 82.8126 40.8035 82.8872 40.7863C82.9617 40.7633 83.0478 40.7375 83.1453 40.7088C83.1223 40.7777 83.1023 40.8436 83.0851 40.9067C83.0679 40.9641 83.0478 41.0415 83.0248 41.139L83.0076 41.2165C82.9101 41.2337 82.8241 41.248 82.7495 41.2595C82.6749 41.2709 82.6032 41.2795 82.5344 41.2853C82.4713 41.291 82.4054 41.2939 82.3365 41.2939C82.2677 41.2996 82.1903 41.3025 82.1042 41.3025C81.1062 41.3025 80.6072 40.9211 80.6072 40.1582C80.6072 39.8485 80.7219 39.5875 80.9513 39.3752C81.0316 39.3007 81.1205 39.2347 81.218 39.1774C81.3156 39.1143 81.4331 39.0569 81.5708 39.0053C81.7085 38.9479 81.8719 38.8934 82.0612 38.8418C82.2505 38.7845 82.4828 38.7242 82.7581 38.6611C83.108 38.5808 83.3575 38.4805 83.5066 38.36C83.6615 38.2395 83.7389 38.0875 83.7389 37.904C83.7389 37.7147 83.6529 37.5685 83.4808 37.4652C83.3088 37.3562 83.0679 37.3017 82.7581 37.3017C82.6663 37.3017 82.5746 37.3046 82.4828 37.3103C82.391 37.3161 82.2964 37.3247 82.1989 37.3362C82.1014 37.3534 82.0153 37.3706 81.9408 37.3878C81.8662 37.3992 81.7888 37.4165 81.7085 37.4394C81.6339 37.4623 81.5536 37.4882 81.4675 37.5168C81.3815 37.5455 81.2811 37.5828 81.1664 37.6287C81.1722 37.6057 81.175 37.5885 81.175 37.5771C81.175 37.5599 81.1779 37.5455 81.1836 37.534C81.1894 37.5054 81.1922 37.4767 81.1922 37.448C81.198 37.4136 81.2037 37.382 81.2094 37.3534C81.2209 37.3419 81.2295 37.2788 81.2352 37.1641L81.2439 37.078C81.3242 37.0608 81.3901 37.0465 81.4417 37.035C81.4991 37.0235 81.5479 37.0121 81.588 37.0006C82.0297 36.9031 82.4455 36.8543 82.8356 36.8543C83.3919 36.8543 83.802 36.9432 84.0659 37.1211C84.3297 37.2989 84.4617 37.5713 84.4617 37.9384Z" fill="white"></path><path d="M87.7274 36.9662C87.7159 37.0694 87.7073 37.1555 87.7016 37.2243C87.7016 37.2931 87.7016 37.3763 87.7016 37.4738H86.5314L86.5228 37.7405L86.4798 38.5837L86.454 38.9709C86.4425 39.1774 86.4339 39.3638 86.4282 39.5301C86.4225 39.6965 86.4196 39.8456 86.4196 39.9775V40.0205C86.4196 40.2844 86.4626 40.4765 86.5486 40.597C86.6404 40.7117 86.7867 40.7691 86.9874 40.7691C87.0792 40.7691 87.1652 40.7605 87.2456 40.7432C87.3316 40.726 87.4606 40.6945 87.6327 40.6486C87.6155 40.7346 87.6012 40.8092 87.5897 40.8723C87.584 40.9297 87.5725 41.0071 87.5553 41.1046L87.5381 41.1992C87.4463 41.2222 87.366 41.2394 87.2972 41.2509C87.2341 41.2623 87.171 41.2709 87.1079 41.2767C87.0505 41.2881 86.9932 41.2939 86.9358 41.2939C86.8785 41.2996 86.8154 41.3025 86.7465 41.3025C86.3794 41.3025 86.1099 41.2251 85.9378 41.0702C85.7714 40.9153 85.6883 40.6715 85.6883 40.3389C85.6883 40.293 85.6883 40.2385 85.6883 40.1754C85.694 40.1123 85.6997 40.0377 85.7055 39.9517L85.7571 39.0139L85.7829 38.5837L85.8259 37.7663L85.8345 37.4738H85.2753C85.2868 37.3935 85.2896 37.3304 85.2839 37.2845C85.2839 37.2329 85.2896 37.1583 85.3011 37.0608L85.3097 36.9662H85.8776C85.889 36.8515 85.8948 36.7626 85.8948 36.6995C85.9005 36.6306 85.9062 36.5303 85.912 36.3983L85.9206 36.166L86.0324 36.1402C86.0955 36.123 86.1471 36.1116 86.1873 36.1058C86.2332 36.0943 86.2762 36.0857 86.3163 36.08C86.3565 36.0743 86.3966 36.0685 86.4368 36.0628C86.4827 36.0513 86.5343 36.0399 86.5917 36.0284L86.5831 36.2091L86.5659 36.4844L86.5573 36.7597V36.9662H87.7274Z" fill="white"></path><path d="M90.7095 35.9509C90.5603 35.8993 90.4313 35.8649 90.3223 35.8477C90.2133 35.8248 90.1043 35.8133 89.9954 35.8133C89.7487 35.8133 89.5623 35.8764 89.4361 36.0026C89.3673 36.0771 89.3185 36.1689 89.2899 36.2779C89.2612 36.3811 89.2468 36.5475 89.2468 36.7769V36.9576H90.4169C90.4055 37.0264 90.3969 37.0981 90.3911 37.1727C90.3854 37.2415 90.3825 37.3189 90.3825 37.405V37.4738H89.2468L89.2382 37.7922L89.1866 39.1946L89.1522 40.7432L89.135 41.2078H89.0231C88.9715 41.2078 88.9228 41.2078 88.8769 41.2078C88.8367 41.2021 88.7966 41.1992 88.7564 41.1992C88.722 41.1992 88.6819 41.2021 88.636 41.2078C88.5958 41.2078 88.5471 41.2078 88.4897 41.2078H88.3778C88.3893 41.0989 88.3951 41.0071 88.3951 40.9325C88.4008 40.8522 88.4065 40.7834 88.4123 40.726C88.4295 40.4335 88.4467 40.0463 88.4639 39.5645C88.4868 39.0827 88.5098 38.4747 88.5327 37.7405L88.5413 37.4738H88.0165C88.028 37.4107 88.0337 37.3333 88.0337 37.2415C88.0394 37.1497 88.0452 37.0551 88.0509 36.9576H88.5929V36.7855C88.5929 36.6651 88.5929 36.5647 88.5929 36.4844C88.5987 36.3983 88.6044 36.3266 88.6102 36.2693C88.6159 36.2062 88.6245 36.1517 88.636 36.1058C88.6474 36.0542 88.6589 36.0054 88.6704 35.9596C88.7335 35.7473 88.8625 35.5867 89.0575 35.4777C89.2583 35.363 89.5193 35.3057 89.8405 35.3057C89.9724 35.3057 90.0957 35.3143 90.2105 35.3315C90.3309 35.3429 90.4858 35.3716 90.6751 35.4175C90.6751 35.515 90.6751 35.5953 90.6751 35.6584C90.6808 35.7158 90.6894 35.7846 90.7009 35.8649L90.7095 35.9509Z" fill="white"></path><path d="M94.3251 38.9537C94.3251 38.4432 94.2047 38.056 93.9637 37.7922C93.7286 37.5226 93.3816 37.3878 92.9227 37.3878C92.4523 37.3878 92.0853 37.5484 91.8214 37.8696C91.5576 38.1851 91.4256 38.6296 91.4256 39.2032C91.4256 39.6907 91.549 40.075 91.7956 40.3561C92.048 40.6371 92.3921 40.7777 92.828 40.7777C93.2984 40.7777 93.6655 40.6171 93.9293 40.2958C94.1932 39.9746 94.3251 39.5272 94.3251 38.9537ZM95.0564 38.9623C95.0564 39.3351 94.9876 39.6878 94.8499 40.0205C94.5058 40.8752 93.8175 41.3025 92.785 41.3025C92.4696 41.3025 92.1828 41.2537 91.9246 41.1562C91.6665 41.053 91.4457 40.9096 91.2622 40.726C91.0786 40.5368 90.9352 40.3131 90.832 40.0549C90.7345 39.7968 90.6857 39.5072 90.6857 39.186C90.6857 38.8246 90.7373 38.5005 90.8406 38.2137C90.9496 37.9269 91.1016 37.6832 91.2966 37.4824C91.4916 37.2817 91.7296 37.1268 92.0107 37.0178C92.2917 36.9088 92.6072 36.8543 92.9571 36.8543C93.6167 36.8543 94.1301 37.0408 94.4972 37.4136C94.87 37.7864 95.0564 38.3026 95.0564 38.9623Z" fill="white"></path><path d="M98.3704 37.5168C98.2557 37.4882 98.1697 37.4709 98.1123 37.4652C98.055 37.4537 97.9861 37.448 97.9058 37.448C97.6305 37.448 97.3925 37.5283 97.1917 37.6889C96.9967 37.8495 96.8591 38.0703 96.7788 38.3514C96.7386 38.4833 96.7099 38.6468 96.6927 38.8418C96.6812 38.9623 96.6726 39.0999 96.6669 39.2548C96.6612 39.4097 96.6554 39.576 96.6497 39.7538C96.644 39.9259 96.6382 40.1066 96.6325 40.2958C96.6325 40.4794 96.6325 40.6601 96.6325 40.8379V41.2078H96.5292C96.4834 41.2021 96.4375 41.1992 96.3916 41.1992C96.3514 41.1992 96.3113 41.1992 96.2711 41.1992C96.2252 41.1992 96.1794 41.2021 96.1335 41.2078C96.0933 41.2078 96.0474 41.2078 95.9958 41.2078H95.884L95.9098 40.7949C95.927 40.4851 95.9442 40.1725 95.9614 39.8571C95.9786 39.5416 95.9901 39.2405 95.9958 38.9537C96.0073 38.6611 96.0159 38.3915 96.0216 38.1449C96.0274 37.8925 96.0302 37.6717 96.0302 37.4824V36.949C96.1163 36.9547 96.1822 36.9576 96.2281 36.9576C96.274 36.9576 96.3256 36.9576 96.383 36.9576C96.4461 36.9576 96.4977 36.9576 96.5378 36.9576C96.5837 36.9576 96.6497 36.9547 96.7357 36.949L96.7099 37.6459C96.7386 37.5943 96.7673 37.5455 96.796 37.4996C96.8246 37.4537 96.8533 37.4107 96.882 37.3706C97.1286 37.0264 97.5043 36.8543 98.0091 36.8543C98.0722 36.8543 98.1238 36.8572 98.164 36.8629C98.2041 36.8687 98.2643 36.8802 98.3446 36.8974C98.3446 37.0121 98.3446 37.1039 98.3446 37.1727C98.3446 37.2358 98.3504 37.3189 98.3618 37.4222L98.3704 37.5168Z" fill="white"></path><path d="M105.322 37.9986C105.322 38.0732 105.319 38.165 105.313 38.274C105.307 38.3829 105.299 38.5091 105.287 38.6525C105.276 38.7672 105.264 38.9164 105.253 39.0999C105.247 39.2777 105.238 39.4871 105.227 39.728C105.216 39.923 105.207 40.0836 105.201 40.2098C105.201 40.336 105.198 40.4507 105.193 40.554C105.193 40.6572 105.19 40.7576 105.184 40.8551C105.184 40.9526 105.184 41.0702 105.184 41.2078H105.081C105.035 41.2021 104.992 41.1992 104.952 41.1992C104.917 41.1992 104.88 41.1992 104.84 41.1992C104.794 41.1992 104.748 41.2021 104.702 41.2078C104.656 41.2078 104.608 41.2078 104.556 41.2078H104.435C104.447 41.0759 104.456 40.9641 104.461 40.8723C104.467 40.7748 104.473 40.6773 104.478 40.5798C104.484 40.4823 104.49 40.3762 104.496 40.2614C104.501 40.141 104.51 39.989 104.522 39.8054L104.573 38.8332C104.579 38.7357 104.582 38.6411 104.582 38.5493C104.587 38.4575 104.59 38.3715 104.59 38.2912C104.59 37.7176 104.304 37.4308 103.73 37.4308C103.529 37.4308 103.346 37.4767 103.179 37.5685C103.019 37.6545 102.884 37.7807 102.775 37.947C102.723 38.0331 102.677 38.1248 102.637 38.2223C102.603 38.3199 102.574 38.4432 102.551 38.5923C102.528 38.7357 102.508 38.9078 102.491 39.1085C102.48 39.3093 102.471 39.5559 102.465 39.8485L102.439 40.7863L102.422 41.2078H102.319C102.273 41.2021 102.227 41.1992 102.181 41.1992C102.141 41.1992 102.101 41.1992 102.061 41.1992C102.026 41.1992 101.986 41.2021 101.94 41.2078C101.9 41.2078 101.851 41.2078 101.794 41.2078H101.682C101.688 41.0817 101.694 40.9784 101.699 40.8981C101.711 40.8121 101.717 40.726 101.717 40.64C101.722 40.5482 101.728 40.445 101.734 40.3303C101.74 40.2098 101.748 40.0521 101.76 39.8571C101.777 39.5703 101.788 39.3437 101.794 39.1774C101.8 39.011 101.806 38.8791 101.811 38.7816C101.817 38.6783 101.82 38.598 101.82 38.5407C101.82 38.4776 101.82 38.4059 101.82 38.3256C101.82 38.0331 101.748 37.8122 101.605 37.6631C101.461 37.5082 101.252 37.4308 100.977 37.4308C100.719 37.4308 100.489 37.5082 100.288 37.6631C100.088 37.818 99.9472 38.0302 99.8669 38.2998C99.8382 38.3801 99.8152 38.4661 99.798 38.5579C99.7808 38.6497 99.7665 38.7558 99.755 38.8762C99.7435 38.9967 99.7321 39.1372 99.7206 39.2978C99.7091 39.4527 99.7005 39.6362 99.6948 39.8485C99.6833 40.0148 99.6747 40.1553 99.669 40.27C99.669 40.379 99.6661 40.4823 99.6604 40.5798C99.6604 40.6715 99.6604 40.7662 99.6604 40.8637C99.6604 40.9555 99.6604 41.0702 99.6604 41.2078H99.5399C99.4883 41.2078 99.4395 41.2078 99.3937 41.2078C99.3535 41.2021 99.3191 41.1992 99.2904 41.1992C99.256 41.1992 99.2158 41.2021 99.17 41.2078C99.1298 41.2078 99.0811 41.2078 99.0237 41.2078H98.9032C98.9204 41.0186 98.9348 40.858 98.9463 40.726C98.9577 40.5884 98.9663 40.445 98.9721 40.2958C98.9835 40.1467 98.9921 39.9689 98.9979 39.7624C99.0094 39.5559 99.0208 39.2835 99.0323 38.9451C99.0438 38.6468 99.0524 38.4088 99.0581 38.2309C99.0696 38.0474 99.0753 37.8897 99.0753 37.7577C99.0811 37.6258 99.0839 37.5025 99.0839 37.3878C99.0897 37.2673 99.0925 37.1211 99.0925 36.949C99.1728 36.9547 99.2359 36.9576 99.2818 36.9576C99.3277 36.9576 99.3851 36.9576 99.4539 36.9576C99.517 36.9576 99.5715 36.9576 99.6174 36.9576C99.6632 36.9576 99.7235 36.9547 99.798 36.949L99.7636 37.7319C99.8382 37.6057 99.907 37.5025 99.9701 37.4222C100.102 37.2444 100.28 37.1067 100.504 37.0092C100.733 36.906 100.977 36.8543 101.235 36.8543C101.51 36.8543 101.76 36.9146 101.983 37.035C102.127 37.1096 102.233 37.1956 102.302 37.2931C102.376 37.3849 102.442 37.5283 102.5 37.7233C102.528 37.6774 102.554 37.6344 102.577 37.5943C102.6 37.5541 102.623 37.5197 102.646 37.491C102.784 37.2903 102.967 37.1354 103.197 37.0264C103.432 36.9117 103.696 36.8543 103.988 36.8543C104.401 36.8543 104.725 36.9547 104.96 37.1555C105.201 37.3562 105.322 37.6373 105.322 37.9986Z" fill="white"></path><path d="M108.873 37.5685C108.689 37.4996 108.528 37.4509 108.391 37.4222C108.259 37.3935 108.115 37.3792 107.961 37.3792C107.68 37.3792 107.462 37.4279 107.307 37.5254C107.152 37.6172 107.074 37.752 107.074 37.9298C107.074 38.1076 107.175 38.2883 107.376 38.4719C107.398 38.4948 107.421 38.5177 107.444 38.5407C107.467 38.5579 107.496 38.5808 107.53 38.6095C107.565 38.6382 107.608 38.6755 107.659 38.7214C107.717 38.7615 107.788 38.816 107.875 38.8848C108.104 39.0684 108.267 39.206 108.365 39.2978C108.68 39.5903 108.838 39.9001 108.838 40.227C108.838 40.5482 108.703 40.8092 108.434 41.01C108.164 41.205 107.809 41.3025 107.367 41.3025C107.304 41.3025 107.226 41.2996 107.135 41.2939C107.043 41.2881 106.951 41.2795 106.859 41.2681C106.779 41.2623 106.71 41.2537 106.653 41.2423C106.595 41.2365 106.538 41.2279 106.481 41.2165C106.429 41.205 106.375 41.1935 106.317 41.182C106.26 41.1648 106.191 41.1476 106.111 41.1304L106.102 41.0272L106.085 40.8035L106.059 40.5884L106.051 40.5023C106.217 40.5712 106.346 40.6199 106.438 40.6486C106.535 40.6773 106.644 40.706 106.765 40.7346C106.925 40.7691 107.086 40.7863 107.246 40.7863C107.522 40.7863 107.737 40.7318 107.892 40.6228C108.047 40.5138 108.124 40.3618 108.124 40.1668C108.124 40.0062 108.067 39.8685 107.952 39.7538C107.906 39.7079 107.854 39.6592 107.797 39.6075C107.74 39.5559 107.662 39.49 107.565 39.4097L107.281 39.1774C107.149 39.0741 107.043 38.9881 106.963 38.9192C106.882 38.8447 106.816 38.7816 106.765 38.73C106.489 38.4546 106.352 38.1707 106.352 37.8782C106.352 37.5627 106.481 37.3132 106.739 37.1297C106.997 36.9461 107.35 36.8543 107.797 36.8543C107.952 36.8543 108.11 36.8629 108.27 36.8802C108.431 36.8974 108.62 36.926 108.838 36.9662V37.0522C108.838 37.1383 108.838 37.2157 108.838 37.2845C108.844 37.3476 108.852 37.4136 108.864 37.4824L108.873 37.5685Z" fill="white"></path><path fill-rule="evenodd" clip-rule="evenodd" d="M18.8403 33.0087C18.8339 32.1265 18.8009 31.3599 18.7397 30.7101C19.7079 31.1738 20.5814 31.5012 21.3594 31.6918C22.1378 31.8825 22.889 31.978 23.614 31.978C24.3109 31.978 24.963 31.8594 25.5698 31.6225C26.1779 31.3857 26.6403 31.0511 26.9573 30.6191C27.2738 30.1875 27.4422 29.693 27.4613 29.1347C27.473 28.8105 27.4323 28.5057 27.3404 28.2227C27.2475 27.9388 27.0936 27.6517 26.8757 27.3582C26.6584 27.0657 26.2771 26.6708 25.7333 26.1736C25.1885 25.6773 24.4155 24.9917 23.4143 24.1187L22.414 23.2411C22.0364 22.9065 21.6945 22.5741 21.3897 22.2444C21.0854 21.9152 20.8314 21.5991 20.629 21.2971C20.4256 20.9955 20.2708 20.7211 20.163 20.4748C20.0552 20.2289 19.9742 19.9545 19.9198 19.6529C19.8659 19.3508 19.8437 19.042 19.8546 18.7264C19.8827 17.9271 20.1268 17.1795 20.5882 16.4831C21.0487 15.7862 21.7257 15.2287 22.6182 14.8108C23.5103 14.3928 24.6768 14.1836 26.1159 14.1836C27.1484 14.1836 28.4113 14.3226 29.9061 14.602C29.9038 15.2002 29.9432 15.9342 30.0243 16.8037C28.6205 16.3015 27.3381 16.0511 26.1766 16.0511C25.3778 16.0511 24.7044 16.1824 24.156 16.4459C23.6086 16.7095 23.1879 17.0468 22.8949 17.458C22.6019 17.8692 22.4475 18.2921 22.4326 18.7264C22.4235 18.9863 22.452 19.2394 22.5173 19.4858C22.5834 19.7321 22.6866 19.9662 22.8274 20.1895C23.0294 20.5146 23.283 20.842 23.5873 21.1717C23.8916 21.5018 24.3145 21.9039 24.8548 22.3771C24.9902 22.4885 25.5068 22.9246 26.4048 23.6871C27.3023 24.4483 27.9557 25.0379 28.3633 25.4564C28.7722 25.8743 29.0951 26.2628 29.3337 26.6201C29.5714 26.9779 29.753 27.3632 29.8776 27.7767C30.0025 28.1896 30.0573 28.6379 30.0401 29.1211C30.0143 29.8647 29.83 30.5498 29.4877 31.1761C29.1453 31.8041 28.6671 32.3172 28.0545 32.7161C27.4409 33.1155 26.7644 33.3985 26.0249 33.5656C25.285 33.7336 24.516 33.817 23.7173 33.817C23.076 33.817 22.4158 33.7685 21.7366 33.6707C21.0573 33.5733 20.0914 33.3528 18.8403 33.0087Z" fill="white"></path><path fill-rule="evenodd" clip-rule="evenodd" d="M36.0146 33.5105L36.5485 28.2712L37.283 18.4756L37.3994 16.3432C37.4275 15.8048 37.4542 15.1867 37.4777 14.4902C39.5757 14.4997 41.7257 14.5038 43.9265 14.5038L48.3706 14.4902H49.7911C49.7033 15.136 49.639 15.7858 49.5973 16.441L48.3602 16.3713C48.054 16.3523 47.527 16.3387 46.7793 16.3296C46.0326 16.3206 45.2909 16.3151 44.5577 16.3151C42.3651 16.3151 40.8368 16.3296 39.9719 16.3573L39.4915 22.8785C40.9211 22.9065 42.203 22.9201 43.3365 22.9201C44.5722 22.9201 46.1943 22.9016 48.2026 22.8644C48.1152 23.5147 48.0504 24.1559 48.0101 24.7871L43.216 24.7459C42.2777 24.7459 40.9713 24.765 39.2972 24.8021L38.8041 31.6856L40.2536 31.6991C42.8845 31.6991 44.6293 31.6896 45.4901 31.6711C46.3505 31.6525 47.358 31.6113 48.5128 31.5456C48.4236 32.233 48.3593 32.8878 48.3185 33.5105C46.0806 33.4914 44.19 33.4824 42.6482 33.4824L36.0146 33.5105Z" fill="white"></path><path fill-rule="evenodd" clip-rule="evenodd" d="M54.9502 33.5105C55.2463 31.1136 55.5312 28.1852 55.8047 24.7246C56.0786 21.2646 56.2928 17.853 56.4477 14.4902C57.0889 14.4997 57.5762 14.5038 57.9113 14.5038L59.2086 14.4902L58.4551 23.3177L57.8307 31.643L60.477 31.6566C62.4468 31.6566 63.8325 31.6507 64.6376 31.6362C65.4405 31.6226 66.2198 31.5923 66.9742 31.5456C66.8972 32.1348 66.8279 32.7896 66.7655 33.5105C64.6575 33.4914 62.795 33.4824 61.1793 33.4824L54.9502 33.5105Z" fill="white"></path><path fill-rule="evenodd" clip-rule="evenodd" d="M71.9189 33.5105L72.2391 30.3053L72.7635 23.6315L73.1882 17.0537C73.2104 16.6733 73.229 16.2925 73.2421 15.9117L73.2774 14.4902L74.7138 14.5038L76.0669 14.4902C75.8183 16.8123 75.6086 19.2368 75.4374 21.764C75.1481 25.8137 74.904 29.7298 74.7075 33.5105L73.3979 33.4824C73.2303 33.4824 72.7381 33.4914 71.9189 33.5105Z" fill="white"></path><path fill-rule="evenodd" clip-rule="evenodd" d="M81.1156 33.0087C81.1093 32.1265 81.0758 31.3599 81.0146 30.7101C81.9833 31.1738 82.8563 31.5012 83.6352 31.6918C84.4136 31.8825 85.1644 31.978 85.8889 31.978C86.5858 31.978 87.2379 31.8594 87.8451 31.6225C88.4528 31.3857 88.9156 31.0511 89.2322 30.6191C89.5487 30.1875 89.7167 29.693 89.7362 29.1347C89.7484 28.8105 89.7072 28.5057 89.6153 28.2227C89.5229 27.9388 89.3685 27.6517 89.1507 27.3582C88.9333 27.0657 88.5529 26.6708 88.0082 26.1736C87.4634 25.6773 86.6904 24.9917 85.6901 24.1187L84.6898 23.2411C84.3113 22.9065 83.9698 22.5741 83.6655 22.2444C83.3612 21.9152 83.1063 21.5991 82.9039 21.2971C82.7005 20.9955 82.5457 20.7211 82.4388 20.4748C82.3301 20.2289 82.2495 19.9545 82.1956 19.6529C82.1408 19.3508 82.1186 19.042 82.13 18.7264C82.1576 17.9271 82.4017 17.1795 82.8631 16.4831C83.3241 15.7862 84.0006 15.2287 84.8931 14.8108C85.7857 14.3928 86.9522 14.1836 88.3917 14.1836C89.4233 14.1836 90.6862 14.3226 92.181 14.602C92.1792 15.2002 92.2181 15.9342 92.2992 16.8037C90.8959 16.3015 89.6134 16.0511 88.4519 16.0511C87.6536 16.0511 86.9793 16.1824 86.4319 16.4459C85.8835 16.7095 85.4637 17.0468 85.1698 17.458C84.8773 17.8692 84.7224 18.2921 84.7075 18.7264C84.6984 18.9863 84.727 19.2394 84.7922 19.4858C84.8587 19.7321 84.962 19.9662 85.1028 20.1895C85.3043 20.5146 85.5583 20.842 85.8622 21.1717C86.1665 21.5018 86.5894 21.9039 87.1306 22.3771C87.266 22.4885 87.7827 22.9246 88.6802 23.6871C89.5772 24.4483 90.2307 25.0379 90.6382 25.4564C91.0471 25.8743 91.37 26.2628 91.6086 26.6201C91.8464 26.9779 92.0279 27.3632 92.1534 27.7767C92.2779 28.1896 92.3322 28.6379 92.315 29.1211C92.2897 29.8647 92.1058 30.5498 91.7626 31.1761C91.4202 31.8041 90.9425 32.3172 90.3298 32.7161C89.7158 33.1155 89.0393 33.3985 88.2998 33.5656C87.5603 33.7336 86.791 33.817 85.9926 33.817C85.3514 33.817 84.6912 33.7685 84.0119 33.6707C83.3322 33.5733 82.3673 33.3528 81.1156 33.0087Z" fill="white"></path><path fill-rule="evenodd" clip-rule="evenodd" d="M98.2905 33.5105L98.824 28.2712L99.5589 18.4756L99.6748 16.3432C99.7029 15.8048 99.7296 15.1867 99.7541 14.4902C101.852 14.4997 104.001 14.5038 106.203 14.5038L110.646 14.4902H112.067C111.98 15.136 111.915 15.7858 111.874 16.441L110.636 16.3713C110.329 16.3523 109.803 16.3387 109.055 16.3296C108.308 16.3206 107.567 16.3151 106.833 16.3151C104.641 16.3151 103.112 16.3296 102.247 16.3573L101.767 22.8785C103.196 22.9065 104.479 22.9201 105.613 22.9201C106.848 22.9201 108.47 22.9016 110.479 22.8644C110.391 23.5147 110.327 24.1559 110.285 24.7871L105.491 24.7459C104.553 24.7459 103.247 24.765 101.574 24.8021L101.08 31.6856L102.529 31.6991C105.16 31.6991 106.906 31.6896 107.766 31.6711C108.626 31.6525 109.633 31.6113 110.789 31.5456C110.699 32.233 110.635 32.8878 110.594 33.5105C108.356 33.4914 106.466 33.4824 104.924 33.4824L98.2905 33.5105Z" fill="white"></path><path fill-rule="evenodd" clip-rule="evenodd" d="M18.8403 33.0087C18.8339 32.1265 18.8009 31.3599 18.7397 30.7101C19.7079 31.1738 20.5814 31.5012 21.3594 31.6918C22.1378 31.8825 22.889 31.978 23.614 31.978C24.3109 31.978 24.963 31.8594 25.5698 31.6225C26.1779 31.3857 26.6403 31.0511 26.9573 30.6191C27.2738 30.1875 27.4422 29.693 27.4613 29.1347C27.473 28.8105 27.4323 28.5057 27.3404 28.2227C27.2475 27.9388 27.0936 27.6517 26.8757 27.3582C26.6584 27.0657 26.2771 26.6708 25.7333 26.1736C25.1885 25.6773 24.4155 24.9917 23.4143 24.1187L22.414 23.2411C22.0364 22.9065 21.6945 22.5741 21.3897 22.2444C21.0854 21.9152 20.8314 21.5991 20.629 21.2971C20.4256 20.9955 20.2708 20.7211 20.163 20.4748C20.0552 20.2289 19.9742 19.9545 19.9198 19.6529C19.8659 19.3508 19.8437 19.042 19.8546 18.7264C19.8827 17.9271 20.1268 17.1795 20.5882 16.4831C21.0487 15.7862 21.7257 15.2287 22.6182 14.8108C23.5103 14.3928 24.6768 14.1836 26.1159 14.1836C27.1484 14.1836 28.4113 14.3226 29.9061 14.602C29.9038 15.2002 29.9432 15.9342 30.0243 16.8037C28.6205 16.3015 27.3381 16.0511 26.1766 16.0511C25.3778 16.0511 24.7044 16.1824 24.156 16.4459C23.6086 16.7095 23.1879 17.0468 22.8949 17.458C22.6019 17.8692 22.4475 18.2921 22.4326 18.7264C22.4235 18.9863 22.452 19.2394 22.5173 19.4858C22.5834 19.7321 22.6866 19.9662 22.8274 20.1895C23.0294 20.5146 23.283 20.842 23.5873 21.1717C23.8916 21.5018 24.3145 21.9039 24.8548 22.3771C24.9902 22.4885 25.5068 22.9246 26.4048 23.6871C27.3023 24.4483 27.9557 25.0379 28.3633 25.4564C28.7722 25.8743 29.0951 26.2628 29.3337 26.6201C29.5714 26.9779 29.753 27.3632 29.8776 27.7767C30.0025 28.1896 30.0573 28.6379 30.0401 29.1211C30.0143 29.8647 29.83 30.5498 29.4877 31.1761C29.1453 31.8041 28.6671 32.3172 28.0545 32.7161C27.4409 33.1155 26.7644 33.3985 26.0249 33.5656C25.285 33.7336 24.516 33.817 23.7173 33.817C23.076 33.817 22.4158 33.7685 21.7366 33.6707C21.0573 33.5733 20.0914 33.3528 18.8403 33.0087Z" fill="white"></path><path fill-rule="evenodd" clip-rule="evenodd" d="M36.0146 33.5105L36.5485 28.2712L37.283 18.4756L37.3994 16.3432C37.4275 15.8048 37.4542 15.1867 37.4777 14.4902C39.5757 14.4997 41.7257 14.5038 43.9265 14.5038L48.3706 14.4902H49.7911C49.7033 15.136 49.639 15.7858 49.5973 16.441L48.3602 16.3713C48.054 16.3523 47.527 16.3387 46.7793 16.3296C46.0326 16.3206 45.2909 16.3151 44.5577 16.3151C42.3651 16.3151 40.8368 16.3296 39.9719 16.3573L39.4915 22.8785C40.9211 22.9065 42.203 22.9201 43.3365 22.9201C44.5722 22.9201 46.1943 22.9016 48.2026 22.8644C48.1152 23.5147 48.0504 24.1559 48.0101 24.7871L43.216 24.7459C42.2777 24.7459 40.9713 24.765 39.2972 24.8021L38.8041 31.6856L40.2536 31.6991C42.8845 31.6991 44.6293 31.6896 45.4901 31.6711C46.3505 31.6525 47.358 31.6113 48.5128 31.5456C48.4236 32.233 48.3593 32.8878 48.3185 33.5105C46.0806 33.4914 44.19 33.4824 42.6482 33.4824L36.0146 33.5105Z" fill="white"></path><path fill-rule="evenodd" clip-rule="evenodd" d="M54.9502 33.5105C55.2463 31.1136 55.5312 28.1852 55.8047 24.7246C56.0786 21.2646 56.2928 17.853 56.4477 14.4902C57.0889 14.4997 57.5762 14.5038 57.9113 14.5038L59.2086 14.4902L58.4551 23.3177L57.8307 31.643L60.477 31.6566C62.4468 31.6566 63.8325 31.6507 64.6376 31.6362C65.4405 31.6226 66.2198 31.5923 66.9742 31.5456C66.8972 32.1348 66.8279 32.7896 66.7655 33.5105C64.6575 33.4914 62.795 33.4824 61.1793 33.4824L54.9502 33.5105Z" fill="white"></path><path fill-rule="evenodd" clip-rule="evenodd" d="M71.9189 33.5105L72.2391 30.3053L72.7635 23.6315L73.1882 17.0537C73.2104 16.6733 73.229 16.2925 73.2421 15.9117L73.2774 14.4902L74.7138 14.5038L76.0669 14.4902C75.8183 16.8123 75.6086 19.2368 75.4374 21.764C75.1481 25.8137 74.904 29.7298 74.7075 33.5105L73.3979 33.4824C73.2303 33.4824 72.7381 33.4914 71.9189 33.5105Z" fill="white"></path><path fill-rule="evenodd" clip-rule="evenodd" d="M81.1156 33.0087C81.1093 32.1265 81.0758 31.3599 81.0146 30.7101C81.9833 31.1738 82.8563 31.5012 83.6352 31.6918C84.4136 31.8825 85.1644 31.978 85.8889 31.978C86.5858 31.978 87.2379 31.8594 87.8451 31.6225C88.4528 31.3857 88.9156 31.0511 89.2322 30.6191C89.5487 30.1875 89.7167 29.693 89.7362 29.1347C89.7484 28.8105 89.7072 28.5057 89.6153 28.2227C89.5229 27.9388 89.3685 27.6517 89.1507 27.3582C88.9333 27.0657 88.5529 26.6708 88.0082 26.1736C87.4634 25.6773 86.6904 24.9917 85.6901 24.1187L84.6898 23.2411C84.3113 22.9065 83.9698 22.5741 83.6655 22.2444C83.3612 21.9152 83.1063 21.5991 82.9039 21.2971C82.7005 20.9955 82.5457 20.7211 82.4388 20.4748C82.3301 20.2289 82.2495 19.9545 82.1956 19.6529C82.1408 19.3508 82.1186 19.042 82.13 18.7264C82.1576 17.9271 82.4017 17.1795 82.8631 16.4831C83.3241 15.7862 84.0006 15.2287 84.8931 14.8108C85.7857 14.3928 86.9522 14.1836 88.3917 14.1836C89.4233 14.1836 90.6862 14.3226 92.181 14.602C92.1792 15.2002 92.2181 15.9342 92.2992 16.8037C90.8959 16.3015 89.6134 16.0511 88.4519 16.0511C87.6536 16.0511 86.9793 16.1824 86.4319 16.4459C85.8835 16.7095 85.4637 17.0468 85.1698 17.458C84.8773 17.8692 84.7224 18.2921 84.7075 18.7264C84.6984 18.9863 84.727 19.2394 84.7922 19.4858C84.8587 19.7321 84.962 19.9662 85.1028 20.1895C85.3043 20.5146 85.5583 20.842 85.8622 21.1717C86.1665 21.5018 86.5894 21.9039 87.1306 22.3771C87.266 22.4885 87.7827 22.9246 88.6802 23.6871C89.5772 24.4483 90.2307 25.0379 90.6382 25.4564C91.0471 25.8743 91.37 26.2628 91.6086 26.6201C91.8464 26.9779 92.0279 27.3632 92.1534 27.7767C92.2779 28.1896 92.3322 28.6379 92.315 29.1211C92.2897 29.8647 92.1058 30.5498 91.7626 31.1761C91.4202 31.8041 90.9425 32.3172 90.3298 32.7161C89.7158 33.1155 89.0393 33.3985 88.2998 33.5656C87.5603 33.7336 86.791 33.817 85.9926 33.817C85.3514 33.817 84.6912 33.7685 84.0119 33.6707C83.3322 33.5733 82.3673 33.3528 81.1156 33.0087Z" fill="white"></path><path fill-rule="evenodd" clip-rule="evenodd" d="M98.2905 33.5105L98.824 28.2712L99.5589 18.4756L99.6748 16.3432C99.7029 15.8048 99.7296 15.1867 99.7541 14.4902C101.852 14.4997 104.001 14.5038 106.203 14.5038L110.646 14.4902H112.067C111.98 15.136 111.915 15.7858 111.874 16.441L110.636 16.3713C110.329 16.3523 109.803 16.3387 109.055 16.3296C108.308 16.3206 107.567 16.3151 106.833 16.3151C104.641 16.3151 103.112 16.3296 102.247 16.3573L101.767 22.8785C103.196 22.9065 104.479 22.9201 105.613 22.9201C106.848 22.9201 108.47 22.9016 110.479 22.8644C110.391 23.5147 110.327 24.1559 110.285 24.7871L105.491 24.7459C104.553 24.7459 103.247 24.765 101.574 24.8021L101.08 31.6856L102.529 31.6991C105.16 31.6991 106.906 31.6896 107.766 31.6711C108.626 31.6525 109.633 31.6113 110.789 31.5456C110.699 32.233 110.635 32.8878 110.594 33.5105C108.356 33.4914 106.466 33.4824 104.924 33.4824L98.2905 33.5105Z" fill="white"></path><path fill-rule="evenodd" clip-rule="evenodd" d="M25.8983 46.6818C24.4049 46.6818 22.9463 46.5337 21.5326 46.2593C21.5217 46.1597 21.5131 46.0664 21.4986 45.9581C21.4864 45.8658 21.466 45.7598 21.4502 45.6615C21.7128 45.6625 21.9718 45.6688 22.2404 45.6593C23.1275 45.6258 24.0105 45.5397 24.865 45.3894C25.719 45.2409 26.5454 45.038 27.3211 44.7917C27.9822 44.5825 28.5967 44.337 29.175 44.0794C29.3702 44.5607 29.5477 45.0339 29.6953 45.4904C29.7868 45.7734 29.8665 46.0483 29.9398 46.3186C28.6275 46.5527 27.2786 46.6818 25.8983 46.6818ZM18.5253 45.456C19.3436 45.5719 20.2153 45.6444 21.1255 45.6625C21.1373 45.7014 21.1513 45.7431 21.1626 45.7816C21.207 45.9333 21.245 46.0755 21.2808 46.2136C20.3389 46.0198 19.4206 45.7621 18.5253 45.456ZM14.9954 43.9104C14.6408 43.717 14.293 43.5128 13.9498 43.3013C13.9471 43.29 13.9435 43.2782 13.9407 43.2669C14.7373 43.4172 15.6153 43.5345 16.578 43.5902C17.7128 43.6486 18.9554 43.6129 20.2618 43.4562C20.3424 43.6237 20.418 43.789 20.4896 43.9516C20.5797 44.1549 20.6603 44.3519 20.7364 44.5457C19.559 44.5253 18.412 44.4388 17.3388 44.2984C16.5074 44.1916 15.7244 44.0566 14.9954 43.9104ZM13.3066 41.5462C13.7766 41.5435 14.2684 41.5227 14.7986 41.4792C15.1337 41.4411 15.4829 41.4113 15.8379 41.3515C16.0163 41.3239 16.1974 41.2976 16.3799 41.2659C16.5624 41.2301 16.7481 41.1935 16.9351 41.1563C17.0288 41.1378 17.123 41.1187 17.2181 41.0988C17.3123 41.0766 17.4069 41.0535 17.5025 41.0309C17.6931 40.9838 17.8865 40.9362 18.0817 40.8882C18.2737 40.8353 18.467 40.7773 18.6631 40.7207C19.0294 41.2564 19.3596 41.7853 19.653 42.3011C19.3464 42.3409 19.0399 42.3812 18.7374 42.4079C18.3393 42.4537 17.944 42.4722 17.5564 42.5021C17.3621 42.5153 17.1701 42.518 16.9795 42.5266C16.7884 42.5352 16.5996 42.5442 16.4125 42.5429C16.2255 42.5451 16.0403 42.5474 15.8574 42.5497C15.6753 42.5465 15.4942 42.5433 15.3167 42.5402C15.2275 42.5388 15.1383 42.5388 15.0509 42.5352C14.9635 42.5316 14.8761 42.527 14.7896 42.523C14.6166 42.5139 14.4459 42.5107 14.2779 42.4981C14.0741 42.4854 13.883 42.4664 13.6879 42.4496C13.5805 42.1553 13.4587 41.8555 13.3066 41.5462ZM11.4939 38.9301C12.0047 38.5963 12.5843 38.2105 13.2274 37.7704C13.8038 37.3746 14.4319 36.9344 15.0994 36.4531C16.0947 37.4701 17.0216 38.5157 17.8222 39.5609C17.8245 39.5636 17.8263 39.5667 17.8286 39.5695C17.7489 39.5984 17.6692 39.627 17.5886 39.6519C17.3966 39.7144 17.2059 39.7769 17.0171 39.838L16.8754 39.8846L16.7341 39.9254C16.6394 39.9535 16.5457 39.9806 16.4524 40.0083C16.0802 40.1237 15.7107 40.212 15.3525 40.308C15.1723 40.3501 14.9943 40.3913 14.8191 40.4321C14.7317 40.4516 14.6447 40.4738 14.5573 40.4919C14.4708 40.5091 14.3843 40.5258 14.2992 40.5426C13.802 40.6467 13.3347 40.7187 12.8846 40.7794C12.5128 40.1645 12.0495 39.5405 11.4939 38.9301ZM12.494 42.3229C12.1072 42.0417 11.7264 41.7514 11.3583 41.4462C11.6281 41.4793 11.9238 41.5037 12.2327 41.5223C12.2417 41.5345 12.2517 41.5467 12.2607 41.559C12.4491 41.8252 12.6167 42.091 12.7733 42.3559C12.681 42.3446 12.5836 42.3347 12.494 42.3229ZM9.7914 40.023C10.0002 39.8898 10.2546 39.7286 10.5485 39.5407C10.9851 39.9827 11.3962 40.4396 11.7662 40.9028C11.6915 40.9091 11.6095 40.9177 11.5371 40.9241C11.2731 40.9381 11.0249 40.9549 10.794 40.958C10.4516 40.6551 10.1152 40.3454 9.7914 40.023ZM8.95345 39.1412C9.04854 38.9067 9.15677 38.6476 9.27903 38.3664C9.50454 38.5575 9.73051 38.7568 9.95647 38.9655C10.0846 39.0851 10.2078 39.2087 10.3323 39.331C10.0805 39.5578 9.865 39.753 9.68703 39.916C9.43662 39.6629 9.19164 39.4052 8.95345 39.1412ZM8.87415 38.2847C8.82027 38.498 8.77363 38.6941 8.7297 38.8815C8.52457 38.6474 8.32306 38.4097 8.12789 38.1674C8.10706 37.9338 8.08849 37.6856 8.07219 37.4248C8.35566 37.6272 8.64185 37.8482 8.92849 38.0809C8.91038 38.1484 8.89091 38.2195 8.87415 38.2847ZM8.02155 34.8004C8.02925 34.3811 8.05189 33.9437 8.0777 33.489C8.11075 33.0348 8.14562 32.5634 8.20042 32.0775C8.24615 31.6487 8.30728 31.2031 8.37566 30.7521C8.64509 30.9414 8.91589 31.1316 9.19347 31.3354C9.74049 31.7384 10.3056 32.1785 10.8775 32.6381C10.8468 32.7079 10.8146 32.779 10.7843 32.8478C10.6883 33.0597 10.5995 33.2717 10.513 33.4804C10.4274 33.6896 10.3391 33.8938 10.2594 34.0976C9.93521 34.9109 9.6617 35.6798 9.42985 36.3831C9.36555 36.5814 9.30577 36.7734 9.24872 36.9609C8.84525 36.6815 8.43362 36.4392 8.02109 36.2196C8.01158 35.7726 8.00977 35.3012 8.02155 34.8004ZM7.09449 36.7826C7.18053 36.8342 7.26521 36.8808 7.35215 36.9365C7.42506 36.9822 7.49932 37.0357 7.57268 37.0841C7.59894 37.2472 7.62521 37.4079 7.65238 37.5614C7.46038 37.3065 7.27562 37.0456 7.09449 36.7826ZM6.53332 35.3025C6.34087 34.4358 6.15385 33.4586 5.99762 32.3804C5.84955 31.353 5.73725 30.2299 5.67657 29.029C6.22223 29.3397 6.79596 29.6911 7.39777 30.0869C7.18449 32.1323 7.22253 34.0161 7.38011 35.5969C7.39098 35.7056 7.40411 35.807 7.41589 35.9125C7.14192 35.788 6.86932 35.6779 6.59943 35.5842C6.57725 35.49 6.55506 35.3995 6.53332 35.3025ZM3.45379 27.9483C3.8627 28.1036 4.30375 28.3024 4.7747 28.5415C4.80504 28.9087 4.84081 29.2692 4.88156 29.6224C5.05183 31.0257 5.29862 32.319 5.58119 33.4769C5.71432 34.0212 5.85334 34.5333 5.99507 35.0165C4.78013 32.8538 3.91024 30.4733 3.45379 27.9483ZM3.08293 23.8689C3.08293 22.3297 3.23779 20.8268 3.52806 19.3732C3.77938 19.4348 4.03794 19.5054 4.30602 19.5933C4.66013 19.7092 5.02964 19.85 5.40957 20.0085C5.39281 20.0724 5.37515 20.1367 5.36111 20.201C5.31357 20.4097 5.26647 20.618 5.21892 20.8259C5.17274 21.0333 5.13742 21.2425 5.09666 21.4494C5.07674 21.5536 5.05772 21.6564 5.03779 21.7605L4.98979 22.0707C4.959 22.2777 4.92277 22.4832 4.89787 22.6893C4.78828 23.5112 4.72715 24.3231 4.69274 25.116C4.66285 25.9103 4.67191 26.686 4.70225 27.4386C4.70994 27.5952 4.72308 27.746 4.73304 27.9C4.25213 27.7302 3.79704 27.5971 3.37545 27.5056C3.18526 26.321 3.08293 25.1069 3.08293 23.8689ZM6.69579 11.5526C7.27858 11.8492 7.97231 12.2183 8.76114 12.6584C8.67964 12.7766 8.59858 12.8948 8.51616 13.0139C8.27028 13.3635 8.05156 13.7362 7.82152 14.1075C7.70786 14.294 7.60643 14.4892 7.49729 14.6817C7.44341 14.7781 7.38997 14.875 7.33609 14.9724C7.28175 15.0688 7.23465 15.1703 7.18394 15.2699C7.08431 15.4696 6.98424 15.6693 6.88507 15.8685C6.7936 16.0714 6.70212 16.2747 6.61156 16.4771C6.51737 16.6782 6.43767 16.8847 6.35571 17.0898L6.23299 17.3973L6.17231 17.5508L6.11707 17.7066C6.04416 17.914 5.9708 18.1209 5.89835 18.327C5.82907 18.5343 5.76748 18.7436 5.70228 18.9514C5.67103 19.0547 5.63707 19.1583 5.60763 19.2625C5.59541 19.3096 5.58273 19.3562 5.5696 19.4033C4.88039 19.1869 4.22877 19.0383 3.62016 18.9505C4.20748 16.2779 5.26258 13.7833 6.69579 11.5526ZM12.0766 5.71754C12.1332 5.7352 12.1861 5.75014 12.2441 5.76916C12.6055 5.87286 12.9895 6.02456 13.4034 6.16856C13.4545 6.18758 13.508 6.20343 13.5596 6.22471C13.6112 6.24645 13.6633 6.26818 13.7167 6.28946C13.8218 6.33248 13.9286 6.3755 14.0378 6.41988C14.1465 6.46335 14.2569 6.50682 14.3688 6.55165C14.4249 6.57384 14.4815 6.59603 14.5381 6.61822C14.5948 6.64222 14.6505 6.66894 14.7075 6.69339C14.7338 6.70516 14.7614 6.71694 14.7877 6.72916C14.5839 6.87452 14.3801 7.01988 14.1718 7.16931C14.0278 7.26848 13.8915 7.38214 13.7507 7.49037C13.6103 7.60041 13.469 7.7109 13.3264 7.82275C12.2006 8.73022 11.0735 9.78577 10.0212 11.0224C9.89302 11.18 9.76396 11.3376 9.634 11.497C9.56834 11.5767 9.50404 11.6564 9.43838 11.7366C9.37453 11.8181 9.31385 11.9023 9.25091 11.9856C9.22509 12.0205 9.19883 12.0558 9.17257 12.0911C9.14313 12.0794 9.11007 12.0644 9.08064 12.0522C8.25423 11.718 7.51883 11.4517 6.89347 11.243C8.30358 9.12509 10.0578 7.25716 12.0766 5.71754ZM18.375 2.32715C19.0425 2.511 19.7493 2.727 20.4861 2.98376C20.7469 3.07432 21.0059 3.16806 21.2636 3.26406C20.7931 3.45515 20.3036 3.66345 19.7951 3.89485C19.6719 3.94964 19.5478 4.00579 19.4215 4.0624C19.2983 4.12262 19.1724 4.18421 19.0465 4.24625C18.7939 4.37077 18.5367 4.49847 18.274 4.62843C18.0141 4.76428 17.7533 4.90964 17.4843 5.05455C17.3507 5.12745 17.2158 5.20081 17.079 5.27598C16.9459 5.35477 16.8114 5.43538 16.676 5.51643C16.5397 5.59704 16.4025 5.67945 16.2648 5.76232C16.1435 5.83387 16.0216 5.90859 15.9025 5.98647C15.85 5.96881 15.7966 5.94979 15.7445 5.93213C15.4696 5.83975 15.1998 5.75055 14.9353 5.66587C14.175 5.45077 13.4559 5.29228 12.7998 5.1904C14.5024 3.99402 16.3748 3.02587 18.375 2.32715ZM17.6765 8.09661C17.8096 8.16273 17.9427 8.22929 18.0754 8.29495C18.2081 8.36107 18.3421 8.42356 18.4707 8.49737C18.7302 8.6391 18.9897 8.77812 19.2469 8.91442C19.3764 8.9819 19.5046 9.04937 19.6318 9.11593C19.6956 9.14899 19.759 9.18205 19.8229 9.2151C19.8867 9.24771 19.947 9.28574 20.0095 9.32016C20.0642 9.35141 20.1168 9.38084 20.1716 9.41163C19.4928 9.89027 18.737 10.4522 17.9052 11.1369C17.2662 11.6726 16.5802 12.2676 15.8842 12.9537C15.3707 13.4554 14.8431 13.9993 14.3165 14.5925C14.2232 14.5404 14.1295 14.4879 14.0371 14.4362C13.8107 14.3117 13.587 14.1881 13.3664 14.0663C13.1436 13.9494 12.9231 13.834 12.7053 13.7203C12.5962 13.6637 12.4884 13.608 12.3802 13.5523C12.2724 13.4989 12.1646 13.4459 12.0582 13.3925C11.844 13.2879 11.6339 13.1828 11.4261 13.0841C11.0425 12.903 10.673 12.735 10.3112 12.5756L10.3682 12.4963L10.4656 12.3727L10.6585 12.1277L10.8505 11.8832C10.9139 11.8017 10.9773 11.7193 11.0457 11.6423C12.1053 10.3712 13.27 9.2305 14.4736 8.2311C14.9174 7.86205 15.3666 7.51835 15.8162 7.18642C15.9222 7.23805 16.0286 7.28922 16.1364 7.34129C16.3832 7.45993 16.6372 7.57903 16.8962 7.69858C17.1521 7.82854 17.412 7.96167 17.6765 8.09661ZM9.86659 21.2862C8.77074 20.689 7.70931 20.1931 6.69995 19.8041C6.72531 19.7136 6.75021 19.623 6.77829 19.5333L6.87112 19.2494C6.93497 19.0597 6.99202 18.8668 7.06131 18.6775C7.13104 18.4882 7.20123 18.298 7.27097 18.1065L7.32395 17.9629L7.38236 17.8216C7.42131 17.7265 7.4598 17.6319 7.49919 17.5363C7.57663 17.3462 7.6527 17.1537 7.74191 16.9662C7.8275 16.7774 7.91353 16.5872 8.00048 16.3966C8.09467 16.2096 8.18885 16.0212 8.2835 15.8323C8.3315 15.7386 8.37587 15.6422 8.42704 15.5502L8.58055 15.2731L8.73361 14.9955C8.78433 14.9031 8.83323 14.8099 8.88984 14.7211C8.99942 14.5404 9.1081 14.3606 9.21678 14.1809L9.29874 14.0455L9.38478 13.9142L9.55912 13.6515L9.73255 13.3893L9.81633 13.2625C10.9226 13.906 12.1615 14.6654 13.5078 15.5498C12.2109 17.1415 10.9289 19.0434 9.86659 21.2862ZM8.32158 25.3378C7.9566 26.6084 7.68852 27.8677 7.51871 29.084C7.51599 29.1026 7.51418 29.1207 7.51146 29.1397C6.86709 28.7997 6.24218 28.5026 5.64671 28.254C5.64535 28.2137 5.64399 28.1729 5.64309 28.1326C5.64218 28.0511 5.64173 27.9696 5.64127 27.8877C5.63946 27.7242 5.63765 27.5589 5.63629 27.3923C5.63856 27.2261 5.64173 27.0585 5.64354 26.8896C5.64535 26.8049 5.64626 26.7207 5.64807 26.6351C5.65078 26.55 5.65486 26.4649 5.65803 26.3797C5.66482 26.2081 5.67207 26.0356 5.67886 25.8617C5.69063 25.6896 5.70195 25.5144 5.71418 25.3387C5.71961 25.2508 5.72595 25.163 5.73184 25.0742C5.73999 24.9864 5.74905 24.8976 5.75675 24.8089C5.81516 24.097 5.91841 23.3711 6.04022 22.6321C6.07463 22.4478 6.10814 22.2621 6.14256 22.076C6.17426 21.889 6.22135 21.7043 6.25984 21.5168C6.32686 21.1799 6.41697 20.8443 6.50165 20.5052C6.64022 20.5735 6.77697 20.6387 6.9178 20.7112C7.72565 21.1274 8.57607 21.625 9.45682 22.1883C9.00807 23.2294 8.63041 24.2877 8.32158 25.3378ZM13.0488 24.7382C13.5564 25.1335 14.0718 25.5487 14.5907 25.9803C14.5622 26.0233 14.5327 26.0618 14.5042 26.1048C14.2049 26.5613 13.8997 27.0105 13.6221 27.4715C13.4804 27.7006 13.3409 27.9288 13.2019 28.1557C13.0683 28.3862 12.9356 28.6153 12.8043 28.8426C12.7386 28.9567 12.6739 29.0699 12.6082 29.1832C12.5466 29.2982 12.4837 29.4123 12.4216 29.5259C12.2989 29.7542 12.1767 29.9801 12.0558 30.2043C11.9398 30.4312 11.8253 30.6562 11.7116 30.8799C11.6555 30.9913 11.5993 31.1018 11.5436 31.2123C11.4906 31.3241 11.4367 31.4351 11.3842 31.5456C11.3806 31.5537 11.377 31.561 11.3733 31.5691C10.7765 31.1349 10.1806 30.7192 9.59055 30.3451C9.24277 30.1246 8.89772 29.9172 8.55583 29.7179C8.60066 29.4757 8.63689 29.2402 8.6876 28.993C8.91311 27.9143 9.20564 26.7895 9.58013 25.6361C9.87039 24.7522 10.205 23.8502 10.5945 22.9404C11.3919 23.4879 12.2111 24.0879 13.0488 24.7382ZM13.6822 35.0622C13.9168 35.281 14.1427 35.5056 14.3714 35.7284C13.6202 36.3949 12.9174 37.0198 12.2934 37.5759C11.884 37.9409 11.5059 38.2782 11.164 38.5848C11.0191 38.4367 10.8769 38.2882 10.7207 38.1428C10.406 37.8512 10.0772 37.584 9.74347 37.3296C9.92324 36.941 10.1211 36.5249 10.3394 36.0825C10.7424 35.2606 11.2224 34.3459 11.7626 33.3659C12.3966 33.8994 13.0369 34.4595 13.6822 35.0622ZM19.8714 40.3267C19.923 40.3091 19.9737 40.2914 20.0244 40.2738C20.0751 40.2543 20.1254 40.2344 20.1761 40.2149C20.2775 40.175 20.3794 40.1352 20.4813 40.0954C20.6851 40.0138 20.8934 39.9364 21.099 39.8472C21.3037 39.7566 21.5097 39.6647 21.7175 39.5723C23.0489 38.9664 24.3055 38.2446 25.4502 37.487C25.6431 37.7578 25.8329 38.0282 26.0163 38.2981C26.5058 39.0194 26.9554 39.7376 27.3711 40.4486C25.6694 41.0391 23.599 41.6477 21.1723 42.0801C20.9233 42.12 20.6769 42.1562 20.4301 42.1933C20.1892 41.6309 19.899 41.0413 19.5594 40.4336C19.663 40.3978 19.7663 40.363 19.8714 40.3267ZM28.2323 42.0141C28.4678 42.475 28.6783 42.9279 28.8758 43.3748C27.0916 43.9635 24.851 44.4494 22.2006 44.5377C21.8741 44.5486 21.5503 44.549 21.2275 44.549C21.136 44.1809 21.0151 43.7828 20.8747 43.3694C21.045 43.344 21.2112 43.3268 21.3832 43.2969C23.1017 42.994 24.7645 42.4923 26.2394 41.9C26.4237 41.8261 26.6057 41.7519 26.7864 41.6799C26.9653 41.6052 27.1383 41.5218 27.3112 41.4449C27.4788 41.3679 27.6445 41.2923 27.808 41.2171C27.9543 41.4838 28.0974 41.7501 28.2323 42.0141ZM30.506 46.21C30.3702 45.4452 30.1741 44.6206 29.8942 43.7462C30.3905 43.4967 30.8465 43.2385 31.2554 42.985C32.2992 42.3424 33.0428 41.7229 33.4843 41.3367C33.9176 40.9386 34.0625 40.7833 33.842 40.9522C33.7311 41.036 33.5744 41.1483 33.3702 41.2805C33.1632 41.4087 32.9155 41.5671 32.6139 41.7324C32.0171 42.0698 31.2301 42.4687 30.257 42.8699C30.0722 42.9456 29.8734 43.0203 29.6746 43.095C29.4106 42.3456 29.0909 41.5653 28.716 40.7611C28.8849 40.6733 29.0588 40.5831 29.2213 40.4998C29.5062 40.335 29.7792 40.1779 30.0396 40.0284C30.1687 39.9528 30.2945 39.8794 30.4173 39.8074C30.5364 39.7309 30.6523 39.6567 30.7646 39.5851C30.9874 39.4407 31.1961 39.3057 31.389 39.1812C31.4841 39.1178 31.5774 39.0598 31.6625 38.9987C31.7472 38.9376 31.8287 38.8796 31.9053 38.8239C32.0579 38.713 32.1924 38.6147 32.3096 38.5287C32.7733 38.185 32.9314 38.0459 32.6964 38.1859C32.46 38.3253 32.0275 38.5427 31.4167 38.8334C31.1069 38.9693 30.7533 39.125 30.357 39.2989C30.1614 39.3899 29.9463 39.4683 29.7253 39.5588C29.5048 39.6485 29.2734 39.7422 29.0311 39.84C28.826 39.9188 28.6082 40.0008 28.3877 40.0828C27.9077 39.1196 27.3534 38.1274 26.7113 37.1149C26.6393 37.0008 26.561 36.8849 26.4867 36.7703C27.0794 36.3379 27.6468 35.9127 28.1549 35.4856C28.735 35.0233 29.2426 34.5519 29.7081 34.1353C29.8254 34.032 29.935 33.9261 30.0405 33.8228C30.1469 33.7196 30.2497 33.6191 30.3489 33.5222C30.5472 33.3279 30.732 33.145 30.9022 32.9774C31.2369 32.636 31.5031 32.3389 31.7065 32.1161C32.1104 31.6678 32.2426 31.4899 32.028 31.6796C31.8142 31.8689 31.4058 32.1691 30.8334 32.5839C30.2474 32.9819 29.5025 33.5027 28.5819 34.0877C28.4678 34.1625 28.3514 34.2385 28.2324 34.3164C28.1142 34.3934 27.9883 34.4672 27.8637 34.5456C27.6138 34.7013 27.3543 34.8625 27.0853 35.031C26.9527 35.117 26.8123 35.1963 26.6714 35.2796C26.5306 35.3629 26.388 35.4476 26.2431 35.5341C26.1063 35.616 25.9668 35.6998 25.826 35.784C25.5815 35.4304 25.3238 35.074 25.0603 34.7172C24.6201 34.7674 24.1714 34.7946 23.7172 34.7946C23.6035 34.7946 23.4853 34.7846 23.3703 34.7819C23.8204 35.3299 24.2606 35.88 24.6776 36.432C23.6022 37.0311 22.4198 37.6479 21.1111 38.2443C20.9128 38.3339 20.7158 38.4236 20.5188 38.5128C20.3223 38.6002 20.1222 38.6794 19.9261 38.7637C19.5575 38.9258 19.1857 39.0648 18.8194 39.2083C18.6957 39.0177 18.5676 38.8262 18.434 38.6337C17.7738 37.6805 16.9899 36.7047 16.0874 35.7297C16.8351 35.175 17.6262 34.5686 18.448 33.9148L17.8675 33.7549L17.8621 33.015C17.8612 32.8868 17.8585 32.7659 17.8562 32.6423C16.9659 33.4284 16.1047 34.1914 15.2959 34.9083C15.0459 34.6579 14.7914 34.4083 14.5256 34.1602C13.8192 33.5 13.0902 32.8868 12.3552 32.3099C12.4313 32.1768 12.5019 32.0491 12.5798 31.9142C13.4746 30.3714 14.5225 28.6959 15.7075 26.9303C16.6331 27.7354 17.5718 28.6003 18.5137 29.5164L19.1626 29.8271C20.0651 30.2595 20.8825 30.5674 21.592 30.7413C21.7587 30.7821 21.9249 30.8174 22.0893 30.8486C23.3459 29.7279 24.5504 28.5809 25.6616 27.4583C25.5117 27.3057 25.3207 27.1214 25.0734 26.8954C24.9706 26.8022 24.852 26.6953 24.7342 26.5889C23.5868 27.5969 22.3293 28.7022 20.9649 29.9009C20.9504 29.8859 20.9363 29.8705 20.9219 29.8556C19.4927 28.3862 17.9966 27.0268 16.4855 25.796C17.5311 24.2935 18.602 22.8598 19.6327 21.5448C19.4887 21.3093 19.3605 21.0797 19.2668 20.8669C19.2016 20.7179 19.145 20.559 19.0951 20.3942C18.7872 20.7161 18.4761 21.0471 18.1573 21.4044C17.248 22.4292 16.2971 23.5902 15.3507 24.8957C14.728 24.4176 14.1045 23.962 13.4846 23.5314C12.6613 22.9599 11.8431 22.4369 11.037 21.9569C12.0038 19.8784 13.2011 17.9299 14.4767 16.201C15.8017 17.1043 17.2005 18.1173 18.65 19.2499C18.7383 19.3191 18.8244 19.3907 18.9117 19.4609C18.8846 19.2059 18.8683 18.9492 18.8773 18.6915C18.8891 18.3519 18.9453 18.0218 19.0209 17.6957C18.9693 17.6563 18.9176 17.617 18.8665 17.578C18.7523 17.4911 18.6391 17.4032 18.5237 17.319C18.4073 17.2366 18.2918 17.1533 18.1764 17.0704C17.945 16.9056 17.714 16.7421 17.4849 16.5791C17.2512 16.4228 17.0198 16.2666 16.7889 16.1122C16.673 16.0352 16.5579 15.9587 16.4429 15.8826C16.3265 15.8088 16.2102 15.7359 16.0947 15.663C15.8628 15.5181 15.6328 15.3741 15.405 15.2314C15.3625 15.2061 15.3213 15.1816 15.2787 15.1567C15.9099 14.3634 16.5502 13.6216 17.1788 12.941C17.3667 12.7427 17.5451 12.5416 17.7308 12.3537C17.9155 12.1653 18.0967 11.9797 18.2737 11.7981C18.4535 11.6179 18.6337 11.4462 18.8071 11.276C18.8936 11.1904 18.9797 11.1062 19.0644 11.0233C19.1513 10.9422 19.2373 10.8621 19.3225 10.7833C19.7676 10.3649 20.1874 9.98676 20.5791 9.64261C20.6325 9.6725 20.6877 9.70374 20.7403 9.73363C20.9821 9.86631 21.2171 9.99627 21.4471 10.1235C21.6763 10.253 21.8927 10.3889 22.1078 10.5129C22.5348 10.7656 22.9365 10.997 23.3037 11.2044C24.7329 12.0906 25.6127 12.5683 25.3025 12.332C25.1477 12.2142 24.8977 11.976 24.549 11.6387C24.3747 11.4698 24.1741 11.2769 23.9504 11.0609C23.8367 10.954 23.7217 10.8358 23.5917 10.7235C23.4613 10.6108 23.3246 10.4926 23.1824 10.3694C22.8962 10.1244 22.5833 9.85997 22.2423 9.57921C22.1563 9.50993 22.0716 9.43612 21.9806 9.36865C21.8887 9.30072 21.7949 9.23189 21.7003 9.16216C21.602 9.0897 21.496 9.01408 21.3942 8.94027C21.8366 8.56668 22.2201 8.25287 22.5181 8.00789C23.224 7.44321 23.4717 7.22042 23.1163 7.46631C22.9392 7.58902 22.6879 7.74933 22.3668 7.94902C22.207 8.0491 22.0336 8.16502 21.8407 8.28819C21.6496 8.41317 21.4376 8.54359 21.2167 8.69348C21.1904 8.71114 21.1587 8.73287 21.132 8.75099C21.1238 8.74555 21.1161 8.74012 21.1084 8.73423C20.9042 8.58842 20.6927 8.43989 20.474 8.28819C20.2512 8.14374 20.0167 8.00246 19.7771 7.85619C19.5376 7.71038 19.2903 7.56321 19.0363 7.41423C18.9104 7.33725 18.7759 7.27159 18.6419 7.20185C18.5074 7.13302 18.3711 7.06419 18.2334 6.99401C17.9563 6.85634 17.6832 6.71597 17.4065 6.58917C17.249 6.52216 17.0945 6.45921 16.9388 6.394C17.335 6.12729 17.7303 5.86872 18.1216 5.62782C19.327 4.88699 20.4926 4.25483 21.5753 3.73544C21.7143 3.66751 21.8474 3.60548 21.9833 3.54072C22.4864 3.73997 22.9754 3.94555 23.4414 4.15385C23.5564 4.20412 23.6705 4.25529 23.7833 4.30465C23.8942 4.35717 24.0047 4.4088 24.1134 4.46042C24.3303 4.56366 24.5459 4.65831 24.7474 4.76291C24.9516 4.86299 25.149 4.96034 25.3388 5.05408C25.5262 5.15189 25.706 5.24563 25.8772 5.33438C26.5619 5.69257 27.1007 5.99099 27.4331 6.17121C27.7673 6.34963 27.8991 6.40216 27.7542 6.29619C27.6088 6.19114 27.3756 5.97559 27.0446 5.6731C26.8757 5.52638 26.6819 5.35838 26.4654 5.17046C26.2471 4.98299 25.9958 4.78827 25.7223 4.57091C25.1653 4.15249 24.4983 3.6734 23.6873 3.21604C23.541 3.13227 23.3853 3.04985 23.2299 2.96744C24.6473 2.34117 25.8237 1.90102 26.6225 1.59853C27.7216 1.20049 28.1187 1.03838 27.5844 1.20231C27.3172 1.28472 26.9459 1.38842 26.474 1.51612C26.2363 1.57589 25.9795 1.65876 25.696 1.74117C25.4117 1.82449 25.1037 1.91506 24.7718 2.01287C24.165 2.20623 23.4749 2.43355 22.7191 2.70751C22.1495 2.42766 21.5323 2.15959 20.8544 1.92276C20.6714 1.85936 20.4885 1.80095 20.3047 1.7448C22.0951 1.29378 23.968 1.05151 25.8985 1.05151C32.1674 1.05151 37.8355 3.57016 41.9644 7.6565C37.6014 3.00729 31.4139 0.0878906 24.5323 0.0878906C11.3246 0.0878906 0.626465 10.7978 0.626465 24.0041C0.626465 37.2082 11.3246 47.9113 24.5323 47.9113C33.0944 47.9113 40.5747 43.4065 44.8014 36.6535C41.5274 41.4915 36.4367 44.9955 30.506 46.21Z" fill="white"></path></g><defs><clipPath id="clip0_19218_7779"><rect width="111.849" height="48" fill="white" transform="translate(0.575684)"></rect></clipPath></defs></svg>