<svg width="22" height="22" viewBox="0 0 22 22" fill="none" xmlns="http://www.w3.org/2000/svg">
<path d="M11.4248 5.60938C8.4248 5.60938 6.03418 8.04688 6.03418 11C6.03418 14 8.4248 16.3906 11.4248 16.3906C14.3779 16.3906 16.8154 14 16.8154 11C16.8154 8.04688 14.3779 5.60938 11.4248 5.60938ZM11.4248 14.5156C9.50293 14.5156 7.90918 12.9688 7.90918 11C7.90918 9.07812 9.45605 7.53125 11.4248 7.53125C13.3467 7.53125 14.8936 9.07812 14.8936 11C14.8936 12.9688 13.3467 14.5156 11.4248 14.5156ZM18.2686 5.42188C18.2686 4.71875 17.7061 4.15625 17.0029 4.15625C16.2998 4.15625 15.7373 4.71875 15.7373 5.42188C15.7373 6.125 16.2998 6.6875 17.0029 6.6875C17.7061 6.6875 18.2686 6.125 18.2686 5.42188ZM21.8311 6.6875C21.7373 5 21.3623 3.5 20.1436 2.28125C18.9248 1.0625 17.4248 0.6875 15.7373 0.59375C14.0029 0.5 8.7998 0.5 7.06543 0.59375C5.37793 0.6875 3.9248 1.0625 2.65918 2.28125C1.44043 3.5 1.06543 5 0.97168 6.6875C0.87793 8.42188 0.87793 13.625 0.97168 15.3594C1.06543 17.0469 1.44043 18.5 2.65918 19.7656C3.9248 20.9844 5.37793 21.3594 7.06543 21.4531C8.7998 21.5469 14.0029 21.5469 15.7373 21.4531C17.4248 21.3594 18.9248 20.9844 20.1436 19.7656C21.3623 18.5 21.7373 17.0469 21.8311 15.3594C21.9248 13.625 21.9248 8.42188 21.8311 6.6875ZM19.5811 17.1875C19.2529 18.125 18.5029 18.8281 17.6123 19.2031C16.2061 19.7656 12.9248 19.625 11.4248 19.625C9.87793 19.625 6.59668 19.7656 5.2373 19.2031C4.2998 18.8281 3.59668 18.125 3.22168 17.1875C2.65918 15.8281 2.7998 12.5469 2.7998 11C2.7998 9.5 2.65918 6.21875 3.22168 4.8125C3.59668 3.92188 4.2998 3.21875 5.2373 2.84375C6.59668 2.28125 9.87793 2.42188 11.4248 2.42188C12.9248 2.42188 16.2061 2.28125 17.6123 2.84375C18.5029 3.17188 19.2061 3.92188 19.5811 4.8125C20.1436 6.21875 20.0029 9.5 20.0029 11C20.0029 12.5469 20.1436 15.8281 19.5811 17.1875Z" fill="white"/>
</svg>
