<svg width="101" height="100" viewBox="0 0 101 100" fill="none" xmlns="http://www.w3.org/2000/svg">
<path d="M14.9961 85.3555C24.44 94.799 36.9961 100 50.3516 100C63.707 100 76.2631 94.799 85.707 85.3555C95.1506 75.9117 100.352 63.3555 100.352 50C100.352 36.6445 95.1506 24.0883 85.707 14.6445C76.2631 5.20098 63.707 -3.20357e-06 50.3516 -4.37114e-06C36.9961 -5.53871e-06 24.44 5.20097 14.9961 14.6445C5.55255 24.0883 0.351568 36.6445 0.351567 50C0.351566 63.3555 5.55255 75.9117 14.9961 85.3555ZM50.3516 97.0703C24.8871 97.0703 4.0832 76.7441 3.30626 51.4648L6.2375 51.4648C6.60176 62.7059 11.1486 73.2213 19.1393 81.2121C27.4764 89.5492 38.5611 94.1406 50.3516 94.1406C61.0852 94.1406 71.4307 90.2416 79.4824 83.1619C87.46 76.1475 92.6436 66.517 94.0783 56.0445C94.1881 55.243 93.6273 54.5041 92.8258 54.3943C92.0231 54.2844 91.2854 54.8453 91.1756 55.6467C88.398 75.9217 70.8473 91.2109 50.3516 91.2109C27.6277 91.2109 9.14063 72.7238 9.14063 50C9.14063 27.2762 27.6277 8.78906 50.3516 8.78906C73.0754 8.78906 91.5625 27.2762 91.5625 50C91.5625 50.8092 92.2184 51.4648 93.0273 51.4648L97.3969 51.4648C96.6199 76.7441 75.816 97.0703 50.3516 97.0703ZM50.3516 2.92968C75.816 2.92969 96.6199 23.2559 97.3969 48.5352L94.4686 48.5352C94.1047 37.2936 89.5547 26.7789 81.5637 18.7879C73.2268 10.4508 62.142 5.85937 50.3516 5.85937C38.5611 5.85937 27.4764 10.4508 19.1395 18.7879C11.1486 26.7787 6.60176 37.2941 6.2377 48.5351L3.30645 48.5351C4.08321 23.2559 24.8871 2.92968 50.3516 2.92968Z" fill="white"/>
<path d="M50.3516 55.8594C53.5824 55.8594 56.2109 53.2309 56.2109 50C56.2109 46.7691 53.5824 44.1406 50.3516 44.1406C47.1207 44.1406 44.4922 46.7691 44.4922 50C44.4922 53.2309 47.1207 55.8594 50.3516 55.8594ZM50.3516 47.0703C51.967 47.0703 53.2812 48.3846 53.2812 50C53.2812 51.6154 51.967 52.9297 50.3516 52.9297C48.7361 52.9297 47.4219 51.6154 47.4219 50C47.4219 48.3846 48.7361 47.0703 50.3516 47.0703Z" fill="white"/>
<path d="M30.7031 55.8594C33.934 55.8594 36.5625 53.2309 36.5625 50C36.5625 46.7691 33.934 44.1406 30.7031 44.1406C27.4723 44.1406 24.8438 46.7691 24.8438 50C24.8438 53.2309 27.4723 55.8594 30.7031 55.8594ZM30.7031 47.0703C32.3186 47.0703 33.6328 48.3846 33.6328 50C33.6328 51.6154 32.3186 52.9297 30.7031 52.9297C29.0877 52.9297 27.7734 51.6154 27.7734 50C27.7734 48.3846 29.0877 47.0703 30.7031 47.0703Z" fill="white"/>
<path d="M70 55.8594C73.2309 55.8594 75.8594 53.2309 75.8594 50C75.8594 46.7691 73.2309 44.1406 70 44.1406C66.7691 44.1406 64.1406 46.7691 64.1406 50C64.1406 53.2309 66.7691 55.8594 70 55.8594ZM70 47.0703C71.6154 47.0703 72.9297 48.3846 72.9297 50C72.9297 51.6154 71.6154 52.9297 70 52.9297C68.3846 52.9297 67.0703 51.6154 67.0703 50C67.0703 48.3846 68.3846 47.0703 70 47.0703Z" fill="white"/>
</svg>
