<svg width="101" height="100" viewBox="0 0 101 100" fill="none" xmlns="http://www.w3.org/2000/svg">
<path d="M85.708 14.6445C76.2641 5.20098 63.708 0 50.3525 0C36.9971 0 24.441 5.20098 14.9971 14.6445C5.55352 24.0883 0.352539 36.6445 0.352539 50C0.352539 63.3555 5.55352 75.9117 14.9971 85.3555C24.441 94.799 36.9971 100 50.3525 100C63.708 100 76.2641 94.799 85.708 85.3555C95.1516 75.9117 100.353 63.3555 100.353 50C100.353 36.6445 95.1516 24.0883 85.708 14.6445ZM50.3525 2.92969C75.817 2.92969 96.6209 23.2559 97.3979 48.5352H94.4666C94.1023 37.2941 89.5555 26.7787 81.5648 18.7879C73.2277 10.4508 62.143 5.85938 50.3525 5.85938C39.6189 5.85938 29.2734 9.7584 21.2217 16.8381C13.2441 23.8525 8.06055 33.483 6.62578 43.9555C6.51602 44.757 7.07676 45.4959 7.87832 45.6057C8.68106 45.7156 9.41875 45.1547 9.52852 44.3533C12.3061 24.0783 29.8568 8.78906 50.3525 8.78906C73.0764 8.78906 91.5635 27.2762 91.5635 50C91.5635 72.7238 73.0764 91.2109 50.3525 91.2109C27.6287 91.2109 9.1416 72.7238 9.1416 50C9.1416 49.1908 8.48574 48.5352 7.67676 48.5352H3.30723C4.08418 23.2559 24.8881 2.92969 50.3525 2.92969ZM50.3525 97.0703C24.8881 97.0703 4.08418 76.7441 3.30723 51.4648H6.23555C6.59941 62.7064 11.1494 73.2211 19.1404 81.2121C27.4773 89.5492 38.5621 94.1406 50.3525 94.1406C62.143 94.1406 73.2277 89.5492 81.5647 81.2121C89.5555 73.2213 94.1023 62.7059 94.4664 51.4648H97.3977C96.6209 76.7441 75.817 97.0703 50.3525 97.0703Z" fill="#0066B2"/>
<path d="M50.3525 55.8594C53.5834 55.8594 56.2119 53.2309 56.2119 50C56.2119 46.7691 53.5834 44.1406 50.3525 44.1406C47.1217 44.1406 44.4932 46.7691 44.4932 50C44.4932 53.2309 47.1217 55.8594 50.3525 55.8594ZM50.3525 47.0703C51.968 47.0703 53.2822 48.3846 53.2822 50C53.2822 51.6154 51.968 52.9297 50.3525 52.9297C48.7371 52.9297 47.4229 51.6154 47.4229 50C47.4229 48.3846 48.7371 47.0703 50.3525 47.0703Z" fill="#0066B2"/>
<path d="M35.7041 55.8594C38.935 55.8594 41.5635 53.2309 41.5635 50C41.5635 46.7691 38.935 44.1406 35.7041 44.1406C32.4732 44.1406 29.8447 46.7691 29.8447 50C29.8447 53.2309 32.4732 55.8594 35.7041 55.8594ZM35.7041 47.0703C37.3195 47.0703 38.6338 48.3846 38.6338 50C38.6338 51.6154 37.3195 52.9297 35.7041 52.9297C34.0887 52.9297 32.7744 51.6154 32.7744 50C32.7744 48.3846 34.0887 47.0703 35.7041 47.0703Z" fill="#0066B2"/>
<path d="M65.001 55.8594C68.2318 55.8594 70.8604 53.2309 70.8604 50C70.8604 46.7691 68.2318 44.1406 65.001 44.1406C61.7701 44.1406 59.1416 46.7691 59.1416 50C59.1416 53.2309 61.7701 55.8594 65.001 55.8594ZM65.001 47.0703C66.6164 47.0703 67.9307 48.3846 67.9307 50C67.9307 51.6154 66.6164 52.9297 65.001 52.9297C63.3855 52.9297 62.0713 51.6154 62.0713 50C62.0713 48.3846 63.3855 47.0703 65.001 47.0703Z" fill="#0066B2"/>
</svg>
