<svg width="22" height="22" viewBox="0 0 22 22" fill="none" xmlns="http://www.w3.org/2000/svg">
<path d="M20.4248 0.5H2.37793C1.58105 0.5 0.924805 1.20312 0.924805 2.04688V20C0.924805 20.8438 1.58105 21.5 2.37793 21.5H20.4248C21.2217 21.5 21.9248 20.8438 21.9248 20V2.04688C21.9248 1.20312 21.2217 0.5 20.4248 0.5ZM7.25293 18.5H4.15918V8.51562H7.25293V18.5ZM5.70605 7.10938C4.6748 7.10938 3.87793 6.3125 3.87793 5.32812C3.87793 4.34375 4.6748 3.5 5.70605 3.5C6.69043 3.5 7.4873 4.34375 7.4873 5.32812C7.4873 6.3125 6.69043 7.10938 5.70605 7.10938ZM18.9248 18.5H15.7842V13.625C15.7842 12.5 15.7842 11 14.1904 11C12.5498 11 12.3154 12.2656 12.3154 13.5781V18.5H9.22168V8.51562H12.1748V9.875H12.2217C12.6436 9.07812 13.6748 8.23438 15.1748 8.23438C18.3154 8.23438 18.9248 10.3438 18.9248 13.0156V18.5Z" fill="white"/>
</svg>
