<svg width="100" height="100" viewBox="0 0 100 100" fill="none" xmlns="http://www.w3.org/2000/svg">
<path d="M95.4895 16.4062H75C74.1905 16.4062 73.5352 17.0616 73.5352 17.8711C73.5352 18.6806 74.1905 19.3359 75 19.3359H95.4895C96.3615 19.3359 97.0703 20.0447 97.0703 20.9167V77.3254C97.0703 78.1975 96.3615 78.9062 95.4895 78.9062H4.5105C3.63846 78.9062 2.92969 78.1975 2.92969 77.3254V20.9167C2.92969 20.0447 3.63846 19.3359 4.5105 19.3359H36.6943V22.2656H7.32422C6.51474 22.2656 5.85938 22.921 5.85938 23.7305V62.4352C5.85938 63.2439 6.51474 63.9 7.32422 63.9C8.1337 63.9 8.78906 63.2439 8.78906 62.4352V25.1953H36.6943V33.0536L30.423 36.0497C29.9225 36.2892 29.5898 36.8065 29.5898 37.3718V61.261C29.5898 61.8256 29.9141 62.3398 30.423 62.5832L49.3683 71.6347C49.7787 71.8277 50.2419 71.8178 50.6317 71.6347L61.2823 66.5459C62.0125 66.1972 62.3215 65.3221 61.9728 64.5927C61.6241 63.8626 60.7483 63.5536 60.0189 63.9023L51.4648 67.9893V47.3465L67.4805 39.695V60.3378L65.3046 61.377C64.5744 61.7256 64.2654 62.6007 64.6141 63.3301C64.9628 64.0602 65.8379 64.3692 66.5672 64.0205L69.577 62.5832C70.0859 62.3398 70.4102 61.8256 70.4102 61.261V37.3718C70.4102 36.8134 70.0851 36.293 69.577 36.0497L63.3057 33.0536V25.1953H91.2109V73.0469H8.78906V68.6852C8.78906 67.8757 8.1337 67.2203 7.32422 67.2203C6.51474 67.2203 5.85938 67.8757 5.85938 68.6852V74.5117C5.85938 75.3212 6.51474 75.9766 7.32422 75.9766H92.6758C93.4853 75.9766 94.1406 75.3212 94.1406 74.5117V23.7305C94.1406 22.921 93.4853 22.2656 92.6758 22.2656H63.3057V19.3359H68.75C69.5595 19.3359 70.2148 18.6806 70.2148 17.8711C70.2148 17.0616 69.5595 16.4062 68.75 16.4062H63.3057V13.4766H76.4404C77.2499 13.4766 77.9053 12.8212 77.9053 12.0117V8.53729C79.6104 7.93228 80.835 6.30417 80.835 4.39453C80.835 1.97144 78.8635 0 76.4404 0C74.0173 0 72.0459 1.97144 72.0459 4.39453C72.0459 6.30417 73.2704 7.93228 74.9756 8.53729V10.5469H61.8408C61.0313 10.5469 60.376 11.2022 60.376 12.0117V16.4062H51.4648V8.53729C53.17 7.93228 54.3945 6.30417 54.3945 4.39453C54.3945 1.97144 52.4231 0 50 0C47.5769 0 45.6055 1.97144 45.6055 4.39453C45.6055 6.30417 46.83 7.93228 48.5352 8.53729V16.4062H39.624V12.0117C39.624 11.2022 38.9687 10.5469 38.1592 10.5469H25.0244V8.53729C26.7296 7.93228 27.9541 6.30417 27.9541 4.39453C27.9541 1.97144 25.9827 0 23.5596 0C21.1365 0 19.165 1.97144 19.165 4.39453C19.165 6.30417 20.3896 7.93228 22.0947 8.53729V12.0117C22.0947 12.8212 22.7501 13.4766 23.5596 13.4766H36.6943V16.4062H4.5105C2.02332 16.4062 0 18.4296 0 20.9167V77.3254C0 79.8126 2.02332 81.8359 4.5105 81.8359H36.2686C35.7018 87.2093 32.1487 90.3473 31.0287 91.2109H24.8047C22.3816 91.2109 20.4102 93.1824 20.4102 95.6055C20.4102 98.0286 22.3816 100 24.8047 100H75.1953C77.6184 100 79.5898 98.0286 79.5898 95.6055C79.5898 93.1824 77.6184 91.2109 75.1953 91.2109H68.9751C67.8696 90.3503 64.3044 87.1841 63.7329 81.8359H95.4895C97.9767 81.8359 100 79.8126 100 77.3254V20.9167C100 18.4296 97.9767 16.4062 95.4895 16.4062ZM76.4404 2.92969C77.2484 2.92969 77.9053 3.58658 77.9053 4.39453C77.9053 5.20248 77.2484 5.85938 76.4404 5.85938C75.6325 5.85938 74.9756 5.20248 74.9756 4.39453C74.9756 3.58658 75.6325 2.92969 76.4404 2.92969ZM50 2.92969C50.808 2.92969 51.4648 3.58658 51.4648 4.39453C51.4648 5.20248 50.808 5.85938 50 5.85938C49.192 5.85938 48.5352 5.20248 48.5352 4.39453C48.5352 3.58658 49.192 2.92969 50 2.92969ZM23.5596 2.92969C24.3675 2.92969 25.0244 3.58658 25.0244 4.39453C25.0244 5.20248 24.3675 5.85938 23.5596 5.85938C22.7516 5.85938 22.0947 5.20248 22.0947 4.39453C22.0947 3.58658 22.7516 2.92969 23.5596 2.92969ZM39.624 25.1953H48.5352V27.3964L39.624 31.6544V25.1953ZM65.5472 37.3718L50 44.799L34.4528 37.3718L50 29.9438L65.5472 37.3718ZM32.5195 39.695L48.5352 47.3465V67.9893L32.5195 60.3378V39.695ZM60.376 31.6544L51.4648 27.3964V25.1953H60.376V31.6544ZM60.376 19.3359V22.2656H51.4648V19.3359H60.376ZM48.5352 19.3359V22.2656H39.624V19.3359H48.5352ZM76.6602 95.6055C76.6602 96.4134 76.0033 97.0703 75.1953 97.0703H24.8047C23.9967 97.0703 23.3398 96.4134 23.3398 95.6055C23.3398 94.7975 23.9967 94.1406 24.8047 94.1406H75.1953C76.0033 94.1406 76.6602 94.7975 76.6602 95.6055ZM64.7736 91.2109H35.2264C36.9438 89.2052 38.8489 86.0794 39.2143 81.8359H60.7857C61.1511 86.0794 63.0562 89.2052 64.7736 91.2109Z" fill="#0066B2"/>
</svg>
