<svg width="100" height="100" viewBox="0 0 100 100" fill="none" xmlns="http://www.w3.org/2000/svg">
<g clip-path="url(#clip0_17880_13802)">
<path d="M17.8323 13.521C17.8323 10.8118 15.6289 8.6084 12.9197 8.6084C10.2105 8.6084 8.00635 10.8118 8.00635 13.521C8.00635 16.2302 10.2105 18.4336 12.9197 18.4336C15.6281 18.4336 17.8323 16.2302 17.8323 13.521ZM10.936 13.521C10.936 12.4277 11.8264 11.5381 12.9197 11.5381C14.013 11.5381 14.9026 12.4277 14.9026 13.521C14.9026 14.6143 14.013 15.5039 12.9197 15.5039C11.8264 15.5039 10.936 14.6143 10.936 13.521Z" fill="#0066B2"/>
<path d="M24.5918 18.4336C27.301 18.4336 29.5051 16.2302 29.5051 13.521C29.5051 10.8118 27.301 8.6084 24.5918 8.6084C21.8826 8.6084 19.6792 10.8118 19.6792 13.521C19.6792 16.2302 21.8826 18.4336 24.5918 18.4336ZM24.5918 11.5381C25.6858 11.5381 26.5754 12.4277 26.5754 13.521C26.5754 14.6143 25.6851 15.5039 24.5918 15.5039C23.4985 15.5039 22.6089 14.6143 22.6089 13.521C22.6089 12.4277 23.4985 11.5381 24.5918 11.5381Z" fill="#0066B2"/>
<path d="M36.2644 18.4336C38.9729 18.4336 41.177 16.2302 41.177 13.521C41.177 10.8118 38.9729 8.6084 36.2644 8.6084C33.5552 8.6084 31.3511 10.8118 31.3511 13.521C31.3511 16.2302 33.5552 18.4336 36.2644 18.4336ZM36.2644 11.5381C37.3577 11.5381 38.2473 12.4277 38.2473 13.521C38.2473 14.6143 37.3577 15.5039 36.2644 15.5039C35.1704 15.5039 34.2808 14.6143 34.2808 13.521C34.2808 12.4277 35.1704 11.5381 36.2644 11.5381Z" fill="#0066B2"/>
<path d="M52.4727 14.9863H88.1493C88.9588 14.9863 89.6141 14.331 89.6141 13.5215C89.6141 12.712 88.9588 12.0566 88.1493 12.0566H52.4727C51.6632 12.0566 51.0078 12.712 51.0078 13.5215C51.0078 14.331 51.6632 14.9863 52.4727 14.9863Z" fill="#0066B2"/>
<path d="M93.6899 3.32031H5.92265C2.55045 3.32031 -0.193848 6.06385 -0.193848 9.43681V90.9311C-0.193848 94.3033 2.55045 97.0476 5.92265 97.0476H93.6899C97.0621 97.0476 99.8064 94.3033 99.8064 90.9311V9.43681C99.8064 6.06385 97.0621 3.32031 93.6899 3.32031ZM93.6899 94.1179H5.92265C4.1656 94.1179 2.73585 92.6882 2.73585 90.9311V23.7229H10.9016C11.7111 23.7229 12.3665 23.0675 12.3665 22.258C12.3665 21.4493 11.7111 20.7932 10.9016 20.7932H2.73585V9.43681C2.73585 7.67976 4.1656 6.25001 5.92265 6.25001H93.6899C95.4469 6.25001 96.8767 7.67976 96.8767 9.43681V20.7932H16.3704C15.5617 20.7932 14.9055 21.4493 14.9055 22.258C14.9055 23.0675 15.5617 23.7229 16.3704 23.7229H96.8767V90.9311C96.8767 92.6882 95.4469 94.1179 93.6899 94.1179Z" fill="#0066B2"/>
<path d="M82.6943 27.375H69.8922C67.3348 27.375 65.2543 29.4555 65.2543 32.0129V33.7852C63.752 34.2621 62.5641 35.4507 62.0888 36.9537L39.209 37.0399C38.7322 35.5415 37.5458 34.3567 36.0466 33.8806V32.109C36.0466 29.5517 33.9661 27.4711 31.4087 27.4711H18.6073C16.0499 27.4711 13.9694 29.5517 13.9694 32.109V44.9104C13.9694 47.4678 16.0499 49.5476 18.6073 49.5476H20.3789C20.8549 51.049 22.0421 52.2362 23.5435 52.7123V58.6975C23.5435 61.7859 26.0559 64.2983 29.1443 64.2983H42.9428C43.4189 65.799 44.606 66.9861 46.1067 67.4622V69.3352C46.1067 71.8369 48.1423 73.8724 50.6439 73.8724H52.6284C53.0495 75.3403 54.1466 76.5244 55.5596 77.0669C55.1384 77.9061 54.2702 78.4829 53.27 78.4829H37.6236C37.2444 76.7945 35.9833 75.4364 34.3521 74.9184V73.1461C34.3521 70.5887 32.2716 68.5082 29.7142 68.5082H16.9121C14.3554 68.5082 12.2749 70.5887 12.2749 73.1461V85.9482C12.2749 88.5056 14.3554 90.5854 16.9121 90.5854H29.7142C32.2716 90.5854 34.3521 88.5056 34.3521 85.9482V84.1759C35.7163 83.7426 36.8218 82.7225 37.3688 81.4126H53.27C55.8548 81.4126 58.0284 79.6166 58.6083 77.2072C60.2227 76.7533 61.4991 75.483 61.9622 73.8724H63.6467C66.1492 73.8724 68.1839 71.8369 68.1839 69.3352V65.4816C68.1839 64.6721 67.5286 64.0168 66.7191 64.0168C65.9104 64.0168 65.2543 64.6721 65.2543 65.4816V69.3352C65.2543 70.2217 64.5333 70.9427 63.6467 70.9427H61.8821C60.3592 66.5726 54.2115 66.6069 52.7077 70.9427H50.6439C49.7574 70.9427 49.0364 70.2217 49.0364 69.3352V67.4622C49.3492 67.363 49.6445 67.2356 49.9329 67.0746C49.9535 67.054 52.4262 65.8051 52.4262 62.8334C52.4262 60.7285 51.062 58.8509 49.0364 58.2047V56.3324C49.0364 55.4459 49.7574 54.7249 50.6439 54.7249H63.6467C64.5333 54.7249 65.2543 55.4459 65.2543 56.3324V60.186C65.2543 60.9947 65.9104 61.6509 66.7191 61.6509C67.5286 61.6509 68.1839 60.9947 68.1839 60.186V56.3324C68.1839 53.8307 66.1484 51.7952 63.6467 51.7952H50.6439C48.1423 51.7952 46.1067 53.8307 46.1067 56.3324V58.2047C44.606 58.6807 43.4189 59.8679 42.9428 61.3686H29.145C27.6718 61.3686 26.4732 60.17 26.4732 58.6975V52.7123C27.9739 52.2362 29.1611 51.049 29.6371 49.5476H31.4095C33.9661 49.5476 36.0466 47.4678 36.0466 44.9104V43.1381C37.5496 42.6613 38.7375 41.4726 39.212 39.9696L62.0919 39.8834C62.5687 41.3818 63.7551 42.5674 65.2543 43.0427V44.8151C65.2543 47.3724 67.3348 49.453 69.8922 49.453H82.6943C85.2509 49.453 87.3315 47.3724 87.3315 44.8151V32.0129C87.3315 29.4555 85.2509 27.375 82.6943 27.375ZM32.8873 81.4721C31.8253 81.4721 30.9624 80.6084 30.9624 79.5472C30.9624 78.4859 31.826 77.6223 32.8873 77.6223C33.9485 77.6223 34.8122 78.4859 34.8122 79.5472C34.8122 80.6084 33.9485 81.4721 32.8873 81.4721ZM31.4224 85.9482C31.4224 86.8897 30.6564 87.6557 29.7142 87.6557H16.9121C15.9706 87.6557 15.2046 86.8897 15.2046 85.9482V73.1461C15.2046 72.2039 15.9706 71.4379 16.9121 71.4379H29.7142C30.6564 71.4379 31.4224 72.2039 31.4224 73.1461V74.9184C26.8799 76.3657 26.9325 82.7447 31.4224 84.1759V85.9482ZM59.2194 72.5419C59.2148 73.5993 58.3535 74.4576 57.2945 74.4576C56.2363 74.4576 55.3749 73.5993 55.3704 72.5419C55.6115 69.8983 58.9882 70.0097 59.2194 72.5419ZM47.8638 60.9307C48.7869 61.0726 49.4965 61.8721 49.4965 62.8334C49.4965 63.897 48.6313 64.7583 47.5716 64.7583C46.5096 64.7583 45.6467 63.8947 45.6467 62.8334C45.6467 61.6593 46.6957 60.7521 47.8638 60.9307ZM34.5818 40.4343C33.5205 40.4343 32.6569 39.5706 32.6569 38.5094C32.6569 37.4481 33.5205 36.5845 34.5818 36.5845C35.643 36.5845 36.5067 37.4481 36.5067 38.5094C36.5067 39.5706 35.6438 40.4343 34.5818 40.4343ZM25.0084 50.0084C23.8411 50.0084 22.9256 48.967 23.1056 47.7905C23.2468 46.8674 24.0463 46.1586 25.0084 46.1586C26.0689 46.1586 26.9333 47.0207 26.9333 48.0827C26.9333 49.1447 26.0696 50.0084 25.0084 50.0084ZM33.1169 44.9104C33.1169 45.8519 32.3509 46.6179 31.4087 46.6179H29.6371C28.8757 44.2398 26.4564 42.8322 24.0349 43.3266C24.0143 43.3372 21.2906 43.7698 20.3796 46.6179H18.6073C17.6651 46.6179 16.8991 45.8519 16.8991 44.9104V32.1083C16.8991 31.1668 17.6651 30.4001 18.6073 30.4001H31.4095C32.3509 30.4001 33.1169 31.1668 33.1169 32.1083V33.8806C31.0623 34.5352 29.6226 36.4967 29.7333 38.7543C29.7417 38.7741 29.7623 42.0685 33.1169 43.1381V44.9104ZM66.7191 36.4891C67.7781 36.4891 68.644 37.3504 68.644 38.414C68.644 39.4791 67.7765 40.3389 66.7191 40.3389C65.6579 40.3389 64.7942 39.4752 64.7942 38.414C64.7942 37.3527 65.6579 36.4891 66.7191 36.4891ZM84.4018 44.8151C84.4018 45.7565 83.6358 46.5233 82.6943 46.5233H69.8922C68.9499 46.5233 68.1839 45.7565 68.1839 44.8151V43.0427C70.2775 42.3759 71.6805 40.3862 71.5676 38.1653V38.1645C71.4661 36.1503 70.1142 34.4002 68.1839 33.7852V32.0129C68.1839 31.0714 68.9499 30.3055 69.8922 30.3055H82.6943C83.6358 30.3055 84.4018 31.0714 84.4018 32.0129V44.8151Z" fill="#0066B2"/>
</g>
<defs>
<clipPath id="clip0_17880_13802">
<rect width="100" height="100" fill="white"/>
</clipPath>
</defs>
</svg>
