<svg xmlns="http://www.w3.org/2000/svg" width="94" height="40" viewBox="0 0 94 40" fill="none"><path d="M42.5353 31.2277C42.3919 31.1847 42.2772 31.1584 42.1912 31.1488C42.1099 31.1345 42.0047 31.1273 41.8757 31.1273C41.6271 31.1273 41.4001 31.1679 41.1945 31.2492C40.9938 31.3257 40.8193 31.4356 40.6712 31.579C40.5278 31.7224 40.4154 31.8945 40.3342 32.0952C40.2577 32.296 40.2195 32.5206 40.2195 32.7692C40.2195 33.1372 40.315 33.4312 40.5062 33.6511C40.7022 33.8662 40.9627 33.9737 41.2878 33.9737C41.7323 33.9737 42.0597 33.7706 42.27 33.3643C42.3561 33.2066 42.4134 33.0417 42.4421 32.8696C42.4517 32.7979 42.4588 32.7286 42.4636 32.6617C42.4732 32.59 42.4803 32.5039 42.4851 32.4035C42.4947 32.2984 42.5018 32.1741 42.5066 32.0307C42.5114 31.8825 42.5186 31.6985 42.5281 31.4786L42.5353 31.2277ZM43.1878 29.8941C43.1782 30.0375 43.1686 30.1881 43.1591 30.3458C43.1543 30.4988 43.1471 30.6804 43.1376 30.8907C43.128 31.0962 43.1161 31.3424 43.1017 31.6292C43.0922 31.9112 43.0802 32.2554 43.0659 32.6617C43.0611 32.8385 43.0563 32.9962 43.0515 33.1349C43.0467 33.2735 43.042 33.3978 43.0372 33.5077C43.0372 33.6176 43.0372 33.7204 43.0372 33.816C43.0372 33.9068 43.0372 33.9952 43.0372 34.0813V34.3394H42.9512C42.9081 34.3394 42.8699 34.3394 42.8364 34.3394C42.803 34.3346 42.7743 34.3322 42.7504 34.3322C42.7265 34.3322 42.6954 34.3346 42.6572 34.3394C42.6237 34.3394 42.5855 34.3394 42.5425 34.3394H42.4493L42.4923 33.5794C42.4684 33.6224 42.4445 33.663 42.4206 33.7013C42.3967 33.7395 42.3728 33.7754 42.3489 33.8088C42.2198 34.0096 42.0525 34.1625 41.847 34.2677C41.6415 34.3681 41.4073 34.4183 41.1444 34.4183C40.9149 34.4183 40.7046 34.38 40.5134 34.3035C40.327 34.2271 40.1669 34.1171 40.033 33.9737C39.904 33.8303 39.8012 33.6606 39.7247 33.4647C39.653 33.2639 39.6172 33.0417 39.6172 32.7979C39.6172 32.4776 39.6674 32.1908 39.7678 31.9375C39.8729 31.6794 40.0187 31.4595 40.2051 31.2779C40.3963 31.0962 40.6257 30.9576 40.8934 30.862C41.1611 30.7617 41.4598 30.7115 41.7896 30.7115C41.8566 30.7115 41.9163 30.7139 41.9689 30.7186C42.0262 30.7186 42.0836 30.721 42.141 30.7258C42.1983 30.7306 42.2581 30.7378 42.3202 30.7473C42.3871 30.7569 42.466 30.7688 42.5568 30.7832C42.5664 30.6254 42.5712 30.494 42.5712 30.3888C42.5759 30.2789 42.5783 30.1546 42.5783 30.016V29.7507L42.5712 29.5571L42.6715 29.5643H42.901H43.1232L43.2093 29.5571L43.1878 29.8941Z" fill="#616161"></path><path d="M44.7944 30.7903C44.7849 30.8764 44.7777 30.9528 44.7729 31.0198C44.7729 31.0819 44.7705 31.1345 44.7658 31.1775C44.7514 31.3639 44.7371 31.5814 44.7227 31.83C44.7132 32.0737 44.7036 32.3271 44.6941 32.59C44.6845 32.8481 44.6749 33.1038 44.6654 33.3571C44.6606 33.6057 44.6582 33.8255 44.6582 34.0167V34.3394H44.5578C44.5148 34.3394 44.4742 34.3394 44.4359 34.3394C44.4025 34.3346 44.369 34.3322 44.3356 34.3322C44.3117 34.3322 44.2806 34.3346 44.2424 34.3394C44.2041 34.3394 44.1587 34.3394 44.1061 34.3394H44.0058C44.0153 34.2486 44.0201 34.1697 44.0201 34.1028C44.0249 34.0359 44.0297 33.9785 44.0344 33.9307C44.044 33.7682 44.0559 33.5674 44.0703 33.3284C44.0846 33.0894 44.0966 32.8098 44.1061 32.4896C44.1205 32.1598 44.1324 31.873 44.142 31.6292C44.1515 31.3854 44.1563 31.1799 44.1563 31.0126V30.7903H44.2567C44.3045 30.7903 44.3451 30.7927 44.3786 30.7975C44.4168 30.7975 44.4479 30.7975 44.4718 30.7975C44.4957 30.7975 44.5244 30.7975 44.5578 30.7975C44.5961 30.7927 44.6415 30.7903 44.6941 30.7903H44.7944ZM44.8375 29.6217V29.7794L44.8303 29.93L44.8231 30.0303H44.7442C44.706 30.0256 44.6654 30.0232 44.6224 30.0232C44.5793 30.0232 44.5387 30.0232 44.5005 30.0232C44.4622 30.0232 44.4216 30.0256 44.3786 30.0303C44.3356 30.0303 44.2925 30.0303 44.2495 30.0303H44.1563L44.1635 29.9156C44.1683 29.8726 44.1707 29.8224 44.1707 29.765C44.1707 29.7077 44.1707 29.6599 44.1707 29.6217V29.5356C44.2519 29.5356 44.3141 29.538 44.3571 29.5428C44.4049 29.5428 44.4622 29.5428 44.5291 29.5428C44.5961 29.5428 44.6486 29.5428 44.6869 29.5428C44.7251 29.538 44.7777 29.5356 44.8446 29.5356L44.8375 29.6217Z" fill="#616161"></path><path d="M48.5222 31.2349C48.3549 31.2014 48.2211 31.1799 48.1207 31.1703C48.0251 31.1608 47.9128 31.156 47.7837 31.156C47.5113 31.156 47.2747 31.1918 47.0739 31.2635C46.8779 31.3305 46.7058 31.438 46.5577 31.5862C46.4143 31.7296 46.3019 31.9088 46.2207 32.1239C46.1394 32.3342 46.0988 32.5565 46.0988 32.7907C46.0988 33.1635 46.1944 33.4551 46.3856 33.6654C46.5768 33.871 46.8445 33.9737 47.1886 33.9737C47.6188 33.9737 47.9486 33.7993 48.178 33.4503C48.2354 33.3595 48.2832 33.2687 48.3214 33.1779C48.3597 33.0871 48.3908 32.9747 48.4147 32.8409C48.4385 32.7023 48.4553 32.535 48.4648 32.339C48.4792 32.1383 48.4935 31.8825 48.5079 31.5718L48.5222 31.2349ZM49.146 30.8549C49.1364 30.9361 49.1292 31.0078 49.1245 31.07C49.1245 31.1321 49.1221 31.1847 49.1173 31.2277C49.103 31.3759 49.0814 31.7105 49.0528 32.2315C49.0384 32.5278 49.0265 32.7716 49.0169 32.9628C49.0121 33.1492 49.0074 33.2854 49.0026 33.3715L48.9739 34.5616C48.9643 35.0731 48.8186 35.4459 48.5365 35.6801C48.2593 35.9191 47.8315 36.0386 47.2531 36.0386C47.1623 36.0386 47.0715 36.0362 46.9807 36.0315C46.8947 36.0267 46.8062 36.0195 46.7154 36.01C46.6389 36.0052 46.5696 35.998 46.5075 35.9884C46.4453 35.9837 46.3808 35.9741 46.3139 35.9598C46.2518 35.9502 46.1848 35.9383 46.1131 35.9239C46.0414 35.9096 45.9578 35.8905 45.8622 35.8666L45.855 35.7949C45.8502 35.7471 45.8479 35.7088 45.8479 35.6801C45.8479 35.6515 45.8479 35.6323 45.8479 35.6228C45.8479 35.6132 45.8455 35.5941 45.8407 35.5654C45.8407 35.5367 45.8383 35.4961 45.8335 35.4435L45.8263 35.3647C45.8933 35.3838 45.9482 35.4005 45.9913 35.4149C46.0391 35.4292 46.0821 35.4411 46.1203 35.4507C46.4979 35.5511 46.8421 35.6013 47.1528 35.6013C47.4109 35.6013 47.6331 35.5606 47.8196 35.4794C48.006 35.3981 48.1398 35.2834 48.2211 35.1352C48.2545 35.0731 48.2832 35.0062 48.3071 34.9345C48.331 34.8628 48.3501 34.772 48.3645 34.662C48.3788 34.5521 48.3884 34.4135 48.3931 34.2462C48.4027 34.0741 48.4123 33.8566 48.4218 33.5937C48.3692 33.6941 48.3214 33.7754 48.2784 33.8375C48.1541 34.0191 47.9821 34.1601 47.7622 34.2605C47.5423 34.3561 47.2938 34.4039 47.0165 34.4039C46.5433 34.4039 46.1705 34.2653 45.898 33.9881C45.6304 33.7108 45.4965 33.3261 45.4965 32.8337C45.4965 32.5087 45.5491 32.2147 45.6543 31.9518C45.7642 31.6889 45.9172 31.4667 46.1131 31.285C46.3139 31.0986 46.5553 30.9576 46.8373 30.862C47.1193 30.7617 47.4372 30.7115 47.7909 30.7115C47.9964 30.7115 48.2211 30.7258 48.4648 30.7545C48.5174 30.7593 48.5676 30.7664 48.6154 30.776C48.6632 30.7808 48.711 30.7879 48.7588 30.7975C48.8114 30.8023 48.8687 30.8095 48.9309 30.819C48.993 30.8286 49.0647 30.8405 49.146 30.8549Z" fill="#616161"></path><path d="M50.7438 30.7903C50.7342 30.8764 50.7271 30.9528 50.7223 31.0198C50.7223 31.0819 50.7199 31.1345 50.7151 31.1775C50.7008 31.3639 50.6864 31.5814 50.6721 31.83C50.6625 32.0737 50.653 32.3271 50.6434 32.59C50.6339 32.8481 50.6243 33.1038 50.6147 33.3571C50.61 33.6057 50.6076 33.8255 50.6076 34.0167V34.3394H50.5072C50.4642 34.3394 50.4235 34.3394 50.3853 34.3394C50.3518 34.3346 50.3184 34.3322 50.2849 34.3322C50.261 34.3322 50.23 34.3346 50.1917 34.3394C50.1535 34.3394 50.1081 34.3394 50.0555 34.3394H49.9551C49.9647 34.2486 49.9695 34.1697 49.9695 34.1028C49.9742 34.0359 49.979 33.9785 49.9838 33.9307C49.9934 33.7682 50.0053 33.5674 50.0196 33.3284C50.034 33.0894 50.0459 32.8098 50.0555 32.4896C50.0698 32.1598 50.0818 31.873 50.0913 31.6292C50.1009 31.3854 50.1057 31.1799 50.1057 31.0126V30.7903H50.2061C50.2539 30.7903 50.2945 30.7927 50.328 30.7975C50.3662 30.7975 50.3973 30.7975 50.4212 30.7975C50.4451 30.7975 50.4737 30.7975 50.5072 30.7975C50.5454 30.7927 50.5908 30.7903 50.6434 30.7903H50.7438ZM50.7868 29.6217V29.7794L50.7796 29.93L50.7725 30.0303H50.6936C50.6554 30.0256 50.6147 30.0232 50.5717 30.0232C50.5287 30.0232 50.4881 30.0232 50.4498 30.0232C50.4116 30.0232 50.371 30.0256 50.328 30.0303C50.2849 30.0303 50.2419 30.0303 50.1989 30.0303H50.1057L50.1129 29.9156C50.1176 29.8726 50.12 29.8224 50.12 29.765C50.12 29.7077 50.12 29.6599 50.12 29.6217V29.5356C50.2013 29.5356 50.2634 29.538 50.3064 29.5428C50.3542 29.5428 50.4116 29.5428 50.4785 29.5428C50.5454 29.5428 50.598 29.5428 50.6363 29.5428C50.6745 29.538 50.7271 29.5356 50.794 29.5356L50.7868 29.6217Z" fill="#616161"></path><path d="M53.4176 30.8047C53.408 30.8907 53.4009 30.9624 53.3961 31.0198C53.3961 31.0771 53.3961 31.1464 53.3961 31.2277H52.421L52.4138 31.45L52.378 32.1526L52.3565 32.4752C52.3469 32.6473 52.3397 32.8027 52.335 32.9413C52.3302 33.0799 52.3278 33.2042 52.3278 33.3141V33.35C52.3278 33.5698 52.3636 33.73 52.4353 33.8303C52.5118 33.9259 52.6337 33.9737 52.801 33.9737C52.8775 33.9737 52.9492 33.9666 53.0161 33.9522C53.0878 33.9379 53.1953 33.9116 53.3387 33.8733C53.3244 33.945 53.3124 34.0072 53.3029 34.0598C53.2981 34.1076 53.2885 34.1721 53.2742 34.2533L53.2599 34.3322C53.1834 34.3513 53.1165 34.3657 53.0591 34.3752C53.0065 34.3848 52.954 34.392 52.9014 34.3967C52.8536 34.4063 52.8058 34.4111 52.758 34.4111C52.7102 34.4159 52.6576 34.4183 52.6002 34.4183C52.2943 34.4183 52.0697 34.3537 51.9263 34.2247C51.7877 34.0956 51.7184 33.8925 51.7184 33.6152C51.7184 33.577 51.7184 33.5316 51.7184 33.479C51.7231 33.4264 51.7279 33.3643 51.7327 33.2926L51.7757 32.5111L51.7972 32.1526L51.8331 31.4715L51.8402 31.2277H51.3742C51.3838 31.1608 51.3862 31.1082 51.3814 31.07C51.3814 31.0269 51.3862 30.9648 51.3957 30.8835L51.4029 30.8047H51.8761C51.8857 30.7091 51.8904 30.635 51.8904 30.5824C51.8952 30.525 51.9 30.4414 51.9048 30.3315L51.9119 30.1379L52.0051 30.1164C52.0577 30.102 52.1007 30.0925 52.1342 30.0877C52.1724 30.0781 52.2083 30.071 52.2418 30.0662C52.2752 30.0614 52.3087 30.0566 52.3421 30.0518C52.3804 30.0423 52.4234 30.0327 52.4712 30.0232L52.464 30.1737L52.4497 30.4032L52.4425 30.6326V30.8047H53.4176Z" fill="#616161"></path><path d="M56.8276 31.6149C56.8276 31.8156 56.8133 32.1478 56.7846 32.6115C56.775 32.7118 56.7679 32.8289 56.7631 32.9628C56.7583 33.0918 56.7511 33.2352 56.7416 33.393C56.7368 33.5029 56.732 33.5961 56.7272 33.6726C56.7272 33.7491 56.7248 33.8208 56.7201 33.8877C56.7201 33.9546 56.7201 34.0239 56.7201 34.0956C56.7201 34.1625 56.7201 34.2438 56.7201 34.3394H56.634C56.5958 34.3346 56.5575 34.3322 56.5193 34.3322C56.4858 34.3322 56.45 34.3322 56.4118 34.3322C56.3783 34.3322 56.3424 34.3346 56.3042 34.3394C56.266 34.3394 56.2253 34.3394 56.1823 34.3394H56.0963C56.1058 34.2151 56.1154 34.1076 56.125 34.0167C56.1345 33.9259 56.1417 33.8399 56.1465 33.7586C56.1512 33.6774 56.156 33.5985 56.1608 33.522C56.1656 33.4408 56.1704 33.35 56.1751 33.2496L56.2038 32.5254L56.2182 32.253C56.1608 32.296 56.1082 32.3342 56.0604 32.3677C56.0174 32.3964 55.972 32.4227 55.9242 32.4466C55.8812 32.4657 55.831 32.4848 55.7736 32.5039C55.7163 32.523 55.647 32.5445 55.5657 32.5684L55.2072 32.6688C54.8392 32.774 54.5763 32.8887 54.4185 33.013C54.2656 33.1325 54.1891 33.2854 54.1891 33.4718C54.1891 33.6583 54.2584 33.8016 54.397 33.902C54.5404 34.0024 54.7436 34.0526 55.0065 34.0526C55.0686 34.0526 55.126 34.0502 55.1785 34.0454C55.2311 34.0406 55.2837 34.0335 55.3363 34.0239C55.3936 34.0144 55.4534 34.0024 55.5155 33.9881C55.5777 33.9689 55.6494 33.9474 55.7306 33.9235C55.7115 33.9809 55.6948 34.0359 55.6804 34.0884C55.6661 34.1362 55.6494 34.2008 55.6302 34.282L55.6159 34.3466C55.5346 34.3609 55.4629 34.3728 55.4008 34.3824C55.3387 34.392 55.2789 34.3991 55.2216 34.4039C55.169 34.4087 55.114 34.4111 55.0567 34.4111C54.9993 34.4159 54.9348 34.4183 54.8631 34.4183C54.0314 34.4183 53.6155 34.1004 53.6155 33.4647C53.6155 33.2066 53.7111 32.9891 53.9023 32.8122C53.9692 32.7501 54.0433 32.6951 54.1246 32.6473C54.2058 32.5947 54.3038 32.5469 54.4185 32.5039C54.5333 32.4561 54.6695 32.4107 54.8272 32.3677C54.985 32.3199 55.1785 32.2697 55.408 32.2171C55.6996 32.1502 55.9075 32.0666 56.0318 31.9662C56.1608 31.8658 56.2253 31.7391 56.2253 31.5862C56.2253 31.4284 56.1536 31.3066 56.0102 31.2205C55.8668 31.1297 55.6661 31.0843 55.408 31.0843C55.3315 31.0843 55.255 31.0867 55.1785 31.0915C55.1021 31.0962 55.0232 31.1034 54.9419 31.113C54.8607 31.1273 54.789 31.1417 54.7268 31.156C54.6647 31.1656 54.6002 31.1799 54.5333 31.199C54.4711 31.2181 54.4042 31.2396 54.3325 31.2635C54.2608 31.2874 54.1772 31.3185 54.0816 31.3567C54.0863 31.3376 54.0887 31.3233 54.0887 31.3137C54.0887 31.2994 54.0911 31.2874 54.0959 31.2779C54.1007 31.254 54.1031 31.2301 54.1031 31.2062C54.1079 31.1775 54.1126 31.1512 54.1174 31.1273C54.127 31.1178 54.1341 31.0652 54.1389 30.9696L54.1461 30.8979C54.213 30.8835 54.268 30.8716 54.311 30.862C54.3588 30.8525 54.3994 30.8429 54.4329 30.8334C54.8009 30.7521 55.1475 30.7115 55.4725 30.7115C55.9362 30.7115 56.2779 30.7856 56.4978 30.9337C56.7177 31.0819 56.8276 31.3089 56.8276 31.6149Z" fill="#616161"></path><path d="M58.5094 29.9156C58.4998 30.0972 58.4903 30.2693 58.4807 30.4318C58.4712 30.5896 58.4616 30.7688 58.452 30.9696C58.4425 31.1656 58.4305 31.3974 58.4162 31.665C58.4066 31.9279 58.3947 32.253 58.3803 32.6401C58.3708 32.9461 58.3612 33.2089 58.3517 33.4288C58.3469 33.6487 58.3421 33.8279 58.3373 33.9666L58.3301 34.3394H58.2441C58.2011 34.3394 58.1605 34.3394 58.1222 34.3394C58.0888 34.3346 58.0577 34.3322 58.029 34.3322C58.0147 34.3322 57.9884 34.3346 57.9501 34.3394C57.9119 34.3394 57.8593 34.3394 57.7924 34.3394H57.692L57.7135 33.9522C57.7231 33.7897 57.7327 33.6009 57.7422 33.3858C57.7566 33.1659 57.7709 32.915 57.7852 32.633C57.7996 32.3271 57.8115 32.0474 57.8211 31.7941C57.8354 31.5408 57.845 31.3066 57.8498 31.0915C57.8593 30.8764 57.8665 30.6732 57.8713 30.482C57.8761 30.2908 57.8808 30.0996 57.8856 29.9084L57.8928 29.5571L58.0003 29.5643H58.2154H58.4377L58.5309 29.5571L58.5094 29.9156Z" fill="#616161"></path><path d="M64.032 32.4752C64.032 32.0546 63.9269 31.7296 63.7166 31.5001C63.511 31.2659 63.2219 31.1488 62.849 31.1488C62.7821 31.1488 62.7152 31.1536 62.6483 31.1632C62.5814 31.1679 62.512 31.1751 62.4403 31.1847C62.3304 31.2038 62.2348 31.2229 62.1536 31.242C62.0771 31.2611 61.9695 31.2946 61.8309 31.3424C61.8166 31.438 61.8094 31.5073 61.8094 31.5503C61.8046 31.6029 61.7998 31.6722 61.7951 31.7583C61.7903 31.8443 61.7855 31.9518 61.7807 32.0809C61.7664 32.3677 61.7592 32.5708 61.7592 32.6903C61.7592 32.9198 61.7831 33.1086 61.8309 33.2567C61.8835 33.4049 61.9671 33.5388 62.0819 33.6583C62.1822 33.7634 62.3017 33.8447 62.4403 33.902C62.579 33.9594 62.7224 33.9881 62.8705 33.9881C63.0426 33.9881 63.2003 33.9522 63.3437 33.8805C63.4871 33.804 63.609 33.7013 63.7094 33.5722C63.8098 33.4384 63.8886 33.2783 63.946 33.0918C64.0034 32.9054 64.032 32.6999 64.032 32.4752ZM64.6343 32.4896C64.6343 32.7764 64.5937 33.0393 64.5124 33.2783C64.4359 33.5125 64.326 33.7156 64.1826 33.8877C64.0392 34.055 63.8671 34.1864 63.6664 34.282C63.4704 34.3728 63.2529 34.4183 63.0139 34.4183C62.8227 34.4183 62.6411 34.3896 62.469 34.3322C62.383 34.3035 62.3065 34.2725 62.2396 34.239C62.1775 34.2055 62.1177 34.1649 62.0603 34.1171C62.003 34.0693 61.9456 34.012 61.8883 33.945C61.8357 33.8781 61.7783 33.7969 61.7162 33.7013L61.709 34.0311L61.6875 34.7409L61.6588 35.5726V35.9167H61.3505H61.1283H61.0279C61.0422 35.7351 61.0542 35.5774 61.0637 35.4435C61.0733 35.3097 61.0805 35.1759 61.0853 35.042C61.0948 34.913 61.102 34.772 61.1068 34.619C61.1163 34.4661 61.1259 34.2796 61.1354 34.0598C61.1498 33.7825 61.1593 33.5125 61.1641 33.2496C61.1737 32.9819 61.1808 32.7286 61.1856 32.4896C61.1952 32.2458 61.2024 32.0235 61.2071 31.8228C61.2119 31.6172 61.2167 31.438 61.2215 31.285L61.2286 30.9266C61.3003 30.9074 61.3625 30.8931 61.4151 30.8835C61.4724 30.874 61.5202 30.8644 61.5585 30.8549C61.8118 30.8023 62.0341 30.7664 62.2253 30.7473C62.4212 30.7234 62.6196 30.7115 62.8203 30.7115C63.1549 30.7115 63.4346 30.7545 63.6592 30.8405C63.8886 30.9218 64.0798 31.0508 64.2328 31.2277C64.3571 31.3711 64.4551 31.5551 64.5268 31.7798C64.5985 31.9996 64.6343 32.2362 64.6343 32.4896Z" fill="#616161"></path><path d="M66.1556 29.9156C66.1461 30.0972 66.1365 30.2693 66.1269 30.4318C66.1174 30.5896 66.1078 30.7688 66.0983 30.9696C66.0887 31.1656 66.0768 31.3974 66.0624 31.665C66.0529 31.9279 66.0409 32.253 66.0266 32.6401C66.017 32.9461 66.0074 33.2089 65.9979 33.4288C65.9931 33.6487 65.9883 33.8279 65.9835 33.9666L65.9764 34.3394H65.8903C65.8473 34.3394 65.8067 34.3394 65.7684 34.3394C65.735 34.3346 65.7039 34.3322 65.6752 34.3322C65.6609 34.3322 65.6346 34.3346 65.5964 34.3394C65.5581 34.3394 65.5056 34.3394 65.4386 34.3394H65.3383L65.3598 33.9522C65.3693 33.7897 65.3789 33.6009 65.3884 33.3858C65.4028 33.1659 65.4171 32.915 65.4315 32.633C65.4458 32.3271 65.4578 32.0474 65.4673 31.7941C65.4817 31.5408 65.4912 31.3066 65.496 31.0915C65.5056 30.8764 65.5127 30.6732 65.5175 30.482C65.5223 30.2908 65.5271 30.0996 65.5318 29.9084L65.539 29.5571L65.6466 29.5643H65.8617H66.0839L66.1771 29.5571L66.1556 29.9156Z" fill="#616161"></path><path d="M69.9051 31.6149C69.9051 31.8156 69.8907 32.1478 69.862 32.6115C69.8525 32.7118 69.8453 32.8289 69.8405 32.9628C69.8358 33.0918 69.8286 33.2352 69.819 33.393C69.8142 33.5029 69.8095 33.5961 69.8047 33.6726C69.8047 33.7491 69.8023 33.8208 69.7975 33.8877C69.7975 33.9546 69.7975 34.0239 69.7975 34.0956C69.7975 34.1625 69.7975 34.2438 69.7975 34.3394H69.7115C69.6732 34.3346 69.635 34.3322 69.5968 34.3322C69.5633 34.3322 69.5275 34.3322 69.4892 34.3322C69.4558 34.3322 69.4199 34.3346 69.3817 34.3394C69.3434 34.3394 69.3028 34.3394 69.2598 34.3394H69.1737C69.1833 34.2151 69.1929 34.1076 69.2024 34.0167C69.212 33.9259 69.2192 33.8399 69.2239 33.7586C69.2287 33.6774 69.2335 33.5985 69.2383 33.522C69.2431 33.4408 69.2478 33.35 69.2526 33.2496L69.2813 32.5254L69.2956 32.253C69.2383 32.296 69.1857 32.3342 69.1379 32.3677C69.0949 32.3964 69.0495 32.4227 69.0017 32.4466C68.9586 32.4657 68.9085 32.4848 68.8511 32.5039C68.7937 32.523 68.7244 32.5445 68.6432 32.5684L68.2847 32.6688C67.9166 32.774 67.6537 32.8887 67.496 33.013C67.3431 33.1325 67.2666 33.2854 67.2666 33.4718C67.2666 33.6583 67.3359 33.8016 67.4745 33.902C67.6179 34.0024 67.821 34.0526 68.0839 34.0526C68.1461 34.0526 68.2034 34.0502 68.256 34.0454C68.3086 34.0406 68.3612 34.0335 68.4137 34.0239C68.4711 34.0144 68.5308 34.0024 68.593 33.9881C68.6551 33.9689 68.7268 33.9474 68.8081 33.9235C68.789 33.9809 68.7722 34.0359 68.7579 34.0884C68.7436 34.1362 68.7268 34.2008 68.7077 34.282L68.6934 34.3466C68.6121 34.3609 68.5404 34.3728 68.4783 34.3824C68.4161 34.392 68.3564 34.3991 68.299 34.4039C68.2464 34.4087 68.1915 34.4111 68.1341 34.4111C68.0768 34.4159 68.0122 34.4183 67.9405 34.4183C67.1088 34.4183 66.693 34.1004 66.693 33.4647C66.693 33.2066 66.7886 32.9891 66.9798 32.8122C67.0467 32.7501 67.1208 32.6951 67.202 32.6473C67.2833 32.5947 67.3813 32.5469 67.496 32.5039C67.6107 32.4561 67.747 32.4107 67.9047 32.3677C68.0624 32.3199 68.256 32.2697 68.4854 32.2171C68.777 32.1502 68.9849 32.0666 69.1092 31.9662C69.2383 31.8658 69.3028 31.7391 69.3028 31.5862C69.3028 31.4284 69.2311 31.3066 69.0877 31.2205C68.9443 31.1297 68.7436 31.0843 68.4854 31.0843C68.409 31.0843 68.3325 31.0867 68.256 31.0915C68.1795 31.0962 68.1007 31.1034 68.0194 31.113C67.9381 31.1273 67.8664 31.1417 67.8043 31.156C67.7422 31.1656 67.6776 31.1799 67.6107 31.199C67.5486 31.2181 67.4817 31.2396 67.41 31.2635C67.3383 31.2874 67.2546 31.3185 67.159 31.3567C67.1638 31.3376 67.1662 31.3233 67.1662 31.3137C67.1662 31.2994 67.1686 31.2874 67.1734 31.2779C67.1781 31.254 67.1805 31.2301 67.1805 31.2062C67.1853 31.1775 67.1901 31.1512 67.1949 31.1273C67.2044 31.1178 67.2116 31.0652 67.2164 30.9696L67.2236 30.8979C67.2905 30.8835 67.3454 30.8716 67.3885 30.862C67.4363 30.8525 67.4769 30.8429 67.5103 30.8334C67.8784 30.7521 68.2249 30.7115 68.55 30.7115C69.0136 30.7115 69.3554 30.7856 69.5753 30.9337C69.7951 31.0819 69.9051 31.3089 69.9051 31.6149Z" fill="#616161"></path><path d="M72.6265 30.8047C72.6169 30.8907 72.6097 30.9624 72.605 31.0198C72.605 31.0771 72.605 31.1464 72.605 31.2277H71.6299L71.6227 31.45L71.5869 32.1526L71.5653 32.4752C71.5558 32.6473 71.5486 32.8027 71.5438 32.9413C71.5391 33.0799 71.5367 33.2042 71.5367 33.3141V33.35C71.5367 33.5698 71.5725 33.73 71.6442 33.8303C71.7207 33.9259 71.8426 33.9737 72.0099 33.9737C72.0864 33.9737 72.1581 33.9666 72.225 33.9522C72.2967 33.9379 72.4042 33.9116 72.5476 33.8733C72.5333 33.945 72.5213 34.0072 72.5118 34.0598C72.507 34.1076 72.4974 34.1721 72.4831 34.2533L72.4687 34.3322C72.3923 34.3513 72.3253 34.3657 72.268 34.3752C72.2154 34.3848 72.1628 34.392 72.1103 34.3967C72.0625 34.4063 72.0147 34.4111 71.9669 34.4111C71.9191 34.4159 71.8665 34.4183 71.8091 34.4183C71.5032 34.4183 71.2786 34.3537 71.1352 34.2247C70.9965 34.0956 70.9272 33.8925 70.9272 33.6152C70.9272 33.577 70.9272 33.5316 70.9272 33.479C70.932 33.4264 70.9368 33.3643 70.9416 33.2926L70.9846 32.5111L71.0061 32.1526L71.042 31.4715L71.0491 31.2277H70.5831C70.5926 31.1608 70.595 31.1082 70.5903 31.07C70.5903 31.0269 70.595 30.9648 70.6046 30.8835L70.6118 30.8047H71.085C71.0945 30.7091 71.0993 30.635 71.0993 30.5824C71.1041 30.525 71.1089 30.4414 71.1136 30.3315L71.1208 30.1379L71.214 30.1164C71.2666 30.102 71.3096 30.0925 71.3431 30.0877C71.3813 30.0781 71.4172 30.071 71.4506 30.0662C71.4841 30.0614 71.5175 30.0566 71.551 30.0518C71.5892 30.0423 71.6323 30.0327 71.6801 30.0232L71.6729 30.1737L71.6586 30.4032L71.6514 30.6326V30.8047H72.6265Z" fill="#616161"></path><path d="M75.1116 29.9586C74.9873 29.9156 74.8797 29.8869 74.7889 29.8726C74.6981 29.8535 74.6073 29.8439 74.5165 29.8439C74.3109 29.8439 74.1556 29.8965 74.0504 30.0017C73.9931 30.0638 73.9525 30.1403 73.9286 30.2311C73.9047 30.3171 73.8927 30.4557 73.8927 30.6469V30.7975H74.8678C74.8582 30.8549 74.8511 30.9146 74.8463 30.9767C74.8415 31.0341 74.8391 31.0986 74.8391 31.1703V31.2277H73.8927L73.8855 31.493L73.8425 32.6617L73.8138 33.9522L73.7995 34.3394H73.7063C73.6633 34.3394 73.6226 34.3394 73.5844 34.3394C73.5509 34.3346 73.5175 34.3322 73.484 34.3322C73.4553 34.3322 73.4219 34.3346 73.3836 34.3394C73.3502 34.3394 73.3096 34.3394 73.2618 34.3394H73.1686C73.1781 34.2486 73.1829 34.1721 73.1829 34.11C73.1877 34.043 73.1925 33.9857 73.1972 33.9379C73.2116 33.6941 73.2259 33.3715 73.2403 32.97C73.2594 32.5684 73.2785 32.0618 73.2976 31.45L73.3048 31.2277H72.8674C72.877 31.1751 72.8818 31.1106 72.8818 31.0341C72.8865 30.9576 72.8913 30.8788 72.8961 30.7975H73.3478V30.6541C73.3478 30.5537 73.3478 30.4701 73.3478 30.4032C73.3526 30.3315 73.3574 30.2717 73.3621 30.2239C73.3669 30.1713 73.3741 30.1259 73.3836 30.0877C73.3932 30.0447 73.4028 30.004 73.4123 29.9658C73.4649 29.7889 73.5725 29.6551 73.735 29.5643C73.9023 29.4687 74.1198 29.4209 74.3874 29.4209C74.4974 29.4209 74.6001 29.4281 74.6957 29.4424C74.7961 29.452 74.9252 29.4759 75.0829 29.5141C75.0829 29.5954 75.0829 29.6623 75.0829 29.7149C75.0877 29.7627 75.0948 29.82 75.1044 29.8869L75.1116 29.9586Z" fill="#616161"></path><path d="M78.1246 32.4609C78.1246 32.0355 78.0242 31.7128 77.8235 31.493C77.6275 31.2683 77.3383 31.156 76.9559 31.156C76.564 31.156 76.2581 31.2898 76.0382 31.5575C75.8183 31.8204 75.7084 32.1908 75.7084 32.6688C75.7084 33.0751 75.8111 33.3954 76.0167 33.6296C76.227 33.8638 76.5138 33.9809 76.877 33.9809C77.269 33.9809 77.5749 33.8471 77.7948 33.5794C78.0147 33.3117 78.1246 32.9389 78.1246 32.4609ZM78.734 32.4681C78.734 32.7788 78.6767 33.0727 78.562 33.35C78.2752 34.0622 77.7016 34.4183 76.8412 34.4183C76.5783 34.4183 76.3393 34.3776 76.1242 34.2964C75.9091 34.2103 75.7251 34.0908 75.5721 33.9379C75.4192 33.7801 75.2997 33.5937 75.2136 33.3786C75.1324 33.1635 75.0918 32.9222 75.0918 32.6545C75.0918 32.3533 75.1348 32.0833 75.2208 31.8443C75.3116 31.6053 75.4383 31.4022 75.6008 31.2349C75.7633 31.0676 75.9617 30.9385 76.1959 30.8477C76.4301 30.7569 76.693 30.7115 76.9846 30.7115C77.5343 30.7115 77.9621 30.8668 78.268 31.1775C78.5787 31.4882 78.734 31.9184 78.734 32.4681Z" fill="#616161"></path><path d="M81.4957 31.2635C81.4001 31.2396 81.3284 31.2253 81.2806 31.2205C81.2328 31.211 81.1755 31.2062 81.1085 31.2062C80.8791 31.2062 80.6808 31.2731 80.5135 31.4069C80.3509 31.5408 80.2362 31.7248 80.1693 31.959C80.1358 32.0689 80.1119 32.2052 80.0976 32.3677C80.088 32.4681 80.0809 32.5828 80.0761 32.7118C80.0713 32.8409 80.0665 32.9795 80.0618 33.1277C80.057 33.2711 80.0522 33.4217 80.0474 33.5794C80.0474 33.7323 80.0474 33.8829 80.0474 34.0311V34.3394H79.9614C79.9231 34.3346 79.8849 34.3322 79.8467 34.3322C79.8132 34.3322 79.7797 34.3322 79.7463 34.3322C79.708 34.3322 79.6698 34.3346 79.6316 34.3394C79.5981 34.3394 79.5599 34.3394 79.5169 34.3394H79.4236L79.4452 33.9952C79.4595 33.7371 79.4738 33.4766 79.4882 33.2137C79.5025 32.9508 79.5121 32.6999 79.5169 32.4609C79.5264 32.2171 79.5336 31.9925 79.5384 31.7869C79.5431 31.5766 79.5455 31.3926 79.5455 31.2349V30.7903C79.6172 30.7951 79.6722 30.7975 79.7104 30.7975C79.7487 30.7975 79.7917 30.7975 79.8395 30.7975C79.8921 30.7975 79.9351 30.7975 79.9685 30.7975C80.0068 30.7975 80.0618 30.7951 80.1335 30.7903L80.1119 31.3711C80.1358 31.3281 80.1597 31.2874 80.1836 31.2492C80.2075 31.211 80.2314 31.1751 80.2553 31.1417C80.4609 30.8549 80.774 30.7115 81.1946 30.7115C81.2472 30.7115 81.2902 30.7139 81.3236 30.7186C81.3571 30.7234 81.4073 30.733 81.4742 30.7473C81.4742 30.8429 81.4742 30.9194 81.4742 30.9767C81.4742 31.0293 81.479 31.0986 81.4885 31.1847L81.4957 31.2635Z" fill="#616161"></path><path d="M87.2884 31.665C87.2884 31.7272 87.286 31.8037 87.2812 31.8945C87.2764 31.9853 87.2693 32.0905 87.2597 32.21C87.2502 32.3056 87.2406 32.4298 87.231 32.5828C87.2263 32.731 87.2191 32.9054 87.2095 33.1062C87.2 33.2687 87.1928 33.4025 87.188 33.5077C87.188 33.6128 87.1856 33.7084 87.1808 33.7945C87.1808 33.8805 87.1785 33.9642 87.1737 34.0454C87.1737 34.1267 87.1737 34.2247 87.1737 34.3394H87.0876C87.0494 34.3346 87.0135 34.3322 86.9801 34.3322C86.9514 34.3322 86.9203 34.3322 86.8869 34.3322C86.8486 34.3322 86.8104 34.3346 86.7722 34.3394C86.7339 34.3394 86.6933 34.3394 86.6503 34.3394H86.5499C86.5595 34.2294 86.5666 34.1362 86.5714 34.0598C86.5762 33.9785 86.581 33.8972 86.5858 33.816C86.5905 33.7347 86.5953 33.6463 86.6001 33.5507C86.6049 33.4503 86.612 33.3237 86.6216 33.1707L86.6646 32.3605C86.6694 32.2793 86.6718 32.2004 86.6718 32.1239C86.6766 32.0474 86.679 31.9757 86.679 31.9088C86.679 31.4308 86.44 31.1918 85.962 31.1918C85.7947 31.1918 85.6417 31.2301 85.5031 31.3066C85.3693 31.3783 85.2569 31.4834 85.1661 31.622C85.1231 31.6937 85.0849 31.7702 85.0514 31.8515C85.0227 31.9327 84.9988 32.0355 84.9797 32.1598C84.9606 32.2793 84.9439 32.4227 84.9295 32.59C84.92 32.7572 84.9128 32.9628 84.908 33.2066L84.8865 33.9881L84.8722 34.3394H84.7861C84.7479 34.3346 84.7096 34.3322 84.6714 34.3322C84.638 34.3322 84.6045 34.3322 84.571 34.3322C84.5424 34.3322 84.5089 34.3346 84.4707 34.3394C84.4372 34.3394 84.3966 34.3394 84.3488 34.3394H84.2556C84.2603 34.2342 84.2651 34.1482 84.2699 34.0813C84.2795 34.0096 84.2842 33.9379 84.2842 33.8662C84.289 33.7897 84.2938 33.7037 84.2986 33.6081C84.3034 33.5077 84.3105 33.3762 84.3201 33.2137C84.3344 32.9747 84.344 32.7859 84.3488 32.6473C84.3535 32.5087 84.3583 32.3988 84.3631 32.3175C84.3679 32.2315 84.3703 32.1645 84.3703 32.1167C84.3703 32.0642 84.3703 32.0044 84.3703 31.9375C84.3703 31.6937 84.3105 31.5097 84.191 31.3854C84.0715 31.2564 83.8971 31.1918 83.6676 31.1918C83.4525 31.1918 83.2613 31.2564 83.0941 31.3854C82.9268 31.5145 82.8097 31.6913 82.7427 31.916C82.7188 31.9829 82.6997 32.0546 82.6854 32.1311C82.671 32.2076 82.6591 32.296 82.6495 32.3964C82.64 32.4967 82.6304 32.6139 82.6208 32.7477C82.6113 32.8767 82.6041 33.0297 82.5993 33.2066C82.5898 33.3452 82.5826 33.4623 82.5778 33.5579C82.5778 33.6487 82.5754 33.7347 82.5707 33.816C82.5707 33.8925 82.5707 33.9713 82.5707 34.0526C82.5707 34.1291 82.5707 34.2247 82.5707 34.3394H82.4703C82.4273 34.3394 82.3866 34.3394 82.3484 34.3394C82.3149 34.3346 82.2863 34.3322 82.2624 34.3322C82.2337 34.3322 82.2002 34.3346 82.162 34.3394C82.1285 34.3394 82.0879 34.3394 82.0401 34.3394H81.9397C81.9541 34.1816 81.966 34.0478 81.9756 33.9379C81.9851 33.8232 81.9923 33.7037 81.9971 33.5794C82.0066 33.4551 82.0138 33.3069 82.0186 33.1349C82.0281 32.9628 82.0377 32.7357 82.0473 32.4537C82.0568 32.2052 82.064 32.0068 82.0688 31.8586C82.0783 31.7057 82.0831 31.5742 82.0831 31.4643C82.0879 31.3544 82.0903 31.2516 82.0903 31.156C82.0951 31.0556 82.0974 30.9337 82.0974 30.7903C82.1644 30.7951 82.2169 30.7975 82.2552 30.7975C82.2934 30.7975 82.3412 30.7975 82.3986 30.7975C82.4512 30.7975 82.4966 30.7975 82.5348 30.7975C82.573 30.7975 82.6232 30.7951 82.6854 30.7903L82.6567 31.4428C82.7188 31.3376 82.7762 31.2516 82.8288 31.1847C82.9387 31.0365 83.0869 30.9218 83.2733 30.8405C83.4645 30.7545 83.6676 30.7115 83.8827 30.7115C84.1122 30.7115 84.3201 30.7617 84.5065 30.862C84.626 30.9242 84.7144 30.9959 84.7718 31.0771C84.8339 31.1536 84.8889 31.2731 84.9367 31.4356C84.9606 31.3974 84.9821 31.3615 85.0012 31.3281C85.0203 31.2946 85.0395 31.2659 85.0586 31.242C85.1733 31.0747 85.3263 30.9457 85.5174 30.8549C85.7134 30.7593 85.9333 30.7115 86.1771 30.7115C86.5212 30.7115 86.7913 30.7951 86.9873 30.9624C87.188 31.1297 87.2884 31.3639 87.2884 31.665Z" fill="#616161"></path><path d="M90.2475 31.3066C90.0945 31.2492 89.9607 31.2086 89.846 31.1847C89.736 31.1608 89.6165 31.1488 89.4875 31.1488C89.2533 31.1488 89.0716 31.1895 88.9426 31.2707C88.8135 31.3472 88.749 31.4595 88.749 31.6077C88.749 31.7559 88.8326 31.9064 88.9999 32.0594C89.019 32.0785 89.0382 32.0976 89.0573 32.1167C89.0764 32.1311 89.1003 32.1502 89.129 32.1741C89.1577 32.198 89.1935 32.2291 89.2365 32.2673C89.2843 32.3008 89.3441 32.3462 89.4158 32.4035C89.607 32.5565 89.7432 32.6712 89.8245 32.7477C90.0873 32.9915 90.2188 33.2496 90.2188 33.522C90.2188 33.7897 90.1065 34.0072 89.8818 34.1745C89.6572 34.337 89.3608 34.4183 88.9928 34.4183C88.9402 34.4183 88.8757 34.4159 88.7992 34.4111C88.7227 34.4063 88.6462 34.3991 88.5697 34.3896C88.5028 34.3848 88.4455 34.3776 88.3977 34.3681C88.3499 34.3633 88.3021 34.3561 88.2543 34.3466C88.2113 34.337 88.1658 34.3274 88.118 34.3179C88.0702 34.3035 88.0129 34.2892 87.946 34.2749L87.9388 34.1888L87.9245 34.0024L87.9029 33.8232L87.8958 33.7515C88.0344 33.8088 88.1419 33.8494 88.2184 33.8733C88.2997 33.8972 88.3905 33.9211 88.4909 33.945C88.6247 33.9737 88.7585 33.9881 88.8924 33.9881C89.1218 33.9881 89.3011 33.9427 89.4301 33.8518C89.5592 33.761 89.6237 33.6344 89.6237 33.4718C89.6237 33.338 89.5759 33.2233 89.4803 33.1277C89.4421 33.0894 89.399 33.0488 89.3512 33.0058C89.3035 32.9628 89.2389 32.9078 89.1577 32.8409L88.9211 32.6473C88.8111 32.5613 88.7227 32.4896 88.6558 32.4322C88.5889 32.3701 88.5339 32.3175 88.4909 32.2745C88.2614 32.045 88.1467 31.8084 88.1467 31.5647C88.1467 31.3018 88.2543 31.0939 88.4694 30.9409C88.6845 30.7879 88.9784 30.7115 89.3512 30.7115C89.4803 30.7115 89.6118 30.7186 89.7456 30.733C89.8794 30.7473 90.0372 30.7712 90.2188 30.8047V30.8764C90.2188 30.9481 90.2188 31.0126 90.2188 31.07C90.2236 31.1225 90.2307 31.1775 90.2403 31.2349L90.2475 31.3066Z" fill="#616161"></path><path fill-rule="evenodd" clip-rule="evenodd" d="M15.2205 27.5069C15.2152 26.7718 15.1877 26.1329 15.1367 25.5914C15.9435 25.9778 16.6714 26.2507 17.3197 26.4095C17.9684 26.5684 18.5945 26.648 19.1986 26.648C19.7794 26.648 20.3228 26.5491 20.8284 26.3518C21.3352 26.1544 21.7205 25.8756 21.9846 25.5156C22.2484 25.1559 22.3888 24.7439 22.4046 24.2786C22.4145 24.0084 22.3805 23.7544 22.3039 23.5186C22.2265 23.282 22.0982 23.0427 21.9167 22.7982C21.7356 22.5544 21.4178 22.2254 20.9646 21.811C20.5107 21.3975 19.8665 20.8261 19.0322 20.0986L18.1986 19.3673C17.8839 19.0884 17.599 18.8114 17.345 18.5367C17.0914 18.2624 16.8797 17.999 16.7111 17.7473C16.5416 17.4959 16.4126 17.2673 16.3228 17.062C16.2329 16.8571 16.1654 16.6284 16.1201 16.3771C16.0752 16.1254 16.0567 15.868 16.0658 15.605C16.0892 14.939 16.2926 14.3159 16.6771 13.7356C17.0609 13.1548 17.625 12.6903 18.3688 12.342C19.1122 11.9937 20.0843 11.8193 21.2835 11.8193C22.1439 11.8193 23.1963 11.9352 24.442 12.168C24.4401 12.6665 24.4729 13.2782 24.5405 14.0027C23.3707 13.5842 22.302 13.3756 21.3341 13.3756C20.6684 13.3756 20.1073 13.485 19.6503 13.7046C19.1941 13.9242 18.8435 14.2054 18.5994 14.548C18.3552 14.8907 18.2265 15.2431 18.2141 15.605C18.2065 15.8216 18.2303 16.0325 18.2846 16.2378C18.3397 16.4431 18.4258 16.6382 18.5431 16.8242C18.7114 17.0952 18.9228 17.368 19.1763 17.6427C19.4299 17.9178 19.7824 18.2529 20.2326 18.6473C20.3454 18.7401 20.776 19.1035 21.5243 19.739C22.2722 20.3733 22.8167 20.8646 23.1563 21.2133C23.4971 21.5616 23.7661 21.8854 23.965 22.1831C24.1631 22.4812 24.3145 22.8024 24.4182 23.1469C24.5224 23.491 24.568 23.8646 24.5537 24.2673C24.5322 24.8869 24.3786 25.4578 24.0933 25.9797C23.808 26.5031 23.4095 26.9307 22.899 27.2631C22.3877 27.5959 21.8239 27.8318 21.2077 27.971C20.5911 28.111 19.9503 28.1805 19.2846 28.1805C18.7503 28.1805 18.2001 28.1401 17.6341 28.0586C17.068 27.9775 16.2631 27.7937 15.2205 27.5069Z" fill="#0066B2"></path><path fill-rule="evenodd" clip-rule="evenodd" d="M29.5327 27.9254L29.9776 23.5593L30.5897 15.3963L30.6867 13.6193C30.7101 13.1707 30.7323 12.6556 30.752 12.0752C32.5003 12.0831 34.292 12.0865 36.1259 12.0865L39.8293 12.0752H41.0131C40.9399 12.6133 40.8863 13.1548 40.8516 13.7009L39.8206 13.6427C39.5655 13.6269 39.1263 13.6156 38.5033 13.608C37.881 13.6005 37.2629 13.5959 36.652 13.5959C34.8248 13.5959 33.5512 13.608 32.8305 13.631L32.4301 19.0654C33.6214 19.0888 34.6897 19.1001 35.6342 19.1001C36.664 19.1001 38.0157 19.0846 39.6893 19.0537C39.6165 19.5956 39.5625 20.1299 39.5289 20.6559L35.5338 20.6216C34.752 20.6216 33.6633 20.6375 32.2682 20.6684L31.8572 26.4046L33.0652 26.4159C35.2576 26.4159 36.7116 26.408 37.4289 26.3926C38.1459 26.3771 38.9855 26.3427 39.9478 26.288C39.8735 26.8609 39.8199 27.4065 39.7859 27.9254C37.921 27.9095 36.3455 27.902 35.0606 27.902L29.5327 27.9254Z" fill="#0066B2"></path><path fill-rule="evenodd" clip-rule="evenodd" d="M45.312 27.9254C45.5588 25.928 45.7962 23.4876 46.0241 20.6039C46.2524 17.7205 46.4309 14.8775 46.5599 12.0752C47.0943 12.0831 47.5003 12.0865 47.7796 12.0865L48.8607 12.0752L48.2328 19.4314L47.7124 26.3692L49.9177 26.3805C51.5592 26.3805 52.7139 26.3756 53.3848 26.3635C54.0539 26.3522 54.7033 26.3269 55.332 26.288C55.2679 26.779 55.2101 27.3246 55.1581 27.9254C53.4014 27.9095 51.8494 27.902 50.503 27.902L45.312 27.9254Z" fill="#0066B2"></path><path fill-rule="evenodd" clip-rule="evenodd" d="M59.4526 27.9254L59.7194 25.2544L60.1564 19.6929L60.5104 14.2114C60.5289 13.8944 60.5443 13.5771 60.5553 13.2597L60.5847 12.0752L61.7817 12.0865L62.9092 12.0752C62.7021 14.0103 62.5274 16.0307 62.3847 18.1367C62.1436 21.5114 61.9402 24.7748 61.7764 27.9254L60.6851 27.902C60.5455 27.902 60.1353 27.9095 59.4526 27.9254Z" fill="#0066B2"></path><path fill-rule="evenodd" clip-rule="evenodd" d="M67.1169 27.5069C67.1116 26.7718 67.0837 26.1329 67.0327 25.5914C67.8399 25.9778 68.5674 26.2507 69.2165 26.4095C69.8652 26.5684 70.4908 26.648 71.0946 26.648C71.6754 26.648 72.2188 26.5491 72.7248 26.3518C73.2312 26.1544 73.6169 25.8756 73.8806 25.5156C74.1444 25.1559 74.2844 24.7439 74.3006 24.2786C74.3108 24.0084 74.2765 23.7544 74.1999 23.5186C74.1229 23.282 73.9942 23.0427 73.8127 22.7982C73.6316 22.5544 73.3146 22.2254 72.8606 21.811C72.4067 21.3975 71.7625 20.8261 70.9289 20.0986L70.0954 19.3673C69.7799 19.0884 69.4954 18.8114 69.2418 18.5367C68.9882 18.2624 68.7757 17.999 68.6071 17.7473C68.4376 17.4959 68.3086 17.2673 68.2195 17.062C68.1289 16.8571 68.0618 16.6284 68.0169 16.3771C67.9712 16.1254 67.9527 15.868 67.9621 15.605C67.9852 14.939 68.1886 14.3159 68.5731 13.7356C68.9572 13.1548 69.521 12.6903 70.2648 12.342C71.0086 11.9937 71.9806 11.8193 73.1803 11.8193C74.0399 11.8193 75.0923 11.9352 76.338 12.168C76.3365 12.6665 76.3689 13.2782 76.4365 14.0027C75.2671 13.5842 74.1984 13.3756 73.2305 13.3756C72.5652 13.3756 72.0033 13.485 71.5471 13.7046C71.0901 13.9242 70.7403 14.2054 70.4954 14.548C70.2516 14.8907 70.1225 15.2431 70.1101 15.605C70.1025 15.8216 70.1263 16.0325 70.1806 16.2378C70.2361 16.4431 70.3222 16.6382 70.4395 16.8242C70.6074 17.0952 70.8191 17.368 71.0723 17.6427C71.3259 17.9178 71.6784 18.2529 72.1293 18.6473C72.2422 18.7401 72.6727 19.1035 73.4206 19.739C74.1682 20.3733 74.7127 20.8646 75.0523 21.2133C75.3931 21.5616 75.6622 21.8854 75.861 22.1831C76.0591 22.4812 76.2105 22.8024 76.315 23.1469C76.4188 23.491 76.464 23.8646 76.4497 24.2673C76.4286 24.8869 76.2754 25.4578 75.9893 25.9797C75.704 26.5031 75.3059 26.9307 74.7954 27.2631C74.2837 27.5959 73.7199 27.8318 73.1037 27.971C72.4874 28.111 71.8463 28.1805 71.181 28.1805C70.6467 28.1805 70.0965 28.1401 69.5305 28.0586C68.964 27.9775 68.1599 27.7937 67.1169 27.5069Z" fill="#0066B2"></path><path fill-rule="evenodd" clip-rule="evenodd" d="M81.4292 27.9254L81.8737 23.5593L82.4862 15.3963L82.5828 13.6193C82.6062 13.1707 82.6284 12.6556 82.6488 12.0752C84.3971 12.0831 86.1881 12.0865 88.0228 12.0865L91.7254 12.0752H92.91C92.8368 12.6133 92.7832 13.1548 92.7484 13.7009L91.7167 13.6427C91.4617 13.6269 91.0232 13.6156 90.3994 13.608C89.7767 13.6005 89.1598 13.5959 88.5481 13.5959C86.7209 13.5959 85.4473 13.608 84.7266 13.631L84.3266 19.0654C85.5175 19.0888 86.5862 19.1001 87.5311 19.1001C88.5605 19.1001 89.9122 19.0846 91.5862 19.0537C91.5126 19.5956 91.4594 20.1299 91.4247 20.6559L87.43 20.6216C86.6481 20.6216 85.5594 20.6375 84.165 20.6684L83.7537 26.4046L84.9617 26.4159C87.1537 26.4159 88.6084 26.408 89.3258 26.3926C90.042 26.3771 90.8817 26.3427 91.8443 26.288C91.7696 26.8609 91.716 27.4065 91.682 27.9254C89.8175 27.9095 88.2424 27.902 86.9575 27.902L81.4292 27.9254Z" fill="#0066B2"></path><path fill-rule="evenodd" clip-rule="evenodd" d="M15.2205 27.5069C15.2152 26.7718 15.1877 26.1329 15.1367 25.5914C15.9435 25.9778 16.6714 26.2507 17.3197 26.4095C17.9684 26.5684 18.5945 26.648 19.1986 26.648C19.7794 26.648 20.3228 26.5491 20.8284 26.3518C21.3352 26.1544 21.7205 25.8756 21.9846 25.5156C22.2484 25.1559 22.3888 24.7439 22.4046 24.2786C22.4145 24.0084 22.3805 23.7544 22.3039 23.5186C22.2265 23.282 22.0982 23.0427 21.9167 22.7982C21.7356 22.5544 21.4178 22.2254 20.9646 21.811C20.5107 21.3975 19.8665 20.8261 19.0322 20.0986L18.1986 19.3673C17.8839 19.0884 17.599 18.8114 17.345 18.5367C17.0914 18.2624 16.8797 17.999 16.7111 17.7473C16.5416 17.4959 16.4126 17.2673 16.3228 17.062C16.2329 16.8571 16.1654 16.6284 16.1201 16.3771C16.0752 16.1254 16.0567 15.868 16.0658 15.605C16.0892 14.939 16.2926 14.3159 16.6771 13.7356C17.0609 13.1548 17.625 12.6903 18.3688 12.342C19.1122 11.9937 20.0843 11.8193 21.2835 11.8193C22.1439 11.8193 23.1963 11.9352 24.442 12.168C24.4401 12.6665 24.4729 13.2782 24.5405 14.0027C23.3707 13.5842 22.302 13.3756 21.3341 13.3756C20.6684 13.3756 20.1073 13.485 19.6503 13.7046C19.1941 13.9242 18.8435 14.2054 18.5994 14.548C18.3552 14.8907 18.2265 15.2431 18.2141 15.605C18.2065 15.8216 18.2303 16.0325 18.2846 16.2378C18.3397 16.4431 18.4258 16.6382 18.5431 16.8242C18.7114 17.0952 18.9228 17.368 19.1763 17.6427C19.4299 17.9178 19.7824 18.2529 20.2326 18.6473C20.3454 18.7401 20.776 19.1035 21.5243 19.739C22.2722 20.3733 22.8167 20.8646 23.1563 21.2133C23.4971 21.5616 23.7661 21.8854 23.965 22.1831C24.1631 22.4812 24.3145 22.8024 24.4182 23.1469C24.5224 23.491 24.568 23.8646 24.5537 24.2673C24.5322 24.8869 24.3786 25.4578 24.0933 25.9797C23.808 26.5031 23.4095 26.9307 22.899 27.2631C22.3877 27.5959 21.8239 27.8318 21.2077 27.971C20.5911 28.111 19.9503 28.1805 19.2846 28.1805C18.7503 28.1805 18.2001 28.1401 17.6341 28.0586C17.068 27.9775 16.2631 27.7937 15.2205 27.5069Z" fill="#0066B2"></path><path fill-rule="evenodd" clip-rule="evenodd" d="M29.5327 27.9254L29.9776 23.5593L30.5897 15.3963L30.6867 13.6193C30.7101 13.1707 30.7323 12.6556 30.752 12.0752C32.5003 12.0831 34.292 12.0865 36.1259 12.0865L39.8293 12.0752H41.0131C40.9399 12.6133 40.8863 13.1548 40.8516 13.7009L39.8206 13.6427C39.5655 13.6269 39.1263 13.6156 38.5033 13.608C37.881 13.6005 37.2629 13.5959 36.652 13.5959C34.8248 13.5959 33.5512 13.608 32.8305 13.631L32.4301 19.0654C33.6214 19.0888 34.6897 19.1001 35.6342 19.1001C36.664 19.1001 38.0157 19.0846 39.6893 19.0537C39.6165 19.5956 39.5625 20.1299 39.5289 20.6559L35.5338 20.6216C34.752 20.6216 33.6633 20.6375 32.2682 20.6684L31.8572 26.4046L33.0652 26.4159C35.2576 26.4159 36.7116 26.408 37.4289 26.3926C38.1459 26.3771 38.9855 26.3427 39.9478 26.288C39.8735 26.8609 39.8199 27.4065 39.7859 27.9254C37.921 27.9095 36.3455 27.902 35.0606 27.902L29.5327 27.9254Z" fill="#0066B2"></path><path fill-rule="evenodd" clip-rule="evenodd" d="M45.312 27.9254C45.5588 25.928 45.7962 23.4876 46.0241 20.6039C46.2524 17.7205 46.4309 14.8775 46.5599 12.0752C47.0943 12.0831 47.5003 12.0865 47.7796 12.0865L48.8607 12.0752L48.2328 19.4314L47.7124 26.3692L49.9177 26.3805C51.5592 26.3805 52.7139 26.3756 53.3848 26.3635C54.0539 26.3522 54.7033 26.3269 55.332 26.288C55.2679 26.779 55.2101 27.3246 55.1581 27.9254C53.4014 27.9095 51.8494 27.902 50.503 27.902L45.312 27.9254Z" fill="#0066B2"></path><path fill-rule="evenodd" clip-rule="evenodd" d="M59.4526 27.9254L59.7194 25.2544L60.1564 19.6929L60.5104 14.2114C60.5289 13.8944 60.5443 13.5771 60.5553 13.2597L60.5847 12.0752L61.7817 12.0865L62.9092 12.0752C62.7021 14.0103 62.5274 16.0307 62.3847 18.1367C62.1436 21.5114 61.9402 24.7748 61.7764 27.9254L60.6851 27.902C60.5455 27.902 60.1353 27.9095 59.4526 27.9254Z" fill="#0066B2"></path><path fill-rule="evenodd" clip-rule="evenodd" d="M67.1169 27.5069C67.1116 26.7718 67.0837 26.1329 67.0327 25.5914C67.8399 25.9778 68.5674 26.2507 69.2165 26.4095C69.8652 26.5684 70.4908 26.648 71.0946 26.648C71.6754 26.648 72.2188 26.5491 72.7248 26.3518C73.2312 26.1544 73.6169 25.8756 73.8806 25.5156C74.1444 25.1559 74.2844 24.7439 74.3006 24.2786C74.3108 24.0084 74.2765 23.7544 74.1999 23.5186C74.1229 23.282 73.9942 23.0427 73.8127 22.7982C73.6316 22.5544 73.3146 22.2254 72.8606 21.811C72.4067 21.3975 71.7625 20.8261 70.9289 20.0986L70.0954 19.3673C69.7799 19.0884 69.4954 18.8114 69.2418 18.5367C68.9882 18.2624 68.7757 17.999 68.6071 17.7473C68.4376 17.4959 68.3086 17.2673 68.2195 17.062C68.1289 16.8571 68.0618 16.6284 68.0169 16.3771C67.9712 16.1254 67.9527 15.868 67.9621 15.605C67.9852 14.939 68.1886 14.3159 68.5731 13.7356C68.9572 13.1548 69.521 12.6903 70.2648 12.342C71.0086 11.9937 71.9806 11.8193 73.1803 11.8193C74.0399 11.8193 75.0923 11.9352 76.338 12.168C76.3365 12.6665 76.3689 13.2782 76.4365 14.0027C75.2671 13.5842 74.1984 13.3756 73.2305 13.3756C72.5652 13.3756 72.0033 13.485 71.5471 13.7046C71.0901 13.9242 70.7403 14.2054 70.4954 14.548C70.2516 14.8907 70.1225 15.2431 70.1101 15.605C70.1025 15.8216 70.1263 16.0325 70.1806 16.2378C70.2361 16.4431 70.3222 16.6382 70.4395 16.8242C70.6074 17.0952 70.8191 17.368 71.0723 17.6427C71.3259 17.9178 71.6784 18.2529 72.1293 18.6473C72.2422 18.7401 72.6727 19.1035 73.4206 19.739C74.1682 20.3733 74.7127 20.8646 75.0523 21.2133C75.3931 21.5616 75.6622 21.8854 75.861 22.1831C76.0591 22.4812 76.2105 22.8024 76.315 23.1469C76.4188 23.491 76.464 23.8646 76.4497 24.2673C76.4286 24.8869 76.2754 25.4578 75.9893 25.9797C75.704 26.5031 75.3059 26.9307 74.7954 27.2631C74.2837 27.5959 73.7199 27.8318 73.1037 27.971C72.4874 28.111 71.8463 28.1805 71.181 28.1805C70.6467 28.1805 70.0965 28.1401 69.5305 28.0586C68.964 27.9775 68.1599 27.7937 67.1169 27.5069Z" fill="#0066B2"></path><path fill-rule="evenodd" clip-rule="evenodd" d="M81.4292 27.9254L81.8737 23.5593L82.4862 15.3963L82.5828 13.6193C82.6062 13.1707 82.6284 12.6556 82.6488 12.0752C84.3971 12.0831 86.1881 12.0865 88.0228 12.0865L91.7254 12.0752H92.91C92.8368 12.6133 92.7832 13.1548 92.7484 13.7009L91.7167 13.6427C91.4617 13.6269 91.0232 13.6156 90.3994 13.608C89.7767 13.6005 89.1598 13.5959 88.5481 13.5959C86.7209 13.5959 85.4473 13.608 84.7266 13.631L84.3266 19.0654C85.5175 19.0888 86.5862 19.1001 87.5311 19.1001C88.5605 19.1001 89.9122 19.0846 91.5862 19.0537C91.5126 19.5956 91.4594 20.1299 91.4247 20.6559L87.43 20.6216C86.6481 20.6216 85.5594 20.6375 84.165 20.6684L83.7537 26.4046L84.9617 26.4159C87.1537 26.4159 88.6084 26.408 89.3258 26.3926C90.042 26.3771 90.8817 26.3427 91.8443 26.288C91.7696 26.8609 91.716 27.4065 91.682 27.9254C89.8175 27.9095 88.2424 27.902 86.9575 27.902L81.4292 27.9254Z" fill="#0066B2"></path><path fill-rule="evenodd" clip-rule="evenodd" d="M21.1023 38.9016C19.8578 38.9016 18.6423 38.7782 17.4642 38.5495C17.4551 38.4665 17.4479 38.3887 17.4359 38.2986C17.4257 38.2216 17.4087 38.1333 17.3955 38.0514C17.6144 38.0521 17.8302 38.0574 18.054 38.0495C18.7932 38.0216 19.5291 37.9499 20.2411 37.8246C20.9528 37.7008 21.6415 37.5318 22.2879 37.3265C22.8389 37.1521 23.351 36.9476 23.8328 36.7329C23.9955 37.134 24.1434 37.5284 24.2664 37.9087C24.3427 38.1446 24.4091 38.3737 24.4702 38.5989C23.3766 38.794 22.2525 38.9016 21.1023 38.9016ZM14.9583 37.88C15.6402 37.9767 16.3666 38.037 17.1251 38.0521C17.1349 38.0846 17.1466 38.1193 17.1561 38.1514C17.1931 38.2778 17.2247 38.3963 17.2546 38.5114C16.4697 38.3499 15.7044 38.1351 14.9583 37.88ZM12.0164 36.5921C11.721 36.431 11.4312 36.2608 11.1451 36.0846C11.1429 36.0751 11.1398 36.0653 11.1376 36.0559C11.8013 36.1812 12.533 36.2789 13.3353 36.3253C14.281 36.374 15.3164 36.3442 16.4051 36.2136C16.4723 36.3532 16.5353 36.491 16.5949 36.6264C16.67 36.7959 16.7372 36.96 16.8006 37.1215C15.8195 37.1046 14.8636 37.0325 13.9693 36.9155C13.2764 36.8264 12.624 36.714 12.0164 36.5921ZM10.6093 34.622C11.001 34.6197 11.4108 34.6023 11.8527 34.5661C12.1319 34.5344 12.4229 34.5095 12.7187 34.4597C12.8674 34.4367 13.0184 34.4148 13.1704 34.3884C13.3225 34.3586 13.4772 34.328 13.6331 34.297C13.7112 34.2816 13.7897 34.2657 13.8689 34.2491C13.9474 34.2306 14.0263 34.2114 14.1059 34.1925C14.2648 34.1533 14.4259 34.1137 14.5885 34.0737C14.7485 34.0295 14.9097 33.9812 15.0731 33.934C15.3784 34.3804 15.6535 34.8212 15.898 35.251C15.6425 35.2842 15.387 35.3178 15.135 35.3401C14.8033 35.3782 14.4738 35.3936 14.1508 35.4186C13.9889 35.4295 13.8289 35.4318 13.6701 35.4389C13.5108 35.4461 13.3535 35.4536 13.1976 35.4525C13.0418 35.4544 12.8874 35.4563 12.735 35.4582C12.5833 35.4555 12.4323 35.4529 12.2844 35.4503C12.2101 35.4491 12.1357 35.4491 12.0629 35.4461C11.9901 35.4431 11.9172 35.4393 11.8452 35.4359C11.701 35.4284 11.5587 35.4257 11.4187 35.4152C11.2489 35.4046 11.0897 35.3887 10.927 35.3748C10.8376 35.1295 10.7361 34.8797 10.6093 34.622ZM9.09852 32.4416C9.52418 32.1635 10.0072 31.842 10.543 31.4752C11.0234 31.1454 11.5468 30.7786 12.103 30.3775C12.9325 31.225 13.7049 32.0963 14.3721 32.9673C14.374 32.9695 14.3755 32.9722 14.3774 32.9744C14.311 32.9986 14.2446 33.0224 14.1774 33.0431C14.0174 33.0952 13.8585 33.1473 13.7012 33.1982L13.583 33.2371L13.4653 33.271C13.3864 33.2944 13.3083 33.3171 13.2306 33.3401C12.9204 33.4363 12.6125 33.5099 12.314 33.5899C12.1638 33.625 12.0155 33.6593 11.8695 33.6933C11.7966 33.7095 11.7242 33.728 11.6513 33.7431C11.5793 33.7574 11.5072 33.7714 11.4363 33.7854C11.0219 33.8722 10.6325 33.9322 10.2574 33.9827C9.94757 33.4703 9.56154 32.9503 9.09852 32.4416ZM9.93178 35.2691C9.60951 35.0348 9.29216 34.7929 8.98536 34.5385C9.21027 34.5661 9.45668 34.5864 9.71404 34.6019C9.72159 34.6121 9.72989 34.6223 9.73744 34.6325C9.89442 34.8544 10.034 35.0759 10.1646 35.2966C10.0876 35.2872 10.0065 35.2789 9.93178 35.2691ZM7.68007 33.3525C7.85403 33.2415 8.06611 33.1072 8.31101 32.9506C8.67479 33.3189 9.01743 33.6997 9.32573 34.0857C9.26347 34.091 9.19516 34.0981 9.13479 34.1034C8.91479 34.1151 8.708 34.1291 8.51554 34.1317C8.23026 33.8793 7.94988 33.6212 7.68007 33.3525ZM6.98171 32.6178C7.06096 32.4223 7.15115 32.2065 7.25303 31.9721C7.44096 32.1314 7.62926 32.2974 7.81756 32.4714C7.92436 32.571 8.027 32.674 8.13077 32.7759C7.92096 32.965 7.74134 33.1276 7.59303 33.2634C7.38436 33.0525 7.1802 32.8378 6.98171 32.6178ZM6.91568 31.9039C6.87077 32.0816 6.83191 32.245 6.7953 32.4012C6.62436 32.2061 6.45643 32.008 6.29379 31.8061C6.27643 31.6114 6.26096 31.4046 6.24738 31.1873C6.4836 31.3559 6.7221 31.5401 6.96096 31.7341C6.94587 31.7903 6.92964 31.8495 6.91568 31.9039ZM6.20513 29.0004C6.21154 28.651 6.23041 28.2864 6.25192 27.9076C6.27947 27.5291 6.30853 27.1362 6.35419 26.7313C6.3923 26.374 6.44324 26.0027 6.50022 25.6268C6.72475 25.7845 6.95041 25.943 7.18173 26.1128C7.63758 26.4487 8.10853 26.8155 8.58513 27.1985C8.55947 27.2566 8.53268 27.3159 8.50739 27.3732C8.42739 27.5498 8.35343 27.7264 8.28136 27.9004C8.21004 28.0747 8.13645 28.2449 8.07004 28.4147C7.79985 29.0925 7.57192 29.7332 7.37872 30.3193C7.32513 30.4845 7.27532 30.6445 7.22777 30.8008C6.89154 30.5679 6.54853 30.3661 6.20475 30.183C6.19683 29.8106 6.19532 29.4177 6.20513 29.0004ZM5.43238 30.6521C5.50408 30.6952 5.57465 30.734 5.6471 30.7804C5.70785 30.8186 5.76974 30.8631 5.83087 30.9035C5.85276 31.0393 5.87465 31.1733 5.89729 31.3012C5.73729 31.0888 5.58332 30.8714 5.43238 30.6521ZM4.96475 29.4188C4.80437 28.6966 4.64852 27.8822 4.51833 26.9837C4.39494 26.1275 4.30135 25.1917 4.25078 24.1909C4.7055 24.4498 5.18361 24.7426 5.68512 25.0724C5.50739 26.7769 5.53909 28.3468 5.67041 29.6641C5.67946 29.7547 5.69041 29.8392 5.70022 29.9271C5.47192 29.8234 5.24475 29.7317 5.01984 29.6535C5.00135 29.5751 4.98286 29.4996 4.96475 29.4188ZM2.39862 23.2903C2.73937 23.4197 3.10692 23.5854 3.49937 23.7846C3.52466 24.0907 3.55447 24.391 3.58843 24.6854C3.73032 25.8548 3.93598 26.9325 4.17145 27.8975C4.28239 28.351 4.39824 28.7778 4.51636 29.1805C3.5039 27.3782 2.779 25.3944 2.39862 23.2903ZM2.08938 19.8907C2.08938 18.608 2.21844 17.3556 2.46032 16.1443C2.66976 16.1956 2.88523 16.2544 3.10863 16.3277C3.40372 16.4243 3.71164 16.5416 4.02825 16.6737C4.01429 16.7269 3.99957 16.7805 3.98787 16.8341C3.94825 17.008 3.909 17.1816 3.86938 17.3548C3.83089 17.5277 3.80146 17.702 3.76749 17.8744C3.75089 17.9612 3.73504 18.0469 3.71844 18.1337L3.67844 18.3922C3.65278 18.5646 3.62259 18.736 3.60183 18.9076C3.51051 19.5926 3.45957 20.2692 3.43089 20.9299C3.40598 21.5918 3.41353 22.2382 3.43881 22.8654C3.44523 22.996 3.45617 23.1216 3.46447 23.2499C3.06372 23.1084 2.68447 22.9975 2.33315 22.9212C2.17466 21.9341 2.08938 20.9224 2.08938 19.8907ZM5.10023 9.62713C5.58589 9.8743 6.164 10.1819 6.82136 10.5486C6.75344 10.6471 6.68589 10.7456 6.61721 10.8449C6.4123 11.1362 6.23004 11.4468 6.03834 11.7562C5.94362 11.9117 5.8591 12.0743 5.76815 12.2347C5.72325 12.3151 5.67872 12.3958 5.63381 12.4769C5.58853 12.5573 5.54929 12.6418 5.50702 12.7249C5.424 12.8913 5.34061 13.0577 5.25796 13.2237C5.18174 13.3928 5.10551 13.5622 5.03004 13.7309C4.95155 13.8985 4.88513 14.0705 4.81683 14.2415L4.71457 14.4977L4.664 14.6256L4.61796 14.7554C4.55721 14.9283 4.49608 15.1007 4.4357 15.2724C4.37796 15.4452 4.32664 15.6196 4.2723 15.7928C4.24627 15.8788 4.21796 15.9652 4.19344 16.052C4.18325 16.0913 4.17268 16.1301 4.16174 16.1694C3.5874 15.989 3.04438 15.8652 2.53721 15.792C3.02664 13.5649 3.90589 11.486 5.10023 9.62713ZM9.58425 4.76463C9.63142 4.77935 9.67557 4.7918 9.72387 4.80765C10.025 4.89407 10.345 5.02048 10.6899 5.14048C10.7325 5.15633 10.7771 5.16954 10.8201 5.18728C10.8631 5.20539 10.9065 5.2235 10.951 5.24124C11.0386 5.27709 11.1276 5.31294 11.2186 5.34992C11.3092 5.38614 11.4012 5.42237 11.4944 5.45973C11.5412 5.47822 11.5884 5.49671 11.6356 5.5152C11.6827 5.5352 11.7292 5.55747 11.7767 5.57784C11.7986 5.58765 11.8216 5.59747 11.8435 5.60765C11.6737 5.72879 11.5039 5.84992 11.3303 5.97445C11.2103 6.05709 11.0967 6.1518 10.9793 6.24199C10.8624 6.33369 10.7446 6.42577 10.6258 6.51897C9.68764 7.2752 8.7484 8.15482 7.87142 9.18539C7.76463 9.31671 7.65708 9.44803 7.54878 9.58086C7.49406 9.64728 7.44047 9.71369 7.38576 9.78049C7.33255 9.84841 7.28198 9.9186 7.22953 9.98803C7.20802 10.0171 7.18613 10.0465 7.16425 10.076C7.13972 10.0661 7.11217 10.0537 7.08764 10.0435C6.39896 9.76501 5.78613 9.54313 5.265 9.36916C6.4401 7.60426 7.90198 6.04765 9.58425 4.76463ZM14.8329 1.93924C15.3892 2.09245 15.9782 2.27245 16.5922 2.48641C16.8096 2.56188 17.0254 2.63999 17.2401 2.71999C16.848 2.87924 16.4401 3.05282 16.0163 3.24565C15.9137 3.29131 15.8103 3.33811 15.705 3.38528C15.6024 3.43546 15.4975 3.48678 15.3926 3.53848C15.182 3.64226 14.9677 3.74867 14.7488 3.85697C14.5322 3.97018 14.3148 4.09131 14.0907 4.21207C13.9794 4.27282 13.8669 4.33395 13.7529 4.3966C13.642 4.46226 13.5299 4.52943 13.4171 4.59697C13.3035 4.66414 13.1892 4.73282 13.0745 4.80188C12.9733 4.8615 12.8718 4.92377 12.7726 4.98867C12.7288 4.97395 12.6843 4.95811 12.6409 4.94339C12.4118 4.86641 12.1869 4.79207 11.9665 4.7215C11.3329 4.54226 10.7337 4.41018 10.1869 4.32527C11.6058 3.32829 13.1662 2.5215 14.8329 1.93924ZM14.2507 6.74719C14.3617 6.80228 14.4726 6.85775 14.5832 6.91247C14.6938 6.96757 14.8055 7.01964 14.9126 7.08115C15.1289 7.19926 15.3451 7.31511 15.5594 7.4287C15.6673 7.48492 15.7741 7.54115 15.8802 7.59662C15.9334 7.62417 15.9862 7.65172 16.0394 7.67926C16.0926 7.70643 16.1428 7.73813 16.1949 7.76681C16.2406 7.79285 16.2843 7.81738 16.33 7.84304C15.7643 8.24191 15.1345 8.71021 14.4413 9.28077C13.9089 9.72719 13.3372 10.223 12.7572 10.7947C12.3292 11.2128 11.8896 11.6661 11.4507 12.1604C11.373 12.117 11.2949 12.0732 11.2179 12.0302C11.0292 11.9264 10.8428 11.8234 10.659 11.7219C10.4734 11.6245 10.2896 11.5283 10.1081 11.4336C10.0172 11.3864 9.92735 11.34 9.83716 11.2936C9.74735 11.2491 9.65753 11.2049 9.56886 11.1604C9.39036 11.0732 9.21527 10.9857 9.04206 10.9034C8.72244 10.7525 8.41452 10.6125 8.11301 10.4796L8.16055 10.4136L8.24169 10.3106L8.40244 10.1064L8.56244 9.90266C8.61527 9.83474 8.6681 9.76606 8.72508 9.70191C9.6081 8.64266 10.5787 7.69209 11.5817 6.85926C11.9515 6.55172 12.3258 6.2653 12.7006 5.9887C12.7889 6.03172 12.8775 6.07436 12.9673 6.11775C13.173 6.21662 13.3847 6.31587 13.6006 6.41549C13.8138 6.52379 14.0304 6.63474 14.2507 6.74719ZM7.74263 17.7385C6.82942 17.2408 5.94489 16.8276 5.10376 16.5034C5.12489 16.428 5.14565 16.3525 5.16904 16.2778L5.2464 16.0412C5.29961 15.8831 5.34716 15.7223 5.40489 15.5646C5.46301 15.4068 5.5215 15.2483 5.57961 15.0887L5.62376 14.9691L5.67244 14.8514C5.70489 14.7721 5.73697 14.6932 5.7698 14.6136C5.83433 14.4551 5.89772 14.2948 5.97206 14.1385C6.04338 13.9812 6.11508 13.8227 6.18753 13.6638C6.26603 13.508 6.34452 13.351 6.42338 13.1936C6.46338 13.1155 6.50036 13.0351 6.54301 12.9585L6.67093 12.7276L6.79848 12.4963C6.84074 12.4193 6.8815 12.3415 6.92867 12.2676C7.01999 12.117 7.11055 11.9672 7.20112 11.8174L7.26942 11.7046L7.34112 11.5951L7.4864 11.3763L7.63093 11.1578L7.70074 11.0521C8.62263 11.5883 9.65508 12.2212 10.777 12.9582C9.69621 14.2846 8.62791 15.8695 7.74263 17.7385ZM6.45503 21.1148C6.15088 22.1737 5.92748 23.2231 5.78597 24.2367C5.78371 24.2522 5.7822 24.2673 5.77993 24.2831C5.24295 23.9997 4.7222 23.7522 4.22597 23.545C4.22484 23.5114 4.22371 23.4775 4.22295 23.4439C4.2222 23.376 4.22182 23.308 4.22144 23.2397C4.21993 23.1035 4.21842 22.9658 4.21729 22.8269C4.21918 22.6884 4.22182 22.5488 4.22333 22.408C4.22484 22.3375 4.22559 22.2673 4.2271 22.196C4.22937 22.125 4.23276 22.0541 4.23541 21.9831C4.24107 21.8401 4.2471 21.6963 4.25276 21.5514C4.26258 21.408 4.27201 21.262 4.2822 21.1156C4.28673 21.0424 4.29201 20.9692 4.29692 20.8952C4.30371 20.822 4.31125 20.748 4.31767 20.6741C4.36635 20.0809 4.45239 19.476 4.5539 18.8601C4.58258 18.7065 4.6105 18.5518 4.63918 18.3967C4.66559 18.2409 4.70484 18.0869 4.73692 17.9307C4.79276 17.6499 4.86786 17.3703 4.93843 17.0877C5.0539 17.1446 5.16786 17.199 5.28522 17.2593C5.95843 17.6061 6.6671 18.0209 7.40107 18.4903C7.0271 19.3578 6.71239 20.2397 6.45503 21.1148ZM10.3943 20.6151C10.8173 20.9445 11.2468 21.2906 11.6792 21.6502C11.6555 21.686 11.6309 21.7181 11.6072 21.754C11.3577 22.1343 11.1034 22.5087 10.8721 22.8928C10.7539 23.0838 10.6377 23.274 10.5219 23.463C10.4106 23.6551 10.3 23.846 10.1906 24.0355C10.1358 24.1306 10.0819 24.2249 10.0272 24.3192C9.97583 24.4151 9.92338 24.5102 9.87168 24.6049C9.76942 24.7951 9.66753 24.9834 9.56678 25.1702C9.47017 25.3592 9.3747 25.5468 9.27999 25.7332C9.23319 25.826 9.1864 25.9181 9.13999 26.0102C9.09583 26.1034 9.05093 26.1958 9.00716 26.2879C9.00414 26.2947 9.00112 26.3008 8.9981 26.3075C8.50074 25.9457 8.00414 25.5992 7.51244 25.2875C7.22263 25.1038 6.93508 24.9309 6.65017 24.7649C6.68753 24.563 6.71772 24.3668 6.75999 24.1607C6.94791 23.2619 7.19168 22.3245 7.50376 21.3634C7.74565 20.6268 8.02451 19.8751 8.34904 19.117C9.01357 19.5732 9.69621 20.0732 10.3943 20.6151ZM10.9222 29.2185C11.1177 29.4008 11.306 29.5879 11.4966 29.7736C10.8705 30.3291 10.2849 30.8498 9.76486 31.3132C9.42373 31.6174 9.10863 31.8985 8.82373 32.154C8.70297 32.0306 8.58448 31.9068 8.4543 31.7857C8.19203 31.5427 7.91807 31.32 7.63996 31.1079C7.78977 30.7842 7.95467 30.4374 8.13656 30.0687C8.47241 29.3838 8.87241 28.6215 9.3226 27.8049C9.8509 28.2495 10.3845 28.7162 10.9222 29.2185ZM16.0797 33.6056C16.1227 33.5909 16.165 33.5762 16.2073 33.5615C16.2495 33.5453 16.2914 33.5287 16.3337 33.5124C16.4182 33.4792 16.5031 33.446 16.588 33.4128C16.7578 33.3449 16.9314 33.2804 17.1027 33.206C17.2733 33.1305 17.445 33.0539 17.6182 32.977C18.7276 32.4721 19.7748 31.8705 20.7288 31.2392C20.8895 31.4649 21.0476 31.6902 21.2005 31.9151C21.6084 32.5162 21.9831 33.1147 22.3295 33.7071C20.9114 34.1992 19.1861 34.7064 17.1639 35.0668C16.9563 35.1 16.751 35.1302 16.5454 35.1611C16.3446 34.6924 16.1027 34.2011 15.8197 33.6947C15.9061 33.6649 15.9922 33.6358 16.0797 33.6056ZM23.0475 35.0118C23.2437 35.396 23.4192 35.7733 23.5837 36.1458C22.0969 36.6363 20.2297 37.0412 18.0211 37.1148C17.749 37.1239 17.4792 37.1242 17.2101 37.1242C17.1339 36.8175 17.0331 36.4858 16.9162 36.1412C17.0581 36.1201 17.1965 36.1058 17.3399 36.0809C18.772 35.8284 20.1577 35.4103 21.3867 34.9167C21.5403 34.8552 21.692 34.7933 21.8426 34.7333C21.9916 34.671 22.1358 34.6016 22.2799 34.5375C22.4196 34.4733 22.5577 34.4103 22.6939 34.3476C22.8158 34.5699 22.935 34.7918 23.0475 35.0118ZM24.9421 38.5083C24.8289 37.871 24.6655 37.1838 24.4323 36.4551C24.8459 36.2472 25.2259 36.0321 25.5666 35.8208C26.4364 35.2853 27.0561 34.7691 27.424 34.4472C27.7851 34.1155 27.9059 33.9861 27.7221 34.1268C27.6297 34.1966 27.4991 34.2902 27.3289 34.4004C27.1564 34.5072 26.95 34.6393 26.6987 34.777C26.2013 35.0582 25.5455 35.3906 24.7346 35.7249C24.5806 35.788 24.4149 35.8502 24.2493 35.9125C24.0293 35.288 23.7629 34.6378 23.4504 33.9676C23.5912 33.8944 23.7361 33.8193 23.8715 33.7498C24.1089 33.6125 24.3364 33.4815 24.5534 33.357C24.661 33.294 24.7659 33.2329 24.8681 33.1729C24.9674 33.1091 25.064 33.0472 25.1576 32.9876C25.3432 32.8672 25.5172 32.7548 25.678 32.651C25.7572 32.5982 25.8349 32.5499 25.9059 32.4989C25.9764 32.448 26.0444 32.3997 26.1081 32.3532C26.2353 32.2608 26.3474 32.1789 26.4451 32.1072C26.8315 31.8208 26.9632 31.7049 26.7674 31.8215C26.5704 31.9378 26.21 32.1189 25.701 32.3612C25.4429 32.4744 25.1481 32.6042 24.818 32.7491C24.6549 32.8249 24.4757 32.8902 24.2915 32.9657C24.1078 33.0404 23.9149 33.1185 23.713 33.2C23.5421 33.2657 23.3606 33.334 23.1768 33.4023C22.7768 32.5997 22.3149 31.7729 21.7798 30.9291C21.7198 30.834 21.6546 30.7374 21.5927 30.6419C22.0866 30.2815 22.5595 29.9272 22.9829 29.5714C23.4663 29.1861 23.8893 28.7932 24.2772 28.4461C24.3749 28.36 24.4663 28.2717 24.5542 28.1857C24.6429 28.0997 24.7285 28.0159 24.8112 27.9351C24.9764 27.7732 25.1304 27.6208 25.2723 27.4812C25.5512 27.1966 25.773 26.9491 25.9425 26.7634C26.2791 26.3898 26.3893 26.2415 26.2104 26.3997C26.0323 26.5574 25.6919 26.8076 25.2149 27.1532C24.7266 27.4849 24.1059 27.9189 23.3387 28.4065C23.2436 28.4687 23.1466 28.5321 23.0474 28.597C22.9489 28.6612 22.844 28.7227 22.7402 28.788C22.5319 28.9178 22.3157 29.0521 22.0915 29.1925C21.981 29.2642 21.864 29.3302 21.7466 29.3997C21.6293 29.4691 21.5104 29.5397 21.3897 29.6117C21.2757 29.68 21.1595 29.7498 21.0421 29.82C20.8383 29.5253 20.6236 29.2283 20.404 28.931C20.0372 28.9729 19.6632 28.9955 19.2847 28.9955C19.19 28.9955 19.0915 28.9872 18.9957 28.9849C19.3708 29.4415 19.7376 29.9 20.0851 30.36C19.1889 30.8593 18.2036 31.3732 17.113 31.8702C16.9478 31.9449 16.7836 32.0197 16.6195 32.094C16.4557 32.1668 16.2889 32.2329 16.1255 32.3031C15.8183 32.4381 15.5085 32.554 15.2032 32.6736C15.1002 32.5148 14.9934 32.3551 14.8821 32.1948C14.3319 31.4004 13.6787 30.5872 12.9266 29.7748C13.5497 29.3125 14.2089 28.8072 14.8938 28.2623L14.41 28.1291L14.4055 27.5125C14.4047 27.4057 14.4025 27.3049 14.4006 27.2019C13.6587 27.857 12.941 28.4929 12.267 29.0902C12.0587 28.8815 11.8466 28.6736 11.6251 28.4668C11.0364 27.9166 10.4289 27.4057 9.81644 26.9249C9.87984 26.814 9.93871 26.7076 10.0036 26.5951C10.7493 25.3095 11.6225 23.9132 12.61 22.4419C13.3813 23.1129 14.1636 23.8336 14.9485 24.597L15.4893 24.8559C16.2413 25.2163 16.9225 25.4729 17.5138 25.6178C17.6527 25.6517 17.7912 25.6812 17.9281 25.7072C18.9753 24.7732 19.9791 23.8174 20.9051 22.8819C20.7802 22.7548 20.621 22.6012 20.4149 22.4129C20.3293 22.3351 20.2304 22.2461 20.1323 22.1574C19.1761 22.9974 18.1281 23.9185 16.9912 24.9174C16.9791 24.9049 16.9674 24.8921 16.9553 24.8797C15.7644 23.6551 14.5176 22.5223 13.2583 21.4966C14.1297 20.2446 15.0221 19.0498 15.881 17.954C15.761 17.7578 15.6542 17.5665 15.5761 17.3891C15.5217 17.2649 15.4746 17.1325 15.433 16.9951C15.1764 17.2634 14.9172 17.5393 14.6515 17.837C13.8938 18.691 13.1013 19.6585 12.3127 20.7465C11.7938 20.348 11.2742 19.9683 10.7576 19.6095C10.0715 19.1332 9.38965 18.6974 8.71795 18.2974C9.52361 16.5653 10.5213 14.9415 11.5844 13.5008C12.6885 14.2536 13.8542 15.0978 15.0621 16.0415C15.1357 16.0993 15.2074 16.1589 15.2802 16.2174C15.2576 16.0049 15.244 15.791 15.2515 15.5763C15.2613 15.2932 15.3081 15.0181 15.3712 14.7465C15.3281 14.7136 15.2851 14.6808 15.2425 14.6483C15.1474 14.5759 15.053 14.5027 14.9568 14.4325C14.8598 14.3638 14.7636 14.2944 14.6674 14.2253C14.4746 14.088 14.2821 13.9517 14.0912 13.8159C13.8964 13.6857 13.7036 13.5555 13.5112 13.4268C13.4146 13.3627 13.3187 13.2989 13.2229 13.2355C13.1259 13.174 13.0289 13.1132 12.9327 13.0525C12.7395 12.9317 12.5478 12.8117 12.358 12.6929C12.3225 12.6717 12.2881 12.6514 12.2527 12.6306C12.7787 11.9695 13.3123 11.3514 13.8361 10.7842C13.9927 10.6189 14.1413 10.4514 14.2961 10.2948C14.45 10.1378 14.601 9.98306 14.7485 9.83173C14.8983 9.68155 15.0485 9.53853 15.193 9.39664C15.2651 9.32532 15.3368 9.25513 15.4074 9.18607C15.4798 9.11853 15.5515 9.05173 15.6225 8.98607C15.9934 8.63739 16.3432 8.3223 16.6697 8.03551C16.7142 8.06041 16.7602 8.08645 16.804 8.11136C17.0055 8.22192 17.2013 8.33022 17.393 8.43626C17.584 8.54419 17.7644 8.65739 17.9436 8.76079C18.2995 8.97136 18.6342 9.16419 18.9402 9.33702C20.1312 10.0755 20.8644 10.4736 20.6059 10.2766C20.4768 10.1785 20.2685 9.98004 19.978 9.6989C19.8327 9.55815 19.6655 9.39739 19.4791 9.21739C19.3844 9.12834 19.2885 9.02985 19.1802 8.93626C19.0715 8.8423 18.9576 8.74381 18.8391 8.64117C18.6006 8.43702 18.3398 8.21664 18.0557 7.98268C17.984 7.92494 17.9134 7.86343 17.8376 7.80721C17.761 7.7506 17.6829 7.69324 17.604 7.63513C17.5221 7.57475 17.4338 7.51173 17.3489 7.45022C17.7176 7.1389 18.0372 6.87739 18.2855 6.67324C18.8738 6.20268 19.0802 6.01702 18.784 6.22192C18.6364 6.32419 18.427 6.45777 18.1595 6.62419C18.0263 6.70758 17.8817 6.80419 17.721 6.90683C17.5617 7.01098 17.3851 7.11966 17.201 7.24456C17.1791 7.25928 17.1527 7.27739 17.1304 7.29249C17.1236 7.28796 17.1172 7.28343 17.1108 7.27853C16.9406 7.15702 16.7644 7.03324 16.5821 6.90683C16.3964 6.78645 16.201 6.66872 16.0013 6.54683C15.8017 6.42532 15.5957 6.30268 15.384 6.17853C15.2791 6.11438 15.167 6.05966 15.0553 6.00154C14.9432 5.94419 14.8297 5.88683 14.7149 5.82834C14.484 5.71362 14.2564 5.59664 14.0259 5.49098C13.8946 5.43513 13.7659 5.38268 13.6361 5.32834C13.9663 5.10607 14.2957 4.8906 14.6217 4.68985C15.6263 4.07249 16.5976 3.5457 17.4998 3.11287C17.6157 3.05626 17.7266 3.00456 17.8398 2.9506C18.2591 3.11664 18.6666 3.28796 19.0549 3.46154C19.1508 3.50343 19.2459 3.54607 19.3398 3.5872C19.4323 3.63098 19.5244 3.674 19.6149 3.71702C19.7957 3.80305 19.9753 3.88192 20.1432 3.96909C20.3134 4.05249 20.478 4.13362 20.6361 4.21173C20.7923 4.29324 20.9421 4.37136 21.0847 4.44532C21.6553 4.74381 22.1044 4.99249 22.3813 5.14268C22.6598 5.29136 22.7697 5.33513 22.6489 5.24683C22.5278 5.15928 22.3334 4.97966 22.0576 4.72758C21.9168 4.60532 21.7553 4.46532 21.5749 4.30871C21.393 4.15249 21.1836 3.99022 20.9557 3.80909C20.4915 3.46041 19.9357 3.06117 19.2598 2.68003C19.138 2.61022 19.0081 2.54154 18.8787 2.47287C20.0598 1.95098 21.0402 1.58419 21.7059 1.33211C22.6217 1.00041 22.9527 0.865318 22.5074 1.00192C22.2847 1.0706 21.9753 1.15702 21.5821 1.26343C21.384 1.31324 21.17 1.3823 20.9338 1.45098C20.6968 1.52041 20.4402 1.59588 20.1636 1.67739C19.658 1.83853 19.0829 2.02796 18.453 2.25626C17.9783 2.02305 17.464 1.79966 16.8991 1.6023C16.7466 1.54947 16.5942 1.50079 16.441 1.454C17.933 1.07815 19.4938 0.876261 21.1025 0.876261C26.3266 0.876261 31.05 2.97513 34.4908 6.38041C30.8549 2.50607 25.6987 0.0732422 19.964 0.0732422C8.95757 0.0732422 0.0424805 8.99815 0.0424805 20.0034C0.0424805 31.0068 8.95757 39.9261 19.964 39.9261C27.0991 39.9261 33.3327 36.1721 36.8549 30.5446C34.1266 34.5763 29.8844 37.4963 24.9421 38.5083Z" fill="#9E9E9E"></path></svg>