<svg xmlns="http://www.w3.org/2000/svg" width="64" height="64" viewBox="0 0 64 64" fill="none"><rect width="64" height="64" rx="24" fill="#0066B2"></rect><path d="M32 16.5C23.4375 16.5 16.5 23.4375 16.5 32C16.5 40.5625 23.4375 47.5 32 47.5C40.5625 47.5 47.5 40.5625 47.5 32C47.5 23.4375 40.5625 16.5 32 16.5ZM37 27C38.0625 27 39 27.9375 39 29C39 30.125 38.0625 31 37 31C35.875 31 35 30.125 35 29C35 27.9375 35.875 27 37 27ZM27 27C28.0625 27 29 27.9375 29 29C29 30.125 28.0625 31 27 31C25.875 31 25 30.125 25 29C25 27.9375 25.875 27 27 27ZM32 43C28.1875 43 23.5625 40.625 23 37.1875C22.875 36.4375 23.5625 35.875 24.25 36.0625C26.1875 36.6875 29 37 32 37C35 37 37.75 36.6875 39.6875 36.0625C40.375 35.875 41.0625 36.4375 40.9375 37.1875C40.375 40.625 35.75 43 32 43Z" fill="white"></path></svg>