<svg width="25" height="20" viewBox="0 0 25 20" fill="none" xmlns="http://www.w3.org/2000/svg">
<path d="M21.9404 5.125C22.8779 4.42188 23.7217 3.57812 24.3779 2.59375C23.5342 2.96875 22.5498 3.25 21.5654 3.34375C22.5967 2.73438 23.3467 1.79688 23.7217 0.625C22.7842 1.1875 21.7061 1.60938 20.6279 1.84375C19.6904 0.859375 18.4248 0.296875 17.0186 0.296875C14.2998 0.296875 12.0967 2.5 12.0967 5.21875C12.0967 5.59375 12.1436 5.96875 12.2373 6.34375C8.15918 6.10938 4.50293 4.14062 2.06543 1.1875C1.64355 1.89062 1.40918 2.73438 1.40918 3.67188C1.40918 5.35938 2.25293 6.85938 3.6123 7.75C2.81543 7.70312 2.01855 7.51562 1.3623 7.14062V7.1875C1.3623 9.57812 3.0498 11.5469 5.2998 12.0156C4.9248 12.1094 4.45605 12.2031 4.03418 12.2031C3.70605 12.2031 3.4248 12.1562 3.09668 12.1094C3.70605 14.0781 5.53418 15.4844 7.69043 15.5312C6.00293 16.8438 3.89355 17.6406 1.59668 17.6406C1.1748 17.6406 0.799805 17.5938 0.424805 17.5469C2.58105 18.9531 5.15918 19.75 7.97168 19.75C17.0186 19.75 21.9404 12.2969 21.9404 5.78125C21.9404 5.54688 21.9404 5.35938 21.9404 5.125Z" fill="white"/>
</svg>
