<svg width="27" height="18" viewBox="0 0 27 18" fill="none" xmlns="http://www.w3.org/2000/svg">
<path d="M25.6592 2.85938C25.3779 1.73438 24.4873 0.84375 23.4092 0.5625C21.3936 0 13.4248 0 13.4248 0C13.4248 0 5.40918 0 3.39355 0.5625C2.31543 0.84375 1.4248 1.73438 1.14355 2.85938C0.581055 4.82812 0.581055 9.04688 0.581055 9.04688C0.581055 9.04688 0.581055 13.2188 1.14355 15.2344C1.4248 16.3594 2.31543 17.2031 3.39355 17.4844C5.40918 18 13.4248 18 13.4248 18C13.4248 18 21.3936 18 23.4092 17.4844C24.4873 17.2031 25.3779 16.3594 25.6592 15.2344C26.2217 13.2188 26.2217 9.04688 26.2217 9.04688C26.2217 9.04688 26.2217 4.82812 25.6592 2.85938ZM10.7998 12.8438V5.25L17.4561 9.04688L10.7998 12.8438Z" fill="white"/>
</svg>
